<?xml version="1.0" encoding="UTF-8"?>
<svg id="Layer_1" data-name="Layer 1" xmlns="http://www.w3.org/2000/svg" viewBox="0 0 1920 1080">
  <defs>
    <style>
      .cls-1 {
        fill: #0000f4;
      }

      .cls-2 {
        fill: #01ff97;
      }
    </style>
  </defs>
  <path class="cls-2" d="M87.15,69.83c-2.64-1.18-5.55.98-5.19,3.85l5.12,40.95c.25,1.99,1.52,3.71,3.36,4.53l80.58,35.96-31.81,23.92c-1.41,1.06-2.15,2.8-1.93,4.56l5.44,43.51c.24,1.93,2.48,2.89,4.04,1.71l68.81-51.74c1.18-.89,1.8-2.34,1.61-3.81l-5.75-46.01c-.18-1.43-1.1-2.67-2.42-3.26l-121.85-54.17Z"/>
  <path class="cls-1" d="M351.52,230.52c2.64,1.18,5.55-.98,5.19-3.85l-5.12-40.95c-.25-1.99-1.52-3.71-3.36-4.53l-80.58-35.96,31.81-23.92c1.41-1.06,2.15-2.8,1.93-4.56l-5.44-43.51c-.24-1.93-2.48-2.89-4.04-1.71l-68.81,51.74c-1.18.89-1.8,2.34-1.61,3.81l5.75,46.01c.18,1.43,1.1,2.67,2.42,3.26l121.85,54.17Z"/>
  <path class="cls-2" d="M318.9,68.37c-2.64-1.18-5.55.98-5.19,3.85l5.12,40.95c.25,1.99,1.52,3.71,3.36,4.53l80.58,35.96-31.81,23.92c-1.41,1.06-2.15,2.8-1.93,4.56l5.44,43.51c.24,1.93,2.48,2.89,4.04,1.71l68.81-51.74c1.18-.89,1.8-2.34,1.61-3.81l-5.75-46.01c-.18-1.43-1.1-2.67-2.42-3.26l-121.85-54.17Z"/>
  <path class="cls-1" d="M583.27,229.06c2.64,1.18,5.55-.98,5.19-3.85l-5.12-40.95c-.25-1.99-1.52-3.71-3.36-4.53l-80.58-35.96,31.81-23.92c1.41-1.06,2.15-2.8,1.93-4.56l-5.44-43.51c-.24-1.93-2.48-2.89-4.04-1.71l-68.81,51.74c-1.18.89-1.8,2.34-1.61,3.81l5.75,46.01c.18,1.43,1.1,2.67,2.42,3.26l121.85,54.17Z"/>
  <path class="cls-2" d="M550.8,68.08c-2.64-1.18-5.55.98-5.19,3.85l5.12,40.95c.25,1.99,1.52,3.71,3.36,4.53l80.58,35.96-31.81,23.92c-1.41,1.06-2.15,2.8-1.93,4.56l5.44,43.51c.24,1.93,2.48,2.89,4.04,1.71l68.81-51.74c1.18-.89,1.8-2.34,1.61-3.81l-5.75-46.01c-.18-1.43-1.1-2.67-2.42-3.26l-121.85-54.17Z"/>
  <path class="cls-1" d="M815.17,228.77c2.64,1.18,5.55-.98,5.19-3.85l-5.12-40.95c-.25-1.99-1.52-3.71-3.36-4.53l-80.58-35.96,31.81-23.92c1.41-1.06,2.15-2.8,1.93-4.56l-5.44-43.51c-.24-1.93-2.48-2.89-4.04-1.71l-68.81,51.74c-1.18.89-1.8,2.34-1.61,3.81l5.75,46.01c.18,1.43,1.1,2.67,2.42,3.26l121.85,54.17Z"/>
  <path class="cls-2" d="M782.55,66.62c-2.64-1.18-5.55.98-5.19,3.85l5.12,40.95c.25,1.99,1.52,3.71,3.36,4.53l80.58,35.96-31.81,23.92c-1.41,1.06-2.15,2.8-1.93,4.56l5.44,43.51c.24,1.93,2.48,2.89,4.04,1.71l68.81-51.74c1.18-.89,1.8-2.34,1.61-3.81l-5.75-46.01c-.18-1.43-1.1-2.67-2.42-3.26l-121.85-54.17Z"/>
  <path class="cls-1" d="M1046.92,227.31c2.64,1.18,5.55-.98,5.19-3.85l-5.12-40.95c-.25-1.99-1.52-3.71-3.36-4.53l-80.58-35.96,31.81-23.92c1.41-1.06,2.15-2.8,1.93-4.56l-5.44-43.51c-.24-1.93-2.48-2.89-4.04-1.71l-68.81,51.74c-1.18.89-1.8,2.34-1.61,3.81l5.75,46.01c.18,1.43,1.1,2.67,2.42,3.26l121.85,54.17Z"/>
  <path class="cls-2" d="M1014.45,66.33c-2.64-1.18-5.55.98-5.19,3.85l5.12,40.95c.25,1.99,1.52,3.71,3.36,4.53l80.58,35.96-31.81,23.92c-1.41,1.06-2.15,2.8-1.93,4.56l5.44,43.51c.24,1.93,2.48,2.89,4.04,1.71l68.81-51.74c1.18-.89,1.8-2.34,1.61-3.81l-5.75-46.01c-.18-1.43-1.1-2.67-2.42-3.26l-121.85-54.17Z"/>
  <path class="cls-1" d="M1278.81,227.02c2.64,1.18,5.55-.98,5.19-3.85l-5.12-40.95c-.25-1.99-1.52-3.71-3.36-4.53l-80.58-35.96,31.81-23.92c1.41-1.06,2.15-2.8,1.93-4.56l-5.44-43.51c-.24-1.93-2.48-2.89-4.04-1.71l-68.81,51.74c-1.18.89-1.8,2.34-1.61,3.81l5.75,46.01c.18,1.43,1.1,2.67,2.42,3.26l121.85,54.17Z"/>
  <path class="cls-2" d="M1246.2,64.87c-2.64-1.18-5.55.98-5.19,3.85l5.12,40.95c.25,1.99,1.52,3.71,3.36,4.53l80.58,35.96-31.81,23.92c-1.41,1.06-2.15,2.8-1.93,4.56l5.44,43.51c.24,1.93,2.48,2.89,4.04,1.71l68.81-51.74c1.18-.89,1.8-2.34,1.61-3.81l-5.75-46.01c-.18-1.43-1.1-2.67-2.42-3.26l-121.85-54.17Z"/>
  <path class="cls-1" d="M1510.57,225.56c2.64,1.18,5.55-.98,5.19-3.85l-5.12-40.95c-.25-1.99-1.52-3.71-3.36-4.53l-80.58-35.96,31.81-23.92c1.41-1.06,2.15-2.8,1.93-4.56l-5.44-43.51c-.24-1.93-2.48-2.89-4.04-1.71l-68.81,51.74c-1.18.89-1.8,2.34-1.61,3.81l5.75,46.01c.18,1.43,1.1,2.67,2.42,3.26l121.85,54.17Z"/>
  <path class="cls-2" d="M1478.09,64.58c-2.64-1.18-5.55.98-5.19,3.85l5.12,40.95c.25,1.99,1.52,3.71,3.36,4.53l80.58,35.96-31.81,23.92c-1.41,1.06-2.15,2.8-1.93,4.56l5.44,43.51c.24,1.93,2.48,2.89,4.04,1.71l68.81-51.74c1.18-.89,1.8-2.34,1.61-3.81l-5.75-46.01c-.18-1.43-1.1-2.67-2.42-3.26l-121.85-54.17Z"/>
  <path class="cls-1" d="M1742.46,225.27c2.64,1.18,5.55-.98,5.19-3.85l-5.12-40.95c-.25-1.99-1.52-3.71-3.36-4.53l-80.58-35.96,31.81-23.92c1.41-1.06,2.15-2.8,1.93-4.56l-5.44-43.51c-.24-1.93-2.48-2.89-4.04-1.71l-68.81,51.74c-1.18.89-1.8,2.34-1.61,3.81l5.75,46.01c.18,1.43,1.1,2.67,2.42,3.26l121.85,54.17Z"/>
  <path class="cls-2" d="M1709.84,63.12c-2.64-1.18-5.55.98-5.19,3.85l5.12,40.95c.25,1.99,1.52,3.71,3.36,4.53l80.58,35.96-31.81,23.92c-1.41,1.06-2.15,2.8-1.93,4.56l5.44,43.51c.24,1.93,2.48,2.89,4.04,1.71l68.81-51.74c1.18-.89,1.8-2.34,1.61-3.81l-5.75-46.01c-.18-1.43-1.1-2.67-2.42-3.26l-121.85-54.17Z"/>
  <path class="cls-1" d="M281.49,358.68c2.64,1.18,5.55-.98,5.19-3.85l-5.12-40.95c-.25-1.99-1.52-3.71-3.36-4.53l-80.58-35.96,31.81-23.92c1.41-1.06,2.15-2.8,1.93-4.56l-5.44-43.51c-.24-1.93-2.48-2.89-4.04-1.71l-68.81,51.74c-1.18.89-1.8,2.34-1.61,3.81l5.75,46.01c.18,1.43,1.1,2.67,2.42,3.26l121.85,54.17Z"/>
  <path class="cls-2" d="M248.87,196.53c-2.64-1.18-5.55.98-5.19,3.85l5.12,40.95c.25,1.99,1.52,3.71,3.36,4.53l80.58,35.96-31.81,23.92c-1.41,1.06-2.15,2.8-1.93,4.56l5.44,43.51c.24,1.93,2.48,2.89,4.04,1.71l68.81-51.74c1.18-.89,1.8-2.34,1.61-3.81l-5.75-46.01c-.18-1.43-1.1-2.67-2.42-3.26l-121.85-54.17Z"/>
  <path class="cls-1" d="M513.24,357.22c2.64,1.18,5.55-.98,5.19-3.85l-5.12-40.95c-.25-1.99-1.52-3.71-3.36-4.53l-80.58-35.96,31.81-23.92c1.41-1.06,2.15-2.8,1.93-4.56l-5.44-43.51c-.24-1.93-2.48-2.89-4.04-1.71l-68.81,51.74c-1.18.89-1.8,2.34-1.61,3.81l5.75,46.01c.18,1.43,1.1,2.67,2.42,3.26l121.85,54.17Z"/>
  <path class="cls-2" d="M480.77,196.24c-2.64-1.18-5.55.98-5.19,3.85l5.12,40.95c.25,1.99,1.52,3.71,3.36,4.53l80.58,35.96-31.81,23.92c-1.41,1.06-2.15,2.8-1.93,4.56l5.44,43.51c.24,1.93,2.48,2.89,4.04,1.71l68.81-51.74c1.18-.89,1.8-2.34,1.61-3.81l-5.75-46.01c-.18-1.43-1.1-2.67-2.42-3.26l-121.85-54.17Z"/>
  <path class="cls-1" d="M745.14,356.93c2.64,1.18,5.55-.98,5.19-3.85l-5.12-40.95c-.25-1.99-1.52-3.71-3.36-4.53l-80.58-35.96,31.81-23.92c1.41-1.06,2.15-2.8,1.93-4.56l-5.44-43.51c-.24-1.93-2.48-2.89-4.04-1.71l-68.81,51.74c-1.18.89-1.8,2.34-1.61,3.81l5.75,46.01c.18,1.43,1.1,2.67,2.42,3.26l121.85,54.17Z"/>
  <path class="cls-2" d="M712.52,194.78c-2.64-1.18-5.55.98-5.19,3.85l5.12,40.95c.25,1.99,1.52,3.71,3.36,4.53l80.58,35.96-31.81,23.92c-1.41,1.06-2.15,2.8-1.93,4.56l5.44,43.51c.24,1.93,2.48,2.89,4.04,1.71l68.81-51.74c1.18-.89,1.8-2.34,1.61-3.81l-5.75-46.01c-.18-1.43-1.1-2.67-2.42-3.26l-121.85-54.17Z"/>
  <path class="cls-1" d="M976.89,355.47c2.64,1.18,5.55-.98,5.19-3.85l-5.12-40.95c-.25-1.99-1.52-3.71-3.36-4.53l-80.58-35.96,31.81-23.92c1.41-1.06,2.15-2.8,1.93-4.56l-5.44-43.51c-.24-1.93-2.48-2.89-4.04-1.71l-68.81,51.74c-1.18.89-1.8,2.34-1.61,3.81l5.75,46.01c.18,1.43,1.1,2.67,2.42,3.26l121.85,54.17Z"/>
  <path class="cls-2" d="M944.42,194.49c-2.64-1.18-5.55.98-5.19,3.85l5.12,40.95c.25,1.99,1.52,3.71,3.36,4.53l80.58,35.96-31.81,23.92c-1.41,1.06-2.15,2.8-1.93,4.56l5.44,43.51c.24,1.93,2.48,2.89,4.04,1.71l68.81-51.74c1.18-.89,1.8-2.34,1.61-3.81l-5.75-46.01c-.18-1.43-1.1-2.67-2.42-3.26l-121.85-54.17Z"/>
  <path class="cls-1" d="M1208.78,355.18c2.64,1.18,5.55-.98,5.19-3.85l-5.12-40.95c-.25-1.99-1.52-3.71-3.36-4.53l-80.58-35.96,31.81-23.92c1.41-1.06,2.15-2.8,1.93-4.56l-5.44-43.51c-.24-1.93-2.48-2.89-4.04-1.71l-68.81,51.74c-1.18.89-1.8,2.34-1.61,3.81l5.75,46.01c.18,1.43,1.1,2.67,2.42,3.26l121.85,54.17Z"/>
  <path class="cls-2" d="M1176.17,193.03c-2.64-1.18-5.55.98-5.19,3.85l5.12,40.95c.25,1.99,1.52,3.71,3.36,4.53l80.58,35.96-31.81,23.92c-1.41,1.06-2.15,2.8-1.93,4.56l5.44,43.51c.24,1.93,2.48,2.89,4.04,1.71l68.81-51.74c1.18-.89,1.8-2.34,1.61-3.81l-5.75-46.01c-.18-1.43-1.1-2.67-2.42-3.26l-121.85-54.17Z"/>
  <path class="cls-1" d="M1440.54,353.72c2.64,1.18,5.55-.98,5.19-3.85l-5.12-40.95c-.25-1.99-1.52-3.71-3.36-4.53l-80.58-35.96,31.81-23.92c1.41-1.06,2.15-2.8,1.93-4.56l-5.44-43.51c-.24-1.93-2.48-2.89-4.04-1.71l-68.81,51.74c-1.18.89-1.8,2.34-1.61,3.81l5.75,46.01c.18,1.43,1.1,2.67,2.42,3.26l121.85,54.17Z"/>
  <path class="cls-2" d="M1408.06,192.73c-2.64-1.18-5.55.98-5.19,3.85l5.12,40.95c.25,1.99,1.52,3.71,3.36,4.53l80.58,35.96-31.81,23.92c-1.41,1.06-2.15,2.8-1.93,4.56l5.44,43.51c.24,1.93,2.48,2.89,4.04,1.71l68.81-51.74c1.18-.89,1.8-2.34,1.61-3.81l-5.75-46.01c-.18-1.43-1.1-2.67-2.42-3.26l-121.85-54.17Z"/>
  <path class="cls-1" d="M1672.43,353.43c2.64,1.18,5.55-.98,5.19-3.85l-5.12-40.95c-.25-1.99-1.52-3.71-3.36-4.53l-80.58-35.96,31.81-23.92c1.41-1.06,2.15-2.8,1.93-4.56l-5.44-43.51c-.24-1.93-2.48-2.89-4.04-1.71l-68.81,51.74c-1.18.89-1.8,2.34-1.61,3.81l5.75,46.01c.18,1.43,1.1,2.67,2.42,3.26l121.85,54.17Z"/>
  <path class="cls-2" d="M1639.81,191.27c-2.64-1.18-5.55.98-5.19,3.85l5.12,40.95c.25,1.99,1.52,3.71,3.36,4.53l80.58,35.96-31.81,23.92c-1.41,1.06-2.15,2.8-1.93,4.56l5.44,43.51c.24,1.93,2.48,2.89,4.04,1.71l68.81-51.74c1.18-.89,1.8-2.34,1.61-3.81l-5.75-46.01c-.18-1.43-1.1-2.67-2.42-3.26l-121.85-54.17Z"/>
  <path class="cls-1" d="M198.42,485.76c2.64,1.18,5.55-.98,5.19-3.85l-5.12-40.95c-.25-1.99-1.52-3.71-3.36-4.53l-80.58-35.96,31.81-23.92c1.41-1.06,2.15-2.8,1.93-4.56l-5.44-43.51c-.24-1.93-2.48-2.89-4.04-1.71l-68.81,51.74c-1.18.89-1.8,2.34-1.61,3.81l5.75,46.01c.18,1.43,1.1,2.67,2.42,3.26l121.85,54.17Z"/>
  <path class="cls-2" d="M165.95,324.78c-2.64-1.18-5.55.98-5.19,3.85l5.12,40.95c.25,1.99,1.52,3.71,3.36,4.53l80.58,35.96-31.81,23.92c-1.41,1.06-2.15,2.8-1.93,4.56l5.44,43.51c.24,1.93,2.48,2.89,4.04,1.71l68.81-51.74c1.18-.89,1.8-2.34,1.61-3.81l-5.75-46.01c-.18-1.43-1.1-2.67-2.42-3.26l-121.85-54.17Z"/>
  <path class="cls-1" d="M430.32,485.47c2.64,1.18,5.55-.98,5.19-3.85l-5.12-40.95c-.25-1.99-1.52-3.71-3.36-4.53l-80.58-35.96,31.81-23.92c1.41-1.06,2.15-2.8,1.93-4.56l-5.44-43.51c-.24-1.93-2.48-2.89-4.04-1.71l-68.81,51.74c-1.18.89-1.8,2.34-1.61,3.81l5.75,46.01c.18,1.43,1.1,2.67,2.42,3.26l121.85,54.17Z"/>
  <path class="cls-2" d="M397.7,323.32c-2.64-1.18-5.55.98-5.19,3.85l5.12,40.95c.25,1.99,1.52,3.71,3.36,4.53l80.58,35.96-31.81,23.92c-1.41,1.06-2.15,2.8-1.93,4.56l5.44,43.51c.24,1.93,2.48,2.89,4.04,1.71l68.81-51.74c1.18-.89,1.8-2.34,1.61-3.81l-5.75-46.01c-.18-1.43-1.1-2.67-2.42-3.26l-121.85-54.17Z"/>
  <path class="cls-1" d="M662.07,484.01c2.64,1.18,5.55-.98,5.19-3.85l-5.12-40.95c-.25-1.99-1.52-3.71-3.36-4.53l-80.58-35.96,31.81-23.92c1.41-1.06,2.15-2.8,1.93-4.56l-5.44-43.51c-.24-1.93-2.48-2.89-4.04-1.71l-68.81,51.74c-1.18.89-1.8,2.34-1.61,3.81l5.75,46.01c.18,1.43,1.1,2.67,2.42,3.26l121.85,54.17Z"/>
  <path class="cls-2" d="M629.6,323.03c-2.64-1.18-5.55.98-5.19,3.85l5.12,40.95c.25,1.99,1.52,3.71,3.36,4.53l80.58,35.96-31.81,23.92c-1.41,1.06-2.15,2.8-1.93,4.56l5.44,43.51c.24,1.93,2.48,2.89,4.04,1.71l68.81-51.74c1.18-.89,1.8-2.34,1.61-3.81l-5.75-46.01c-.18-1.43-1.1-2.67-2.42-3.26l-121.85-54.17Z"/>
  <path class="cls-1" d="M893.97,483.72c2.64,1.18,5.55-.98,5.19-3.85l-5.12-40.95c-.25-1.99-1.52-3.71-3.36-4.53l-80.58-35.96,31.81-23.92c1.41-1.06,2.15-2.8,1.93-4.56l-5.44-43.51c-.24-1.93-2.48-2.89-4.04-1.71l-68.81,51.74c-1.18.89-1.8,2.34-1.61,3.81l5.75,46.01c.18,1.43,1.1,2.67,2.42,3.26l121.85,54.17Z"/>
  <path class="cls-2" d="M861.35,321.57c-2.64-1.18-5.55.98-5.19,3.85l5.12,40.95c.25,1.99,1.52,3.71,3.36,4.53l80.58,35.96-31.81,23.92c-1.41,1.06-2.15,2.8-1.93,4.56l5.44,43.51c.24,1.93,2.48,2.89,4.04,1.71l68.81-51.74c1.18-.89,1.8-2.34,1.61-3.81l-5.75-46.01c-.18-1.43-1.1-2.67-2.42-3.26l-121.85-54.17Z"/>
  <path class="cls-1" d="M1125.72,482.26c2.64,1.18,5.55-.98,5.19-3.85l-5.12-40.95c-.25-1.99-1.52-3.71-3.36-4.53l-80.58-35.96,31.81-23.92c1.41-1.06,2.15-2.8,1.93-4.56l-5.44-43.51c-.24-1.93-2.48-2.89-4.04-1.71l-68.81,51.74c-1.18.89-1.8,2.34-1.61,3.81l5.75,46.01c.18,1.43,1.1,2.67,2.42,3.26l121.85,54.17Z"/>
  <path class="cls-2" d="M1093.24,321.28c-2.64-1.18-5.55.98-5.19,3.85l5.12,40.95c.25,1.99,1.52,3.71,3.36,4.53l80.58,35.96-31.81,23.92c-1.41,1.06-2.15,2.8-1.93,4.56l5.44,43.51c.24,1.93,2.48,2.89,4.04,1.71l68.81-51.74c1.18-.89,1.8-2.34,1.61-3.81l-5.75-46.01c-.18-1.43-1.1-2.67-2.42-3.26l-121.85-54.17Z"/>
  <path class="cls-1" d="M1357.61,481.97c2.64,1.18,5.55-.98,5.19-3.85l-5.12-40.95c-.25-1.99-1.52-3.71-3.36-4.53l-80.58-35.96,31.81-23.92c1.41-1.06,2.15-2.8,1.93-4.56l-5.44-43.51c-.24-1.93-2.48-2.89-4.04-1.71l-68.81,51.74c-1.18.89-1.8,2.34-1.61,3.81l5.75,46.01c.18,1.43,1.1,2.67,2.42,3.26l121.85,54.17Z"/>
  <path class="cls-2" d="M1325,319.82c-2.64-1.18-5.55.98-5.19,3.85l5.12,40.95c.25,1.99,1.52,3.71,3.36,4.53l80.58,35.96-31.81,23.92c-1.41,1.06-2.15,2.8-1.93,4.56l5.44,43.51c.24,1.93,2.48,2.89,4.04,1.71l68.81-51.74c1.18-.89,1.8-2.34,1.61-3.81l-5.75-46.01c-.18-1.43-1.1-2.67-2.42-3.26l-121.85-54.17Z"/>
  <path class="cls-1" d="M1589.36,480.51c2.64,1.18,5.55-.98,5.19-3.85l-5.12-40.95c-.25-1.99-1.52-3.71-3.36-4.53l-80.58-35.96,31.81-23.92c1.41-1.06,2.15-2.8,1.93-4.56l-5.44-43.51c-.24-1.93-2.48-2.89-4.04-1.71l-68.81,51.74c-1.18.89-1.8,2.34-1.61,3.81l5.75,46.01c.18,1.43,1.1,2.67,2.42,3.26l121.85,54.17Z"/>
  <path class="cls-2" d="M1556.89,319.52c-2.64-1.18-5.55.98-5.19,3.85l5.12,40.95c.25,1.99,1.52,3.71,3.36,4.53l80.58,35.96-31.81,23.92c-1.41,1.06-2.15,2.8-1.93,4.56l5.44,43.51c.24,1.93,2.48,2.89,4.04,1.71l68.81-51.74c1.18-.89,1.8-2.34,1.61-3.81l-5.75-46.01c-.18-1.43-1.1-2.67-2.42-3.26l-121.85-54.17Z"/>
  <path class="cls-1" d="M1821.26,480.22c2.64,1.18,5.55-.98,5.19-3.85l-5.12-40.95c-.25-1.99-1.52-3.71-3.36-4.53l-80.58-35.96,31.81-23.92c1.41-1.06,2.15-2.8,1.93-4.56l-5.44-43.51c-.24-1.93-2.48-2.89-4.04-1.71l-68.81,51.74c-1.18.89-1.8,2.34-1.61,3.81l5.75,46.01c.18,1.43,1.1,2.67,2.42,3.26l121.85,54.17Z"/>
  <path class="cls-2" d="M95.92,452.94c-2.64-1.18-5.55.98-5.19,3.85l5.12,40.95c.25,1.99,1.52,3.71,3.36,4.53l80.58,35.96-31.81,23.92c-1.41,1.06-2.15,2.8-1.93,4.56l5.44,43.51c.24,1.93,2.48,2.89,4.04,1.71l68.81-51.74c1.18-.89,1.8-2.34,1.61-3.81l-5.75-46.01c-.18-1.43-1.1-2.67-2.42-3.26l-121.85-54.17Z"/>
  <path class="cls-1" d="M360.29,613.63c2.64,1.18,5.55-.98,5.19-3.85l-5.12-40.95c-.25-1.99-1.52-3.71-3.36-4.53l-80.58-35.96,31.81-23.92c1.41-1.06,2.15-2.8,1.93-4.56l-5.44-43.51c-.24-1.93-2.48-2.89-4.04-1.71l-68.81,51.74c-1.18.89-1.8,2.34-1.61,3.81l5.75,46.01c.18,1.43,1.1,2.67,2.42,3.26l121.85,54.17Z"/>
  <path class="cls-2" d="M327.67,451.48c-2.64-1.18-5.55.98-5.19,3.85l5.12,40.95c.25,1.99,1.52,3.71,3.36,4.53l80.58,35.96-31.81,23.92c-1.41,1.06-2.15,2.8-1.93,4.56l5.44,43.51c.24,1.93,2.48,2.89,4.04,1.71l68.81-51.74c1.18-.89,1.8-2.34,1.61-3.81l-5.75-46.01c-.18-1.43-1.1-2.67-2.42-3.26l-121.85-54.17Z"/>
  <path class="cls-1" d="M592.04,612.17c2.64,1.18,5.55-.98,5.19-3.85l-5.12-40.95c-.25-1.99-1.52-3.71-3.36-4.53l-80.58-35.96,31.81-23.92c1.41-1.06,2.15-2.8,1.93-4.56l-5.44-43.51c-.24-1.93-2.48-2.89-4.04-1.71l-68.81,51.74c-1.18.89-1.8,2.34-1.61,3.81l5.75,46.01c.18,1.43,1.1,2.67,2.42,3.26l121.85,54.17Z"/>
  <path class="cls-2" d="M559.57,451.19c-2.64-1.18-5.55.98-5.19,3.85l5.12,40.95c.25,1.99,1.52,3.71,3.36,4.53l80.58,35.96-31.81,23.92c-1.41,1.06-2.15,2.8-1.93,4.56l5.44,43.51c.24,1.93,2.48,2.89,4.04,1.71l68.81-51.74c1.18-.89,1.8-2.34,1.61-3.81l-5.75-46.01c-.18-1.43-1.1-2.67-2.42-3.26l-121.85-54.17Z"/>
  <path class="cls-1" d="M823.94,611.88c2.64,1.18,5.55-.98,5.19-3.85l-5.12-40.95c-.25-1.99-1.52-3.71-3.36-4.53l-80.58-35.96,31.81-23.92c1.41-1.06,2.15-2.8,1.93-4.56l-5.44-43.51c-.24-1.93-2.48-2.89-4.04-1.71l-68.81,51.74c-1.18.89-1.8,2.34-1.61,3.81l5.75,46.01c.18,1.43,1.1,2.67,2.42,3.26l121.85,54.17Z"/>
  <path class="cls-2" d="M791.32,449.73c-2.64-1.18-5.55.98-5.19,3.85l5.12,40.95c.25,1.99,1.52,3.71,3.36,4.53l80.58,35.96-31.81,23.92c-1.41,1.06-2.15,2.8-1.93,4.56l5.44,43.51c.24,1.93,2.48,2.89,4.04,1.71l68.81-51.74c1.18-.89,1.8-2.34,1.61-3.81l-5.75-46.01c-.18-1.43-1.1-2.67-2.42-3.26l-121.85-54.17Z"/>
  <path class="cls-1" d="M1055.69,610.42c2.64,1.18,5.55-.98,5.19-3.85l-5.12-40.95c-.25-1.99-1.52-3.71-3.36-4.53l-80.58-35.96,31.81-23.92c1.41-1.06,2.15-2.8,1.93-4.56l-5.44-43.51c-.24-1.93-2.48-2.89-4.04-1.71l-68.81,51.74c-1.18.89-1.8,2.34-1.61,3.81l5.75,46.01c.18,1.43,1.1,2.67,2.42,3.26l121.85,54.17Z"/>
  <path class="cls-2" d="M1023.21,449.43c-2.64-1.18-5.55.98-5.19,3.85l5.12,40.95c.25,1.99,1.52,3.71,3.36,4.53l80.58,35.96-31.81,23.92c-1.41,1.06-2.15,2.8-1.93,4.56l5.44,43.51c.24,1.93,2.48,2.89,4.04,1.71l68.81-51.74c1.18-.89,1.8-2.34,1.61-3.81l-5.75-46.01c-.18-1.43-1.1-2.67-2.42-3.26l-121.85-54.17Z"/>
  <path class="cls-1" d="M1287.58,610.13c2.64,1.18,5.55-.98,5.19-3.85l-5.12-40.95c-.25-1.99-1.52-3.71-3.36-4.53l-80.58-35.96,31.81-23.92c1.41-1.06,2.15-2.8,1.93-4.56l-5.44-43.51c-.24-1.93-2.48-2.89-4.04-1.71l-68.81,51.74c-1.18.89-1.8,2.34-1.61,3.81l5.75,46.01c.18,1.43,1.1,2.67,2.42,3.26l121.85,54.17Z"/>
  <path class="cls-2" d="M1254.97,447.97c-2.64-1.18-5.55.98-5.19,3.85l5.12,40.95c.25,1.99,1.52,3.71,3.36,4.53l80.58,35.96-31.81,23.92c-1.41,1.06-2.15,2.8-1.93,4.56l5.44,43.51c.24,1.93,2.48,2.89,4.04,1.71l68.81-51.74c1.18-.89,1.8-2.34,1.61-3.81l-5.75-46.01c-.18-1.43-1.1-2.67-2.42-3.26l-121.85-54.17Z"/>
  <path class="cls-1" d="M1519.33,608.67c2.64,1.18,5.55-.98,5.19-3.85l-5.12-40.95c-.25-1.99-1.52-3.71-3.36-4.53l-80.58-35.96,31.81-23.92c1.41-1.06,2.15-2.8,1.93-4.56l-5.44-43.51c-.24-1.93-2.48-2.89-4.04-1.71l-68.81,51.74c-1.18.89-1.8,2.34-1.61,3.81l5.75,46.01c.18,1.43,1.1,2.67,2.42,3.26l121.85,54.17Z"/>
  <path class="cls-2" d="M1486.86,447.68c-2.64-1.18-5.55.98-5.19,3.85l5.12,40.95c.25,1.99,1.52,3.71,3.36,4.53l80.58,35.96-31.81,23.92c-1.41,1.06-2.15,2.8-1.93,4.56l5.44,43.51c.24,1.93,2.48,2.89,4.04,1.71l68.81-51.74c1.18-.89,1.8-2.34,1.61-3.81l-5.75-46.01c-.18-1.43-1.1-2.67-2.42-3.26l-121.85-54.17Z"/>
  <path class="cls-1" d="M1751.23,608.37c2.64,1.18,5.55-.98,5.19-3.85l-5.12-40.95c-.25-1.99-1.52-3.71-3.36-4.53l-80.58-35.96,31.81-23.92c1.41-1.06,2.15-2.8,1.93-4.56l-5.44-43.51c-.24-1.93-2.48-2.89-4.04-1.71l-68.81,51.74c-1.18.89-1.8,2.34-1.61,3.81l5.75,46.01c.18,1.43,1.1,2.67,2.42,3.26l121.85,54.17Z"/>
  <path class="cls-2" d="M1718.61,446.22c-2.64-1.18-5.55.98-5.19,3.85l5.12,40.95c.25,1.99,1.52,3.71,3.36,4.53l80.58,35.96-31.81,23.92c-1.41,1.06-2.15,2.8-1.93,4.56l5.44,43.51c.24,1.93,2.48,2.89,4.04,1.71l68.81-51.74c1.18-.89,1.8-2.34,1.61-3.81l-5.75-46.01c-.18-1.43-1.1-2.67-2.42-3.26l-121.85-54.17Z"/>
  <path class="cls-1" d="M277.08,749.41c2.64,1.18,5.55-.98,5.19-3.85l-5.12-40.95c-.25-1.99-1.52-3.71-3.36-4.53l-80.58-35.96,31.81-23.92c1.41-1.06,2.15-2.8,1.93-4.56l-5.44-43.51c-.24-1.93-2.48-2.89-4.04-1.71l-68.81,51.74c-1.18.89-1.8,2.34-1.61,3.81l5.75,46.01c.18,1.43,1.1,2.67,2.42,3.26l121.85,54.17Z"/>
  <path class="cls-2" d="M244.6,588.42c-2.64-1.18-5.55.98-5.19,3.85l5.12,40.95c.25,1.99,1.52,3.71,3.36,4.53l80.58,35.96-31.81,23.92c-1.41,1.06-2.15,2.8-1.93,4.56l5.44,43.51c.24,1.93,2.48,2.89,4.04,1.71l68.81-51.74c1.18-.89,1.8-2.34,1.61-3.81l-5.75-46.01c-.18-1.43-1.1-2.67-2.42-3.26l-121.85-54.17Z"/>
  <path class="cls-1" d="M508.97,749.12c2.64,1.18,5.55-.98,5.19-3.85l-5.12-40.95c-.25-1.99-1.52-3.71-3.36-4.53l-80.58-35.96,31.81-23.92c1.41-1.06,2.15-2.8,1.93-4.56l-5.44-43.51c-.24-1.93-2.48-2.89-4.04-1.71l-68.81,51.74c-1.18.89-1.8,2.34-1.61,3.81l5.75,46.01c.18,1.43,1.1,2.67,2.42,3.26l121.85,54.17Z"/>
  <path class="cls-2" d="M476.36,586.96c-2.64-1.18-5.55.98-5.19,3.85l5.12,40.95c.25,1.99,1.52,3.71,3.36,4.53l80.58,35.96-31.81,23.92c-1.41,1.06-2.15,2.8-1.93,4.56l5.44,43.51c.24,1.93,2.48,2.89,4.04,1.71l68.81-51.74c1.18-.89,1.8-2.34,1.61-3.81l-5.75-46.01c-.18-1.43-1.1-2.67-2.42-3.26l-121.85-54.17Z"/>
  <path class="cls-1" d="M740.72,747.66c2.64,1.18,5.55-.98,5.19-3.85l-5.12-40.95c-.25-1.99-1.52-3.71-3.36-4.53l-80.58-35.96,31.81-23.92c1.41-1.06,2.15-2.8,1.93-4.56l-5.44-43.51c-.24-1.93-2.48-2.89-4.04-1.71l-68.81,51.74c-1.18.89-1.8,2.34-1.61,3.81l5.75,46.01c.18,1.43,1.1,2.67,2.42,3.26l121.85,54.17Z"/>
  <path class="cls-2" d="M708.25,586.67c-2.64-1.18-5.55.98-5.19,3.85l5.12,40.95c.25,1.99,1.52,3.71,3.36,4.53l80.58,35.96-31.81,23.92c-1.41,1.06-2.15,2.8-1.93,4.56l5.44,43.51c.24,1.93,2.48,2.89,4.04,1.71l68.81-51.74c1.18-.89,1.8-2.34,1.61-3.81l-5.75-46.01c-.18-1.43-1.1-2.67-2.42-3.26l-121.85-54.17Z"/>
  <path class="cls-1" d="M972.62,747.36c2.64,1.18,5.55-.98,5.19-3.85l-5.12-40.95c-.25-1.99-1.52-3.71-3.36-4.53l-80.58-35.96,31.81-23.92c1.41-1.06,2.15-2.8,1.93-4.56l-5.44-43.51c-.24-1.93-2.48-2.89-4.04-1.71l-68.81,51.74c-1.18.89-1.8,2.34-1.61,3.81l5.75,46.01c.18,1.43,1.1,2.67,2.42,3.26l121.85,54.17Z"/>
  <path class="cls-2" d="M940,585.21c-2.64-1.18-5.55.98-5.19,3.85l5.12,40.95c.25,1.99,1.52,3.71,3.36,4.53l80.58,35.96-31.81,23.92c-1.41,1.06-2.15,2.8-1.93,4.56l5.44,43.51c.24,1.93,2.48,2.89,4.04,1.71l68.81-51.74c1.18-.89,1.8-2.34,1.61-3.81l-5.75-46.01c-.18-1.43-1.1-2.67-2.42-3.26l-121.85-54.17Z"/>
  <path class="cls-1" d="M1204.37,745.91c2.64,1.18,5.55-.98,5.19-3.85l-5.12-40.95c-.25-1.99-1.52-3.71-3.36-4.53l-80.58-35.96,31.81-23.92c1.41-1.06,2.15-2.8,1.93-4.56l-5.44-43.51c-.24-1.93-2.48-2.89-4.04-1.71l-68.81,51.74c-1.18.89-1.8,2.34-1.61,3.81l5.75,46.01c.18,1.43,1.1,2.67,2.42,3.26l121.85,54.17Z"/>
  <path class="cls-2" d="M1171.9,584.92c-2.64-1.18-5.55.98-5.19,3.85l5.12,40.95c.25,1.99,1.52,3.71,3.36,4.53l80.58,35.96-31.81,23.92c-1.41,1.06-2.15,2.8-1.93,4.56l5.44,43.51c.24,1.93,2.48,2.89,4.04,1.71l68.81-51.74c1.18-.89,1.8-2.34,1.61-3.81l-5.75-46.01c-.18-1.43-1.1-2.67-2.42-3.26l-121.85-54.17Z"/>
  <path class="cls-1" d="M1436.27,745.61c2.64,1.18,5.55-.98,5.19-3.85l-5.12-40.95c-.25-1.99-1.52-3.71-3.36-4.53l-80.58-35.96,31.81-23.92c1.41-1.06,2.15-2.8,1.93-4.56l-5.44-43.51c-.24-1.93-2.48-2.89-4.04-1.71l-68.81,51.74c-1.18.89-1.8,2.34-1.61,3.81l5.75,46.01c.18,1.43,1.1,2.67,2.42,3.26l121.85,54.17Z"/>
  <path class="cls-2" d="M1403.65,583.46c-2.64-1.18-5.55.98-5.19,3.85l5.12,40.95c.25,1.99,1.52,3.71,3.36,4.53l80.58,35.96-31.81,23.92c-1.41,1.06-2.15,2.8-1.93,4.56l5.44,43.51c.24,1.93,2.48,2.89,4.04,1.71l68.81-51.74c1.18-.89,1.8-2.34,1.61-3.81l-5.75-46.01c-.18-1.43-1.1-2.67-2.42-3.26l-121.85-54.17Z"/>
  <path class="cls-1" d="M1668.02,744.15c2.64,1.18,5.55-.98,5.19-3.85l-5.12-40.95c-.25-1.99-1.52-3.71-3.36-4.53l-80.58-35.96,31.81-23.92c1.41-1.06,2.15-2.8,1.93-4.56l-5.44-43.51c-.24-1.93-2.48-2.89-4.04-1.71l-68.81,51.74c-1.18.89-1.8,2.34-1.61,3.81l5.75,46.01c.18,1.43,1.1,2.67,2.42,3.26l121.85,54.17Z"/>
  <path class="cls-2" d="M1635.55,583.17c-2.64-1.18-5.55.98-5.19,3.85l5.12,40.95c.25,1.99,1.52,3.71,3.36,4.53l80.58,35.96-31.81,23.92c-1.41,1.06-2.15,2.8-1.93,4.56l5.44,43.51c.24,1.93,2.48,2.89,4.04,1.71l68.81-51.74c1.18-.89,1.8-2.34,1.61-3.81l-5.75-46.01c-.18-1.43-1.1-2.67-2.42-3.26l-121.85-54.17Z"/>
  <path class="cls-1" d="M207.05,877.57c2.64,1.18,5.55-.98,5.19-3.85l-5.12-40.95c-.25-1.99-1.52-3.71-3.36-4.53l-80.58-35.96,31.81-23.92c1.41-1.06,2.15-2.8,1.93-4.56l-5.44-43.51c-.24-1.93-2.48-2.89-4.04-1.71l-68.81,51.74c-1.18.89-1.8,2.34-1.61,3.81l5.75,46.01c.18,1.43,1.1,2.67,2.42,3.26l121.85,54.17Z"/>
  <path class="cls-2" d="M174.57,716.58c-2.64-1.18-5.55.98-5.19,3.85l5.12,40.95c.25,1.99,1.52,3.71,3.36,4.53l80.58,35.96-31.81,23.92c-1.41,1.06-2.15,2.8-1.93,4.56l5.44,43.51c.24,1.93,2.48,2.89,4.04,1.71l68.81-51.74c1.18-.89,1.8-2.34,1.61-3.81l-5.75-46.01c-.18-1.43-1.1-2.67-2.42-3.26l-121.85-54.17Z"/>
  <path class="cls-1" d="M438.94,877.27c2.64,1.18,5.55-.98,5.19-3.85l-5.12-40.95c-.25-1.99-1.52-3.71-3.36-4.53l-80.58-35.96,31.81-23.92c1.41-1.06,2.15-2.8,1.93-4.56l-5.44-43.51c-.24-1.93-2.48-2.89-4.04-1.71l-68.81,51.74c-1.18.89-1.8,2.34-1.61,3.81l5.75,46.01c.18,1.43,1.1,2.67,2.42,3.26l121.85,54.17Z"/>
  <path class="cls-2" d="M406.32,715.12c-2.64-1.18-5.55.98-5.19,3.85l5.12,40.95c.25,1.99,1.52,3.71,3.36,4.53l80.58,35.96-31.81,23.92c-1.41,1.06-2.15,2.8-1.93,4.56l5.44,43.51c.24,1.93,2.48,2.89,4.04,1.71l68.81-51.74c1.18-.89,1.8-2.34,1.61-3.81l-5.75-46.01c-.18-1.43-1.1-2.67-2.42-3.26l-121.85-54.17Z"/>
  <path class="cls-1" d="M670.69,875.81c2.64,1.18,5.55-.98,5.19-3.85l-5.12-40.95c-.25-1.99-1.52-3.71-3.36-4.53l-80.58-35.96,31.81-23.92c1.41-1.06,2.15-2.8,1.93-4.56l-5.44-43.51c-.24-1.93-2.48-2.89-4.04-1.71l-68.81,51.74c-1.18.89-1.8,2.34-1.61,3.81l5.75,46.01c.18,1.43,1.1,2.67,2.42,3.26l121.85,54.17Z"/>
  <path class="cls-2" d="M638.22,714.83c-2.64-1.18-5.55.98-5.19,3.85l5.12,40.95c.25,1.99,1.52,3.71,3.36,4.53l80.58,35.96-31.81,23.92c-1.41,1.06-2.15,2.8-1.93,4.56l5.44,43.51c.24,1.93,2.48,2.89,4.04,1.71l68.81-51.74c1.18-.89,1.8-2.34,1.61-3.81l-5.75-46.01c-.18-1.43-1.1-2.67-2.42-3.26l-121.85-54.17Z"/>
  <path class="cls-1" d="M902.59,875.52c2.64,1.18,5.55-.98,5.19-3.85l-5.12-40.95c-.25-1.99-1.52-3.71-3.36-4.53l-80.58-35.96,31.81-23.92c1.41-1.06,2.15-2.8,1.93-4.56l-5.44-43.51c-.24-1.93-2.48-2.89-4.04-1.71l-68.81,51.74c-1.18.89-1.8,2.34-1.61,3.81l5.75,46.01c.18,1.43,1.1,2.67,2.42,3.26l121.85,54.17Z"/>
  <path class="cls-2" d="M869.97,713.37c-2.64-1.18-5.55.98-5.19,3.85l5.12,40.95c.25,1.99,1.52,3.71,3.36,4.53l80.58,35.96-31.81,23.92c-1.41,1.06-2.15,2.8-1.93,4.56l5.44,43.51c.24,1.93,2.48,2.89,4.04,1.71l68.81-51.74c1.18-.89,1.8-2.34,1.61-3.81l-5.75-46.01c-.18-1.43-1.1-2.67-2.42-3.26l-121.85-54.17Z"/>
  <path class="cls-1" d="M1134.34,874.06c2.64,1.18,5.55-.98,5.19-3.85l-5.12-40.95c-.25-1.99-1.52-3.71-3.36-4.53l-80.58-35.96,31.81-23.92c1.41-1.06,2.15-2.8,1.93-4.56l-5.44-43.51c-.24-1.93-2.48-2.89-4.04-1.71l-68.81,51.74c-1.18.89-1.8,2.34-1.61,3.81l5.75,46.01c.18,1.43,1.1,2.67,2.42,3.26l121.85,54.17Z"/>
  <path class="cls-2" d="M1101.87,713.08c-2.64-1.18-5.55.98-5.19,3.85l5.12,40.95c.25,1.99,1.52,3.71,3.36,4.53l80.58,35.96-31.81,23.92c-1.41,1.06-2.15,2.8-1.93,4.56l5.44,43.51c.24,1.93,2.48,2.89,4.04,1.71l68.81-51.74c1.18-.89,1.8-2.34,1.61-3.81l-5.75-46.01c-.18-1.43-1.1-2.67-2.42-3.26l-121.85-54.17Z"/>
  <path class="cls-1" d="M1366.24,873.77c2.64,1.18,5.55-.98,5.19-3.85l-5.12-40.95c-.25-1.99-1.52-3.71-3.36-4.53l-80.58-35.96,31.81-23.92c1.41-1.06,2.15-2.8,1.93-4.56l-5.44-43.51c-.24-1.93-2.48-2.89-4.04-1.71l-68.81,51.74c-1.18.89-1.8,2.34-1.61,3.81l5.75,46.01c.18,1.43,1.1,2.67,2.42,3.26l121.85,54.17Z"/>
  <path class="cls-2" d="M1333.62,711.62c-2.64-1.18-5.55.98-5.19,3.85l5.12,40.95c.25,1.99,1.52,3.71,3.36,4.53l80.58,35.96-31.81,23.92c-1.41,1.06-2.15,2.8-1.93,4.56l5.44,43.51c.24,1.93,2.48,2.89,4.04,1.71l68.81-51.74c1.18-.89,1.8-2.34,1.61-3.81l-5.75-46.01c-.18-1.43-1.1-2.67-2.42-3.26l-121.85-54.17Z"/>
  <path class="cls-1" d="M1597.99,872.31c2.64,1.18,5.55-.98,5.19-3.85l-5.12-40.95c-.25-1.99-1.52-3.71-3.36-4.53l-80.58-35.96,31.81-23.92c1.41-1.06,2.15-2.8,1.93-4.56l-5.44-43.51c-.24-1.93-2.48-2.89-4.04-1.71l-68.81,51.74c-1.18.89-1.8,2.34-1.61,3.81l5.75,46.01c.18,1.43,1.1,2.67,2.42,3.26l121.85,54.17Z"/>
  <path class="cls-2" d="M1565.52,711.33c-2.64-1.18-5.55.98-5.19,3.85l5.12,40.95c.25,1.99,1.52,3.71,3.36,4.53l80.58,35.96-31.81,23.92c-1.41,1.06-2.15,2.8-1.93,4.56l5.44,43.51c.24,1.93,2.48,2.89,4.04,1.71l68.81-51.74c1.18-.89,1.8-2.34,1.61-3.81l-5.75-46.01c-.18-1.43-1.1-2.67-2.42-3.26l-121.85-54.17Z"/>
  <path class="cls-1" d="M1829.89,872.02c2.64,1.18,5.55-.98,5.19-3.85l-5.12-40.95c-.25-1.99-1.52-3.71-3.36-4.53l-80.58-35.96,31.81-23.92c1.41-1.06,2.15-2.8,1.93-4.56l-5.44-43.51c-.24-1.93-2.48-2.89-4.04-1.71l-68.81,51.74c-1.18.89-1.8,2.34-1.61,3.81l5.75,46.01c.18,1.43,1.1,2.67,2.42,3.26l121.85,54.17Z"/>
  <path class="cls-2" d="M91.51,843.67c-2.64-1.18-5.55.98-5.19,3.85l5.12,40.95c.25,1.99,1.52,3.71,3.36,4.53l80.58,35.96-31.81,23.92c-1.41,1.06-2.15,2.8-1.93,4.56l5.44,43.51c.24,1.93,2.48,2.89,4.04,1.71l68.81-51.74c1.18-.89,1.8-2.34,1.61-3.81l-5.75-46.01c-.18-1.43-1.1-2.67-2.42-3.26l-121.85-54.17Z"/>
  <path class="cls-1" d="M355.88,1004.36c2.64,1.18,5.55-.98,5.19-3.85l-5.12-40.95c-.25-1.99-1.52-3.71-3.36-4.53l-80.58-35.96,31.81-23.92c1.41-1.06,2.15-2.8,1.93-4.56l-5.44-43.51c-.24-1.93-2.48-2.89-4.04-1.71l-68.81,51.74c-1.18.89-1.8,2.34-1.61,3.81l5.75,46.01c.18,1.43,1.1,2.67,2.42,3.26l121.85,54.17Z"/>
  <path class="cls-2" d="M323.4,843.37c-2.64-1.18-5.55.98-5.19,3.85l5.12,40.95c.25,1.99,1.52,3.71,3.36,4.53l80.58,35.96-31.81,23.92c-1.41,1.06-2.15,2.8-1.93,4.56l5.44,43.51c.24,1.93,2.48,2.89,4.04,1.71l68.81-51.74c1.18-.89,1.8-2.34,1.61-3.81l-5.75-46.01c-.18-1.43-1.1-2.67-2.42-3.26l-121.85-54.17Z"/>
  <path class="cls-1" d="M587.77,1004.07c2.64,1.18,5.55-.98,5.19-3.85l-5.12-40.95c-.25-1.99-1.52-3.71-3.36-4.53l-80.58-35.96,31.81-23.92c1.41-1.06,2.15-2.8,1.93-4.56l-5.44-43.51c-.24-1.93-2.48-2.89-4.04-1.71l-68.81,51.74c-1.18.89-1.8,2.34-1.61,3.81l5.75,46.01c.18,1.43,1.1,2.67,2.42,3.26l121.85,54.17Z"/>
  <path class="cls-2" d="M555.15,841.91c-2.64-1.18-5.55.98-5.19,3.85l5.12,40.95c.25,1.99,1.52,3.71,3.36,4.53l80.58,35.96-31.81,23.92c-1.41,1.06-2.15,2.8-1.93,4.56l5.44,43.51c.24,1.93,2.48,2.89,4.04,1.71l68.81-51.74c1.18-.89,1.8-2.34,1.61-3.81l-5.75-46.01c-.18-1.43-1.1-2.67-2.42-3.26l-121.85-54.17Z"/>
  <path class="cls-1" d="M819.52,1002.61c2.64,1.18,5.55-.98,5.19-3.85l-5.12-40.95c-.25-1.99-1.52-3.71-3.36-4.53l-80.58-35.96,31.81-23.92c1.41-1.06,2.15-2.8,1.93-4.56l-5.44-43.51c-.24-1.93-2.48-2.89-4.04-1.71l-68.81,51.74c-1.18.89-1.8,2.34-1.61,3.81l5.75,46.01c.18,1.43,1.1,2.67,2.42,3.26l121.85,54.17Z"/>
  <path class="cls-2" d="M787.05,841.62c-2.64-1.18-5.55.98-5.19,3.85l5.12,40.95c.25,1.99,1.52,3.71,3.36,4.53l80.58,35.96-31.81,23.92c-1.41,1.06-2.15,2.8-1.93,4.56l5.44,43.51c.24,1.93,2.48,2.89,4.04,1.71l68.81-51.74c1.18-.89,1.8-2.34,1.61-3.81l-5.75-46.01c-.18-1.43-1.1-2.67-2.42-3.26l-121.85-54.17Z"/>
  <path class="cls-1" d="M1051.42,1002.31c2.64,1.18,5.55-.98,5.19-3.85l-5.12-40.95c-.25-1.99-1.52-3.71-3.36-4.53l-80.58-35.96,31.81-23.92c1.41-1.06,2.15-2.8,1.93-4.56l-5.44-43.51c-.24-1.93-2.48-2.89-4.04-1.71l-68.81,51.74c-1.18.89-1.8,2.34-1.61,3.81l5.75,46.01c.18,1.43,1.1,2.67,2.42,3.26l121.85,54.17Z"/>
  <path class="cls-2" d="M1018.8,840.16c-2.64-1.18-5.55.98-5.19,3.85l5.12,40.95c.25,1.99,1.52,3.71,3.36,4.53l80.58,35.96-31.81,23.92c-1.41,1.06-2.15,2.8-1.93,4.56l5.44,43.51c.24,1.93,2.48,2.89,4.04,1.71l68.81-51.74c1.18-.89,1.8-2.34,1.61-3.81l-5.75-46.01c-.18-1.43-1.1-2.67-2.42-3.26l-121.85-54.17Z"/>
  <path class="cls-1" d="M1283.17,1000.85c2.64,1.18,5.55-.98,5.19-3.85l-5.12-40.95c-.25-1.99-1.52-3.71-3.36-4.53l-80.58-35.96,31.81-23.92c1.41-1.06,2.15-2.8,1.93-4.56l-5.44-43.51c-.24-1.93-2.48-2.89-4.04-1.71l-68.81,51.74c-1.18.89-1.8,2.34-1.61,3.81l5.75,46.01c.18,1.43,1.1,2.67,2.42,3.26l121.85,54.17Z"/>
  <path class="cls-2" d="M1250.7,839.87c-2.64-1.18-5.55.98-5.19,3.85l5.12,40.95c.25,1.99,1.52,3.71,3.36,4.53l80.58,35.96-31.81,23.92c-1.41,1.06-2.15,2.8-1.93,4.56l5.44,43.51c.24,1.93,2.48,2.89,4.04,1.71l68.81-51.74c1.18-.89,1.8-2.34,1.61-3.81l-5.75-46.01c-.18-1.43-1.1-2.67-2.42-3.26l-121.85-54.17Z"/>
  <path class="cls-1" d="M1515.07,1000.56c2.64,1.18,5.55-.98,5.19-3.85l-5.12-40.95c-.25-1.99-1.52-3.71-3.36-4.53l-80.58-35.96,31.81-23.92c1.41-1.06,2.15-2.8,1.93-4.56l-5.44-43.51c-.24-1.93-2.48-2.89-4.04-1.71l-68.81,51.74c-1.18.89-1.8,2.34-1.61,3.81l5.75,46.01c.18,1.43,1.1,2.67,2.42,3.26l121.85,54.17Z"/>
  <path class="cls-2" d="M1482.45,838.41c-2.64-1.18-5.55.98-5.19,3.85l5.12,40.95c.25,1.99,1.52,3.71,3.36,4.53l80.58,35.96-31.81,23.92c-1.41,1.06-2.15,2.8-1.93,4.56l5.44,43.51c.24,1.93,2.48,2.89,4.04,1.71l68.81-51.74c1.18-.89,1.8-2.34,1.61-3.81l-5.75-46.01c-.18-1.43-1.1-2.67-2.42-3.26l-121.85-54.17Z"/>
  <path class="cls-1" d="M1746.82,999.1c2.64,1.18,5.55-.98,5.19-3.85l-5.12-40.95c-.25-1.99-1.52-3.71-3.36-4.53l-80.58-35.96,31.81-23.92c1.41-1.06,2.15-2.8,1.93-4.56l-5.44-43.51c-.24-1.93-2.48-2.89-4.04-1.71l-68.81,51.74c-1.18.89-1.8,2.34-1.61,3.81l5.75,46.01c.18,1.43,1.1,2.67,2.42,3.26l121.85,54.17Z"/>
  <path class="cls-2" d="M1714.35,838.12c-2.64-1.18-5.55.98-5.19,3.85l5.12,40.95c.25,1.99,1.52,3.71,3.36,4.53l80.58,35.96-31.81,23.92c-1.41,1.06-2.15,2.8-1.93,4.56l5.44,43.51c.24,1.93,2.48,2.89,4.04,1.71l68.81-51.74c1.18-.89,1.8-2.34,1.61-3.81l-5.75-46.01c-.18-1.43-1.1-2.67-2.42-3.26l-121.85-54.17Z"/>
</svg>