<?xml version="1.0" encoding="UTF-8"?>
<svg id="Layer_1" data-name="Layer 1" xmlns="http://www.w3.org/2000/svg" xmlns:xlink="http://www.w3.org/1999/xlink" viewBox="0 0 1920 1080">
  <defs>
    <style>
      .cls-1, .cls-2, .cls-3, .cls-4 {
        fill: none;
      }

      .cls-2 {
        stroke: #0000f4;
        stroke-width: 2px;
      }

      .cls-2, .cls-3, .cls-4 {
        stroke-miterlimit: 10;
      }

      .cls-3 {
        opacity: .92;
      }

      .cls-3, .cls-4 {
        stroke: #01ff97;
      }

      .cls-5 {
        fill: #fff;
        opacity: .64;
      }

      .cls-4 {
        stroke-width: 3px;
      }

      .cls-6 {
        clip-path: url(#clippath);
      }
    </style>
    <clipPath id="clippath">
      <rect class="cls-1" x="2360" y="-420" width="1080" height="1920" transform="translate(2360 3440) rotate(-90)"/>
    </clipPath>
  </defs>
  <path class="cls-4" d="M405.01,271.28c-11.6-7.02-26.41,1.34-26.41,14.89v193.54c0,9.42,4.93,18.16,12.99,23.04l354.08,214.16-161.92,92.81c-7.2,4.13-11.64,11.79-11.64,20.09v205.64c0,9.14,9.88,14.87,17.82,10.32l350.27-200.77c6.01-3.45,9.73-9.85,9.73-16.78v-217.46c0-6.78-3.55-13.07-9.36-16.57L405.01,271.28Z"/>
  <path class="cls-2" d="M1381.16,837.7c11.6,7.02,26.41-1.34,26.41-14.89v-193.54c0-9.42-4.93-18.16-12.99-23.04l-354.08-214.16,161.92-92.81c7.2-4.13,11.64-11.79,11.64-20.09V73.53c0-9.14-9.88-14.87-17.82-10.32l-350.27,200.77c-6.01,3.45-9.73,9.85-9.73,16.78v217.46c0,6.78,3.55,13.07,9.36,16.57l535.56,322.92Z"/>
  <path class="cls-4" d="M464.65,26.31c-11.6-7.02-26.41,1.34-26.41,14.89v193.54c0,9.42,4.93,18.16,12.99,23.04l354.08,214.16-161.92,92.81c-7.2,4.13-11.64,11.79-11.64,20.09v205.64c0,9.14,9.88,14.87,17.82,10.32l350.27-200.77c6.01-3.45,9.73-9.85,9.73-16.78v-217.46c0-6.78-3.55-13.07-9.36-16.57L464.65,26.31Z"/>
  <path class="cls-4" d="M1533.17,897.46c11.6,7.02,26.41-1.34,26.41-14.89v-193.54c0-9.42-4.93-18.16-12.99-23.04l-354.08-214.16,161.92-92.81c7.2-4.13,11.64-11.79,11.64-20.09v-205.64c0-9.14-9.88-14.87-17.82-10.32l-350.27,200.77c-6.01,3.45-9.73,9.85-9.73,16.78v217.46c0,6.78,3.55,13.07,9.36,16.57l535.56,322.92Z"/>
  <path class="cls-2" d="M226.86,80.9c-11.6-7.02-26.41,1.34-26.41,14.89v193.54c0,9.42,4.93,18.16,12.99,23.04l354.08,214.16-161.92,92.81c-7.2,4.13-11.64,11.79-11.64,20.09v205.64c0,9.14,9.88,14.87,17.82,10.32l350.27-200.77c6.01-3.45,9.73-9.85,9.73-16.78v-217.46c0-6.78-3.55-13.07-9.36-16.57L226.86,80.9Z"/>
  <path class="cls-4" d="M1445.72,1013.36c11.6,7.02,26.41-1.34,26.41-14.89v-193.54c0-9.42-4.93-18.16-12.99-23.04l-354.08-214.16,161.92-92.81c7.2-4.13,11.64-11.79,11.64-20.09v-205.64c0-9.14-9.88-14.87-17.82-10.32l-350.27,200.77c-6.01,3.45-9.73,9.85-9.73,16.78v217.46c0,6.78,3.55,13.07,9.36,16.57l535.56,322.92Z"/>
  <path class="cls-2" d="M271.19,254.27c-11.6-7.02-26.41,1.34-26.41,14.89v193.54c0,9.42,4.93,18.16,12.99,23.04l354.08,214.16-161.92,92.81c-7.2,4.13-11.64,11.79-11.64,20.09v205.64c0,9.14,9.88,14.87,17.82,10.32l350.27-200.77c6.01-3.45,9.73-9.85,9.73-16.78v-217.46c0-6.78-3.55-13.07-9.36-16.57L271.19,254.27Z"/>
  <path class="cls-2" d="M1641.22,1044.83c11.6,7.02,26.41-1.34,26.41-14.89v-193.54c0-9.42-4.93-18.16-12.99-23.04l-354.08-214.16,161.92-92.81c7.2-4.13,11.64-11.79,11.64-20.09v-205.64c0-9.14-9.88-14.87-17.82-10.32l-350.27,200.77c-6.01,3.45-9.73,9.85-9.73,16.78v217.46c0,6.78,3.55,13.07,9.36,16.57l535.56,322.92Z"/>
  <g class="cls-6">
    <path class="cls-5" d="M1751.04,1022.73c-20.13,11.67-19.79,40.85.61,52.04l291.3,159.76c14.18,7.78,31.4,7.58,45.4-.53l614.62-356.15,6.03,320.31c.27,14.24,8.14,27.25,20.63,34.1l309.5,169.74c13.76,7.55,30.54-2.6,30.24-18.29l-13.04-692.92c-.22-11.9-6.8-22.77-17.23-28.49l-327.29-179.5c-10.2-5.6-22.59-5.44-32.66.41l-928.11,539.52Z"/>
    <path class="cls-3" d="M1930.42-26.12c-20.07-11.77-45.3,2.9-44.99,26.17l4.46,332.21c.22,16.17,8.87,31.06,22.83,39.24l612.69,359.45-275.79,163.02c-12.26,7.25-19.71,20.51-19.52,34.75l4.73,352.96c.21,15.69,17.31,25.3,30.82,17.31l596.6-352.67c10.24-6.06,16.47-17.13,16.31-29.03l-5.01-373.25c-.16-11.64-6.39-22.34-16.44-28.22L1930.42-26.12Z"/>
  </g>
</svg>