<?xml version="1.0" encoding="UTF-8"?>
<svg id="Layer_1" data-name="Layer 1" xmlns="http://www.w3.org/2000/svg" viewBox="0 0 1920 1080">
  <defs>
    <style>
      .cls-1 {
        fill: #0000f4;
      }

      .cls-2 {
        stroke: #01ff97;
      }

      .cls-2, .cls-3 {
        fill: none;
        stroke-miterlimit: 10;
      }

      .cls-4 {
        fill: #01ff97;
      }

      .cls-3 {
        stroke: #0000f4;
      }
    </style>
  </defs>
  <path class="cls-1" d="M210.08,176.79c-1.54-.93-3.51.18-3.51,1.98v25.73c0,1.25.65,2.41,1.73,3.06l47.07,28.47-21.53,12.34c-.96.55-1.55,1.57-1.55,2.67v27.34c0,1.22,1.31,1.98,2.37,1.37l46.56-26.69c.8-.46,1.29-1.31,1.29-2.23v-28.91c0-.9-.47-1.74-1.24-2.2l-71.2-42.93Z"/>
  <path class="cls-3" d="M259.78,392.36c-1.54-.93-3.51.18-3.51,1.98v25.73c0,1.25.65,2.41,1.73,3.06l47.07,28.47-21.53,12.34c-.96.55-1.55,1.57-1.55,2.67v27.34c0,1.22,1.31,1.98,2.37,1.37l46.56-26.69c.8-.46,1.29-1.31,1.29-2.23v-28.91c0-.9-.47-1.74-1.24-2.2l-71.2-42.93Z"/>
  <path class="cls-3" d="M317.3,81.53c-1.54-.93-3.51.18-3.51,1.98v25.73c0,1.25.65,2.41,1.73,3.06l47.07,28.47-21.53,12.34c-.96.55-1.55,1.57-1.55,2.67v27.34c0,1.22,1.31,1.98,2.37,1.37l46.56-26.69c.8-.46,1.29-1.31,1.29-2.23v-28.91c0-.9-.47-1.74-1.24-2.2l-71.2-42.93Z"/>
  <path class="cls-3" d="M39.9,305.81c-1.54-.93-3.51.18-3.51,1.98v25.73c0,1.25.65,2.41,1.73,3.06l47.07,28.47-21.53,12.34c-.96.55-1.55,1.57-1.55,2.67v27.34c0,1.22,1.31,1.98,2.37,1.37l46.56-26.69c.8-.46,1.29-1.31,1.29-2.23v-28.91c0-.9-.47-1.74-1.24-2.2l-71.2-42.93Z"/>
  <path class="cls-3" d="M343.46,478.01c-1.54-.93-3.51.18-3.51,1.98v25.73c0,1.25.65,2.41,1.73,3.06l47.07,28.47-21.53,12.34c-.96.55-1.55,1.57-1.55,2.67v27.34c0,1.22,1.31,1.98,2.37,1.37l46.56-26.69c.8-.46,1.29-1.31,1.29-2.23v-28.91c0-.9-.47-1.74-1.24-2.2l-71.2-42.93Z"/>
  <path class="cls-4" d="M361.21,296.63c1.54.93,3.51-.18,3.51-1.98v-25.73c0-1.25-.65-2.41-1.73-3.06l-47.07-28.47,21.53-12.34c.96-.55,1.55-1.57,1.55-2.67v-27.34c0-1.22-1.31-1.98-2.37-1.37l-46.56,26.69c-.8.46-1.29,1.31-1.29,2.23v28.91c0,.9.47,1.74,1.24,2.2l71.2,42.93Z"/>
  <path class="cls-4" d="M435.28,336.98c-1.54-.93-3.51.18-3.51,1.98v25.73c0,1.25.65,2.41,1.73,3.06l47.07,28.47-21.52,12.34c-.96.55-1.55,1.57-1.55,2.67v27.34c0,1.22,1.31,1.98,2.37,1.37l46.56-26.69c.8-.46,1.29-1.31,1.29-2.23v-28.91c0-.9-.47-1.74-1.24-2.2l-71.2-42.93Z"/>
  <path class="cls-4" d="M170.56,274.38c1.54.93,3.51-.18,3.51-1.98v-25.73c0-1.25-.65-2.41-1.73-3.06l-47.07-28.47,21.53-12.34c.96-.55,1.55-1.57,1.55-2.67v-27.34c0-1.22-1.31-1.98-2.37-1.37l-46.56,26.69c-.8.46-1.29,1.31-1.29,2.23v28.91c0,.9.47,1.74,1.24,2.2l71.2,42.93Z"/>
  <path class="cls-3" d="M95.38,237.05c-1.54-.93-3.51.18-3.51,1.98v25.73c0,1.25.65,2.41,1.73,3.06l47.07,28.47-21.53,12.34c-.96.55-1.55,1.57-1.55,2.67v27.34c0,1.22,1.31,1.98,2.37,1.37l46.56-26.69c.8-.46,1.29-1.31,1.29-2.23v-28.91c0-.9-.47-1.74-1.24-2.2l-71.2-42.93Z"/>
  <path class="cls-3" d="M542.18,326.14c1.54.93,3.51-.18,3.51-1.98v-25.73c0-1.25-.65-2.41-1.73-3.06l-47.07-28.47,21.53-12.34c.96-.55,1.55-1.57,1.55-2.67v-27.34c0-1.22-1.31-1.98-2.37-1.37l-46.56,26.69c-.8.46-1.29,1.31-1.29,2.23v28.91c0,.9.47,1.74,1.24,2.2l71.2,42.93Z"/>
  <path class="cls-2" d="M246.51,356.89c1.54.93,3.51-.18,3.51-1.98v-25.73c0-1.25-.65-2.41-1.73-3.06l-47.07-28.47,21.53-12.34c.96-.55,1.55-1.57,1.55-2.67v-27.34c0-1.22-1.31-1.98-2.37-1.37l-46.56,26.69c-.8.46-1.29,1.31-1.29,2.23v28.91c0,.9.47,1.74,1.24,2.2l71.2,42.93Z"/>
  <path class="cls-2" d="M412.39,511.34c1.54.93,3.51-.18,3.51-1.98v-25.73c0-1.25-.65-2.41-1.73-3.06l-47.07-28.47,21.53-12.34c.96-.55,1.55-1.57,1.55-2.67v-27.34c0-1.22-1.31-1.98-2.37-1.37l-46.56,26.69c-.8.46-1.29,1.31-1.29,2.23v28.91c0,.9.47,1.74,1.24,2.2l71.2,42.93Z"/>
  <path class="cls-1" d="M387.09,401.88c1.54.93,3.51-.18,3.51-1.98v-25.73c0-1.25-.65-2.41-1.73-3.06l-47.07-28.47,21.53-12.34c.96-.55,1.55-1.57,1.55-2.67v-27.34c0-1.22-1.31-1.98-2.37-1.37l-46.56,26.69c-.8.46-1.29,1.31-1.29,2.23v28.91c0,.9.47,1.74,1.24,2.2l71.2,42.93Z"/>
  <path class="cls-1" d="M135.37,491.57c1.54.93,3.51-.18,3.51-1.98v-25.73c0-1.25-.65-2.41-1.73-3.06l-47.07-28.47,21.53-12.34c.96-.55,1.55-1.57,1.55-2.67v-27.34c0-1.22-1.31-1.98-2.37-1.37l-46.56,26.69c-.8.46-1.29,1.31-1.29,2.23v28.91c0,.9.47,1.74,1.24,2.2l71.2,42.93Z"/>
  <path class="cls-1" d="M87.41,228.62c1.54.93,3.51-.18,3.51-1.98v-25.73c0-1.25-.65-2.41-1.73-3.06l-47.07-28.47,21.53-12.34c.96-.55,1.55-1.57,1.55-2.67v-27.34c0-1.22-1.31-1.98-2.37-1.37l-46.56,26.69c-.8.46-1.29,1.31-1.29,2.23v28.91c0,.9.47,1.74,1.24,2.2l71.2,42.93Z"/>
  <path class="cls-1" d="M191,422.74c1.54.93,3.51-.18,3.51-1.98v-25.73c0-1.25-.65-2.41-1.73-3.06l-47.07-28.47,21.53-12.34c.96-.55,1.55-1.57,1.55-2.67v-27.34c0-1.22-1.31-1.98-2.37-1.37l-46.56,26.69c-.8.46-1.29,1.31-1.29,2.23v28.91c0,.9.47,1.74,1.24,2.2l71.2,42.93Z"/>
  <path class="cls-4" d="M177.58,319.91c-1.54-.93-3.51.18-3.51,1.98v25.73c0,1.25.65,2.41,1.73,3.06l47.07,28.47-21.53,12.34c-.96.55-1.55,1.57-1.55,2.67v27.34c0,1.22,1.31,1.98,2.37,1.37l46.56-26.69c.8-.46,1.29-1.31,1.29-2.23v-28.91c0-.9-.47-1.74-1.24-2.2l-71.2-42.93Z"/>
  <path class="cls-4" d="M121.63,387.5c-1.54-.93-3.51.18-3.51,1.98v25.73c0,1.25.65,2.41,1.73,3.06l47.07,28.47-21.53,12.34c-.96.55-1.55,1.57-1.55,2.67v27.34c0,1.22,1.31,1.98,2.37,1.37l46.56-26.69c.8-.46,1.29-1.31,1.29-2.23v-28.91c0-.9-.47-1.74-1.24-2.2l-71.2-42.93Z"/>
  <path class="cls-2" d="M39.9,440.49c-1.54-.93-3.51.18-3.51,1.98v25.73c0,1.25.65,2.41,1.73,3.06l47.07,28.47-21.53,12.34c-.96.55-1.55,1.57-1.55,2.67v27.34c0,1.22,1.31,1.98,2.37,1.37l46.56-26.69c.8-.46,1.29-1.31,1.29-2.23v-28.91c0-.9-.47-1.74-1.24-2.2l-71.2-42.93Z"/>
  <path class="cls-2" d="M108.82,339.89c1.54.93,3.51-.18,3.51-1.98v-25.73c0-1.25-.65-2.41-1.73-3.06l-47.07-28.47,21.53-12.34c.96-.55,1.55-1.57,1.55-2.67v-27.34c0-1.22-1.31-1.98-2.37-1.37l-46.56,26.69c-.8.46-1.29,1.31-1.29,2.23v28.91c0,.9.47,1.74,1.24,2.2l71.2,42.93Z"/>
  <path class="cls-2" d="M467.94,200.63c1.54.93,3.51-.18,3.51-1.98v-25.73c0-1.25-.65-2.41-1.73-3.06l-47.07-28.47,21.53-12.34c.96-.55,1.55-1.57,1.55-2.67v-27.34c0-1.22-1.31-1.98-2.37-1.37l-46.56,26.69c-.8.46-1.29,1.31-1.29,2.23v28.91c0,.9.47,1.74,1.24,2.2l71.2,42.93Z"/>
  <path class="cls-1" d="M732.54,176.79c-1.54-.93-3.51.18-3.51,1.98v25.73c0,1.25.65,2.41,1.73,3.06l47.07,28.47-21.53,12.34c-.96.55-1.55,1.57-1.55,2.67v27.34c0,1.22,1.31,1.98,2.37,1.37l46.56-26.69c.8-.46,1.29-1.31,1.29-2.23v-28.91c0-.9-.47-1.74-1.24-2.2l-71.2-42.93Z"/>
  <path class="cls-3" d="M782.24,392.36c-1.54-.93-3.51.18-3.51,1.98v25.73c0,1.25.65,2.41,1.73,3.06l47.07,28.47-21.53,12.34c-.96.55-1.55,1.57-1.55,2.67v27.34c0,1.22,1.31,1.98,2.37,1.37l46.56-26.69c.8-.46,1.29-1.31,1.29-2.23v-28.91c0-.9-.47-1.74-1.24-2.2l-71.2-42.93Z"/>
  <path class="cls-3" d="M839.77,81.53c-1.54-.93-3.51.18-3.51,1.98v25.73c0,1.25.65,2.41,1.73,3.06l47.07,28.47-21.53,12.34c-.96.55-1.55,1.57-1.55,2.67v27.34c0,1.22,1.31,1.98,2.37,1.37l46.56-26.69c.8-.46,1.29-1.31,1.29-2.23v-28.91c0-.9-.47-1.74-1.24-2.2l-71.2-42.93Z"/>
  <path class="cls-3" d="M562.36,305.81c-1.54-.93-3.51.18-3.51,1.98v25.73c0,1.25.65,2.41,1.73,3.06l47.07,28.47-21.53,12.34c-.96.55-1.55,1.57-1.55,2.67v27.34c0,1.22,1.31,1.98,2.37,1.37l46.56-26.69c.8-.46,1.29-1.31,1.29-2.23v-28.91c0-.9-.47-1.74-1.24-2.2l-71.2-42.93Z"/>
  <path class="cls-3" d="M865.92,478.01c-1.54-.93-3.51.18-3.51,1.98v25.73c0,1.25.65,2.41,1.73,3.06l47.07,28.47-21.53,12.34c-.96.55-1.55,1.57-1.55,2.67v27.34c0,1.22,1.31,1.98,2.37,1.37l46.56-26.69c.8-.46,1.29-1.31,1.29-2.23v-28.91c0-.9-.47-1.74-1.24-2.2l-71.2-42.93Z"/>
  <path class="cls-4" d="M883.67,296.63c1.54.93,3.51-.18,3.51-1.98v-25.73c0-1.25-.65-2.41-1.73-3.06l-47.07-28.47,21.53-12.34c.96-.55,1.55-1.57,1.55-2.67v-27.34c0-1.22-1.31-1.98-2.37-1.37l-46.56,26.69c-.8.46-1.29,1.31-1.29,2.23v28.91c0,.9.47,1.74,1.24,2.2l71.2,42.93Z"/>
  <path class="cls-4" d="M957.75,336.98c-1.54-.93-3.51.18-3.51,1.98v25.73c0,1.25.65,2.41,1.73,3.06l47.07,28.47-21.52,12.34c-.96.55-1.55,1.57-1.55,2.67v27.34c0,1.22,1.31,1.98,2.37,1.37l46.56-26.69c.8-.46,1.29-1.31,1.29-2.23v-28.91c0-.9-.47-1.74-1.24-2.2l-71.2-42.93Z"/>
  <path class="cls-4" d="M693.02,274.38c1.54.93,3.51-.18,3.51-1.98v-25.73c0-1.25-.65-2.41-1.73-3.06l-47.07-28.47,21.53-12.34c.96-.55,1.55-1.57,1.55-2.67v-27.34c0-1.22-1.31-1.98-2.37-1.37l-46.56,26.69c-.8.46-1.29,1.31-1.29,2.23v28.91c0,.9.47,1.74,1.24,2.2l71.2,42.93Z"/>
  <path class="cls-3" d="M617.84,237.05c-1.54-.93-3.51.18-3.51,1.98v25.73c0,1.25.65,2.41,1.73,3.06l47.07,28.47-21.53,12.34c-.96.55-1.55,1.57-1.55,2.67v27.34c0,1.22,1.31,1.98,2.37,1.37l46.56-26.69c.8-.46,1.29-1.31,1.29-2.23v-28.91c0-.9-.47-1.74-1.24-2.2l-71.2-42.93Z"/>
  <path class="cls-3" d="M1064.65,326.14c1.54.93,3.51-.18,3.51-1.98v-25.73c0-1.25-.65-2.41-1.73-3.06l-47.07-28.47,21.53-12.34c.96-.55,1.55-1.57,1.55-2.67v-27.34c0-1.22-1.31-1.98-2.37-1.37l-46.56,26.69c-.8.46-1.29,1.31-1.29,2.23v28.91c0,.9.47,1.74,1.24,2.2l71.2,42.93Z"/>
  <path class="cls-2" d="M768.97,356.89c1.54.93,3.51-.18,3.51-1.98v-25.73c0-1.25-.65-2.41-1.73-3.06l-47.07-28.47,21.53-12.34c.96-.55,1.55-1.57,1.55-2.67v-27.34c0-1.22-1.31-1.98-2.37-1.37l-46.56,26.69c-.8.46-1.29,1.31-1.29,2.23v28.91c0,.9.47,1.74,1.24,2.2l71.2,42.93Z"/>
  <path class="cls-2" d="M934.85,511.34c1.54.93,3.51-.18,3.51-1.98v-25.73c0-1.25-.65-2.41-1.73-3.06l-47.07-28.47,21.53-12.34c.96-.55,1.55-1.57,1.55-2.67v-27.34c0-1.22-1.31-1.98-2.37-1.37l-46.56,26.69c-.8.46-1.29,1.31-1.29,2.23v28.91c0,.9.47,1.74,1.24,2.2l71.2,42.93Z"/>
  <path class="cls-1" d="M909.56,401.88c1.54.93,3.51-.18,3.51-1.98v-25.73c0-1.25-.65-2.41-1.73-3.06l-47.07-28.47,21.53-12.34c.96-.55,1.55-1.57,1.55-2.67v-27.34c0-1.22-1.31-1.98-2.37-1.37l-46.56,26.69c-.8.46-1.29,1.31-1.29,2.23v28.91c0,.9.47,1.74,1.24,2.2l71.2,42.93Z"/>
  <path class="cls-1" d="M657.84,491.57c1.54.93,3.51-.18,3.51-1.98v-25.73c0-1.25-.65-2.41-1.73-3.06l-47.07-28.47,21.53-12.34c.96-.55,1.55-1.57,1.55-2.67v-27.34c0-1.22-1.31-1.98-2.37-1.37l-46.56,26.69c-.8.46-1.29,1.31-1.29,2.23v28.91c0,.9.47,1.74,1.24,2.2l71.2,42.93Z"/>
  <path class="cls-1" d="M609.88,228.62c1.54.93,3.51-.18,3.51-1.98v-25.73c0-1.25-.65-2.41-1.73-3.06l-47.07-28.47,21.53-12.34c.96-.55,1.55-1.57,1.55-2.67v-27.34c0-1.22-1.31-1.98-2.37-1.37l-46.56,26.69c-.8.46-1.29,1.31-1.29,2.23v28.91c0,.9.47,1.74,1.24,2.2l71.2,42.93Z"/>
  <path class="cls-1" d="M819.76,572.1c1.54.93,3.51-.18,3.51-1.98v-25.73c0-1.25-.65-2.41-1.73-3.06l-47.07-28.47,21.53-12.34c.96-.55,1.55-1.57,1.55-2.67v-27.34c0-1.22-1.31-1.98-2.37-1.37l-46.56,26.69c-.8.46-1.29,1.31-1.29,2.23v28.91c0,.9.47,1.74,1.24,2.2l71.2,42.93Z"/>
  <path class="cls-4" d="M700.04,319.91c-1.54-.93-3.51.18-3.51,1.98v25.73c0,1.25.65,2.41,1.73,3.06l47.07,28.47-21.53,12.34c-.96.55-1.55,1.57-1.55,2.67v27.34c0,1.22,1.31,1.98,2.37,1.37l46.56-26.69c.8-.46,1.29-1.31,1.29-2.23v-28.91c0-.9-.47-1.74-1.24-2.2l-71.2-42.93Z"/>
  <path class="cls-4" d="M644.1,387.5c-1.54-.93-3.51.18-3.51,1.98v25.73c0,1.25.65,2.41,1.73,3.06l47.07,28.47-21.53,12.34c-.96.55-1.55,1.57-1.55,2.67v27.34c0,1.22,1.31,1.98,2.37,1.37l46.56-26.69c.8-.46,1.29-1.31,1.29-2.23v-28.91c0-.9-.47-1.74-1.24-2.2l-71.2-42.93Z"/>
  <path class="cls-2" d="M562.36,440.49c-1.54-.93-3.51.18-3.51,1.98v25.73c0,1.25.65,2.41,1.73,3.06l47.07,28.47-21.53,12.34c-.96.55-1.55,1.57-1.55,2.67v27.34c0,1.22,1.31,1.98,2.37,1.37l46.56-26.69c.8-.46,1.29-1.31,1.29-2.23v-28.91c0-.9-.47-1.74-1.24-2.2l-71.2-42.93Z"/>
  <path class="cls-2" d="M631.29,339.89c1.54.93,3.51-.18,3.51-1.98v-25.73c0-1.25-.65-2.41-1.73-3.06l-47.07-28.47,21.53-12.34c.96-.55,1.55-1.57,1.55-2.67v-27.34c0-1.22-1.31-1.98-2.37-1.37l-46.56,26.69c-.8.46-1.29,1.31-1.29,2.23v28.91c0,.9.47,1.74,1.24,2.2l71.2,42.93Z"/>
  <path class="cls-2" d="M990.4,200.63c1.54.93,3.51-.18,3.51-1.98v-25.73c0-1.25-.65-2.41-1.73-3.06l-47.07-28.47,21.53-12.34c.96-.55,1.55-1.57,1.55-2.67v-27.34c0-1.22-1.31-1.98-2.37-1.37l-46.56,26.69c-.8.46-1.29,1.31-1.29,2.23v28.91c0,.9.47,1.74,1.24,2.2l71.2,42.93Z"/>
  <path class="cls-1" d="M328.86,591.13c-1.54-.93-3.51.18-3.51,1.98v25.73c0,1.25.65,2.41,1.73,3.06l47.07,28.47-21.53,12.34c-.96.55-1.55,1.57-1.55,2.67v27.34c0,1.22,1.31,1.98,2.37,1.37l46.56-26.69c.8-.46,1.29-1.31,1.29-2.23v-28.91c0-.9-.47-1.74-1.24-2.2l-71.2-42.93Z"/>
  <path class="cls-3" d="M378.56,806.69c-1.54-.93-3.51.18-3.51,1.98v25.73c0,1.25.65,2.41,1.73,3.06l47.07,28.47-21.53,12.34c-.96.55-1.55,1.57-1.55,2.67v27.34c0,1.22,1.31,1.98,2.37,1.37l46.56-26.69c.8-.46,1.29-1.31,1.29-2.23v-28.91c0-.9-.47-1.74-1.24-2.2l-71.2-42.93Z"/>
  <path class="cls-3" d="M436.08,495.86c-1.54-.93-3.51.18-3.51,1.98v25.73c0,1.25.65,2.41,1.73,3.06l47.07,28.47-21.53,12.34c-.96.55-1.55,1.57-1.55,2.67v27.34c0,1.22,1.31,1.98,2.37,1.37l46.56-26.69c.8-.46,1.29-1.31,1.29-2.23v-28.91c0-.9-.47-1.74-1.24-2.2l-71.2-42.93Z"/>
  <path class="cls-3" d="M158.68,720.15c-1.54-.93-3.51.18-3.51,1.98v25.73c0,1.25.65,2.41,1.73,3.06l47.07,28.47-21.53,12.34c-.96.55-1.55,1.57-1.55,2.67v27.34c0,1.22,1.31,1.98,2.37,1.37l46.56-26.69c.8-.46,1.29-1.31,1.29-2.23v-28.91c0-.9-.47-1.74-1.24-2.2l-71.2-42.93Z"/>
  <path class="cls-3" d="M462.24,892.35c-1.54-.93-3.51.18-3.51,1.98v25.73c0,1.25.65,2.41,1.73,3.06l47.07,28.47-21.53,12.34c-.96.55-1.55,1.57-1.55,2.67v27.34c0,1.22,1.31,1.98,2.37,1.37l46.56-26.69c.8-.46,1.29-1.31,1.29-2.23v-28.91c0-.9-.47-1.74-1.24-2.2l-71.2-42.93Z"/>
  <path class="cls-4" d="M479.99,710.97c1.54.93,3.51-.18,3.51-1.98v-25.73c0-1.25-.65-2.41-1.73-3.06l-47.07-28.47,21.53-12.34c.96-.55,1.55-1.57,1.55-2.67v-27.34c0-1.22-1.31-1.98-2.37-1.37l-46.56,26.69c-.8.46-1.29,1.31-1.29,2.23v28.91c0,.9.47,1.74,1.24,2.2l71.2,42.93Z"/>
  <path class="cls-4" d="M554.06,751.32c-1.54-.93-3.51.18-3.51,1.98v25.73c0,1.25.65,2.41,1.73,3.06l47.07,28.47-21.52,12.34c-.96.55-1.55,1.57-1.55,2.67v27.34c0,1.22,1.31,1.98,2.37,1.37l46.56-26.69c.8-.46,1.29-1.31,1.29-2.23v-28.91c0-.9-.47-1.74-1.24-2.2l-71.2-42.93Z"/>
  <path class="cls-4" d="M289.34,688.72c1.54.93,3.51-.18,3.51-1.98v-25.73c0-1.25-.65-2.41-1.73-3.06l-47.07-28.47,21.53-12.34c.96-.55,1.55-1.57,1.55-2.67v-27.34c0-1.22-1.31-1.98-2.37-1.37l-46.56,26.69c-.8.46-1.29,1.31-1.29,2.23v28.91c0,.9.47,1.74,1.24,2.2l71.2,42.93Z"/>
  <path class="cls-3" d="M214.16,651.39c-1.54-.93-3.51.18-3.51,1.98v25.73c0,1.25.65,2.41,1.73,3.06l47.07,28.47-21.53,12.34c-.96.55-1.55,1.57-1.55,2.67v27.34c0,1.22,1.31,1.98,2.37,1.37l46.56-26.69c.8-.46,1.29-1.31,1.29-2.23v-28.91c0-.9-.47-1.74-1.24-2.2l-71.2-42.93Z"/>
  <path class="cls-3" d="M660.97,740.47c1.54.93,3.51-.18,3.51-1.98v-25.73c0-1.25-.65-2.41-1.73-3.06l-47.07-28.47,21.53-12.34c.96-.55,1.55-1.57,1.55-2.67v-27.34c0-1.22-1.31-1.98-2.37-1.37l-46.56,26.69c-.8.46-1.29,1.31-1.29,2.23v28.91c0,.9.47,1.74,1.24,2.2l71.2,42.93Z"/>
  <path class="cls-2" d="M365.29,771.23c1.54.93,3.51-.18,3.51-1.98v-25.73c0-1.25-.65-2.41-1.73-3.06l-47.07-28.47,21.53-12.34c.96-.55,1.55-1.57,1.55-2.67v-27.34c0-1.22-1.31-1.98-2.37-1.37l-46.56,26.69c-.8.46-1.29,1.31-1.29,2.23v28.91c0,.9.47,1.74,1.24,2.2l71.2,42.93Z"/>
  <path class="cls-2" d="M531.17,925.67c1.54.93,3.51-.18,3.51-1.98v-25.73c0-1.25-.65-2.41-1.73-3.06l-47.07-28.47,21.53-12.34c.96-.55,1.55-1.57,1.55-2.67v-27.34c0-1.22-1.31-1.98-2.37-1.37l-46.56,26.69c-.8.46-1.29,1.31-1.29,2.23v28.91c0,.9.47,1.74,1.24,2.2l71.2,42.93Z"/>
  <path class="cls-1" d="M505.87,816.22c1.54.93,3.51-.18,3.51-1.98v-25.73c0-1.25-.65-2.41-1.73-3.06l-47.07-28.47,21.53-12.34c.96-.55,1.55-1.57,1.55-2.67v-27.34c0-1.22-1.31-1.98-2.37-1.37l-46.56,26.69c-.8.46-1.29,1.31-1.29,2.23v28.91c0,.9.47,1.74,1.24,2.2l71.2,42.93Z"/>
  <path class="cls-1" d="M254.15,905.9c1.54.93,3.51-.18,3.51-1.98v-25.73c0-1.25-.65-2.41-1.73-3.06l-47.07-28.47,21.53-12.34c.96-.55,1.55-1.57,1.55-2.67v-27.34c0-1.22-1.31-1.98-2.37-1.37l-46.56,26.69c-.8.46-1.29,1.31-1.29,2.23v28.91c0,.9.47,1.74,1.24,2.2l71.2,42.93Z"/>
  <path class="cls-1" d="M206.19,642.96c1.54.93,3.51-.18,3.51-1.98v-25.73c0-1.25-.65-2.41-1.73-3.06l-47.07-28.47,21.53-12.34c.96-.55,1.55-1.57,1.55-2.67v-27.34c0-1.22-1.31-1.98-2.37-1.37l-46.56,26.69c-.8.46-1.29,1.31-1.29,2.23v28.91c0,.9.47,1.74,1.24,2.2l71.2,42.93Z"/>
  <path class="cls-1" d="M309.78,837.08c1.54.93,3.51-.18,3.51-1.98v-25.73c0-1.25-.65-2.41-1.73-3.06l-47.07-28.47,21.53-12.34c.96-.55,1.55-1.57,1.55-2.67v-27.34c0-1.22-1.31-1.98-2.37-1.37l-46.56,26.69c-.8.46-1.29,1.31-1.29,2.23v28.91c0,.9.47,1.74,1.24,2.2l71.2,42.93Z"/>
  <path class="cls-4" d="M296.36,734.24c-1.54-.93-3.51.18-3.51,1.98v25.73c0,1.25.65,2.41,1.73,3.06l47.07,28.47-21.53,12.34c-.96.55-1.55,1.57-1.55,2.67v27.34c0,1.22,1.31,1.98,2.37,1.37l46.56-26.69c.8-.46,1.29-1.31,1.29-2.23v-28.91c0-.9-.47-1.74-1.24-2.2l-71.2-42.93Z"/>
  <path class="cls-4" d="M240.41,801.84c-1.54-.93-3.51.18-3.51,1.98v25.73c0,1.25.65,2.41,1.73,3.06l47.07,28.47-21.53,12.34c-.96.55-1.55,1.57-1.55,2.67v27.34c0,1.22,1.31,1.98,2.37,1.37l46.56-26.69c.8-.46,1.29-1.31,1.29-2.23v-28.91c0-.9-.47-1.74-1.24-2.2l-71.2-42.93Z"/>
  <path class="cls-2" d="M158.68,854.82c-1.54-.93-3.51.18-3.51,1.98v25.73c0,1.25.65,2.41,1.73,3.06l47.07,28.47-21.53,12.34c-.96.55-1.55,1.57-1.55,2.67v27.34c0,1.22,1.31,1.98,2.37,1.37l46.56-26.69c.8-.46,1.29-1.31,1.29-2.23v-28.91c0-.9-.47-1.74-1.24-2.2l-71.2-42.93Z"/>
  <path class="cls-2" d="M227.61,754.22c1.54.93,3.51-.18,3.51-1.98v-25.73c0-1.25-.65-2.41-1.73-3.06l-47.07-28.47,21.53-12.34c.96-.55,1.55-1.57,1.55-2.67v-27.34c0-1.22-1.31-1.98-2.37-1.37l-46.56,26.69c-.8.46-1.29,1.31-1.29,2.23v28.91c0,.9.47,1.74,1.24,2.2l71.2,42.93Z"/>
  <path class="cls-2" d="M586.72,614.96c1.54.93,3.51-.18,3.51-1.98v-25.73c0-1.25-.65-2.41-1.73-3.06l-47.07-28.47,21.53-12.34c.96-.55,1.55-1.57,1.55-2.67v-27.34c0-1.22-1.31-1.98-2.37-1.37l-46.56,26.69c-.8.46-1.29,1.31-1.29,2.23v28.91c0,.9.47,1.74,1.24,2.2l71.2,42.93Z"/>
  <path class="cls-1" d="M851.33,591.13c-1.54-.93-3.51.18-3.51,1.98v25.73c0,1.25.65,2.41,1.73,3.06l47.07,28.47-21.53,12.34c-.96.55-1.55,1.57-1.55,2.67v27.34c0,1.22,1.31,1.98,2.37,1.37l46.56-26.69c.8-.46,1.29-1.31,1.29-2.23v-28.91c0-.9-.47-1.74-1.24-2.2l-71.2-42.93Z"/>
  <path class="cls-3" d="M901.03,806.69c-1.54-.93-3.51.18-3.51,1.98v25.73c0,1.25.65,2.41,1.73,3.06l47.07,28.47-21.53,12.34c-.96.55-1.55,1.57-1.55,2.67v27.34c0,1.22,1.31,1.98,2.37,1.37l46.56-26.69c.8-.46,1.29-1.31,1.29-2.23v-28.91c0-.9-.47-1.74-1.24-2.2l-71.2-42.93Z"/>
  <path class="cls-3" d="M958.55,495.86c-1.54-.93-3.51.18-3.51,1.98v25.73c0,1.25.65,2.41,1.73,3.06l47.07,28.47-21.53,12.34c-.96.55-1.55,1.57-1.55,2.67v27.34c0,1.22,1.31,1.98,2.37,1.37l46.56-26.69c.8-.46,1.29-1.31,1.29-2.23v-28.91c0-.9-.47-1.74-1.24-2.2l-71.2-42.93Z"/>
  <path class="cls-3" d="M681.15,720.15c-1.54-.93-3.51.18-3.51,1.98v25.73c0,1.25.65,2.41,1.73,3.06l47.07,28.47-21.53,12.34c-.96.55-1.55,1.57-1.55,2.67v27.34c0,1.22,1.31,1.98,2.37,1.37l46.56-26.69c.8-.46,1.29-1.31,1.29-2.23v-28.91c0-.9-.47-1.74-1.24-2.2l-71.2-42.93Z"/>
  <path class="cls-3" d="M984.71,892.35c-1.54-.93-3.51.18-3.51,1.98v25.73c0,1.25.65,2.41,1.73,3.06l47.07,28.47-21.53,12.34c-.96.55-1.55,1.57-1.55,2.67v27.34c0,1.22,1.31,1.98,2.37,1.37l46.56-26.69c.8-.46,1.29-1.31,1.29-2.23v-28.91c0-.9-.47-1.74-1.24-2.2l-71.2-42.93Z"/>
  <path class="cls-4" d="M1002.46,710.97c1.54.93,3.51-.18,3.51-1.98v-25.73c0-1.25-.65-2.41-1.73-3.06l-47.07-28.47,21.53-12.34c.96-.55,1.55-1.57,1.55-2.67v-27.34c0-1.22-1.31-1.98-2.37-1.37l-46.56,26.69c-.8.46-1.29,1.31-1.29,2.23v28.91c0,.9.47,1.74,1.24,2.2l71.2,42.93Z"/>
  <path class="cls-4" d="M1076.53,751.32c-1.54-.93-3.51.18-3.51,1.98v25.73c0,1.25.65,2.41,1.73,3.06l47.07,28.47-21.52,12.34c-.96.55-1.55,1.57-1.55,2.67v27.34c0,1.22,1.31,1.98,2.37,1.37l46.56-26.69c.8-.46,1.29-1.31,1.29-2.23v-28.91c0-.9-.47-1.74-1.24-2.2l-71.2-42.93Z"/>
  <path class="cls-4" d="M811.81,688.72c1.54.93,3.51-.18,3.51-1.98v-25.73c0-1.25-.65-2.41-1.73-3.06l-47.07-28.47,21.53-12.34c.96-.55,1.55-1.57,1.55-2.67v-27.34c0-1.22-1.31-1.98-2.37-1.37l-46.56,26.69c-.8.46-1.29,1.31-1.29,2.23v28.91c0,.9.47,1.74,1.24,2.2l71.2,42.93Z"/>
  <path class="cls-3" d="M736.63,651.39c-1.54-.93-3.51.18-3.51,1.98v25.73c0,1.25.65,2.41,1.73,3.06l47.07,28.47-21.53,12.34c-.96.55-1.55,1.57-1.55,2.67v27.34c0,1.22,1.31,1.98,2.37,1.37l46.56-26.69c.8-.46,1.29-1.31,1.29-2.23v-28.91c0-.9-.47-1.74-1.24-2.2l-71.2-42.93Z"/>
  <path class="cls-3" d="M1183.44,740.47c1.54.93,3.51-.18,3.51-1.98v-25.73c0-1.25-.65-2.41-1.73-3.06l-47.07-28.47,21.53-12.34c.96-.55,1.55-1.57,1.55-2.67v-27.34c0-1.22-1.31-1.98-2.37-1.37l-46.56,26.69c-.8.46-1.29,1.31-1.29,2.23v28.91c0,.9.47,1.74,1.24,2.2l71.2,42.93Z"/>
  <path class="cls-2" d="M887.76,771.23c1.54.93,3.51-.18,3.51-1.98v-25.73c0-1.25-.65-2.41-1.73-3.06l-47.07-28.47,21.53-12.34c.96-.55,1.55-1.57,1.55-2.67v-27.34c0-1.22-1.31-1.98-2.37-1.37l-46.56,26.69c-.8.46-1.29,1.31-1.29,2.23v28.91c0,.9.47,1.74,1.24,2.2l71.2,42.93Z"/>
  <path class="cls-2" d="M1053.64,925.67c1.54.93,3.51-.18,3.51-1.98v-25.73c0-1.25-.65-2.41-1.73-3.06l-47.07-28.47,21.53-12.34c.96-.55,1.55-1.57,1.55-2.67v-27.34c0-1.22-1.31-1.98-2.37-1.37l-46.56,26.69c-.8.46-1.29,1.31-1.29,2.23v28.91c0,.9.47,1.74,1.24,2.2l71.2,42.93Z"/>
  <path class="cls-1" d="M1028.34,816.22c1.54.93,3.51-.18,3.51-1.98v-25.73c0-1.25-.65-2.41-1.73-3.06l-47.07-28.47,21.53-12.34c.96-.55,1.55-1.57,1.55-2.67v-27.34c0-1.22-1.31-1.98-2.37-1.37l-46.56,26.69c-.8.46-1.29,1.31-1.29,2.23v28.91c0,.9.47,1.74,1.24,2.2l71.2,42.93Z"/>
  <path class="cls-1" d="M776.62,905.9c1.54.93,3.51-.18,3.51-1.98v-25.73c0-1.25-.65-2.41-1.73-3.06l-47.07-28.47,21.53-12.34c.96-.55,1.55-1.57,1.55-2.67v-27.34c0-1.22-1.31-1.98-2.37-1.37l-46.56,26.69c-.8.46-1.29,1.31-1.29,2.23v28.91c0,.9.47,1.74,1.24,2.2l71.2,42.93Z"/>
  <path class="cls-1" d="M728.66,642.96c1.54.93,3.51-.18,3.51-1.98v-25.73c0-1.25-.65-2.41-1.73-3.06l-47.07-28.47,21.53-12.34c.96-.55,1.55-1.57,1.55-2.67v-27.34c0-1.22-1.31-1.98-2.37-1.37l-46.56,26.69c-.8.46-1.29,1.31-1.29,2.23v28.91c0,.9.47,1.74,1.24,2.2l71.2,42.93Z"/>
  <path class="cls-1" d="M832.25,837.08c1.54.93,3.51-.18,3.51-1.98v-25.73c0-1.25-.65-2.41-1.73-3.06l-47.07-28.47,21.53-12.34c.96-.55,1.55-1.57,1.55-2.67v-27.34c0-1.22-1.31-1.98-2.37-1.37l-46.56,26.69c-.8.46-1.29,1.31-1.29,2.23v28.91c0,.9.47,1.74,1.24,2.2l71.2,42.93Z"/>
  <path class="cls-4" d="M818.83,734.24c-1.54-.93-3.51.18-3.51,1.98v25.73c0,1.25.65,2.41,1.73,3.06l47.07,28.47-21.53,12.34c-.96.55-1.55,1.57-1.55,2.67v27.34c0,1.22,1.31,1.98,2.37,1.37l46.56-26.69c.8-.46,1.29-1.31,1.29-2.23v-28.91c0-.9-.47-1.74-1.24-2.2l-71.2-42.93Z"/>
  <path class="cls-4" d="M762.88,801.84c-1.54-.93-3.51.18-3.51,1.98v25.73c0,1.25.65,2.41,1.73,3.06l47.07,28.47-21.53,12.34c-.96.55-1.55,1.57-1.55,2.67v27.34c0,1.22,1.31,1.98,2.37,1.37l46.56-26.69c.8-.46,1.29-1.31,1.29-2.23v-28.91c0-.9-.47-1.74-1.24-2.2l-71.2-42.93Z"/>
  <path class="cls-2" d="M681.15,854.82c-1.54-.93-3.51.18-3.51,1.98v25.73c0,1.25.65,2.41,1.73,3.06l47.07,28.47-21.53,12.34c-.96.55-1.55,1.57-1.55,2.67v27.34c0,1.22,1.31,1.98,2.37,1.37l46.56-26.69c.8-.46,1.29-1.31,1.29-2.23v-28.91c0-.9-.47-1.74-1.24-2.2l-71.2-42.93Z"/>
  <path class="cls-2" d="M750.08,754.22c1.54.93,3.51-.18,3.51-1.98v-25.73c0-1.25-.65-2.41-1.73-3.06l-47.07-28.47,21.53-12.34c.96-.55,1.55-1.57,1.55-2.67v-27.34c0-1.22-1.31-1.98-2.37-1.37l-46.56,26.69c-.8.46-1.29,1.31-1.29,2.23v28.91c0,.9.47,1.74,1.24,2.2l71.2,42.93Z"/>
  <path class="cls-2" d="M1109.19,614.96c1.54.93,3.51-.18,3.51-1.98v-25.73c0-1.25-.65-2.41-1.73-3.06l-47.07-28.47,21.53-12.34c.96-.55,1.55-1.57,1.55-2.67v-27.34c0-1.22-1.31-1.98-2.37-1.37l-46.56,26.69c-.8.46-1.29,1.31-1.29,2.23v28.91c0,.9.47,1.74,1.24,2.2l71.2,42.93Z"/>
  <path class="cls-1" d="M1279.34,176.79c-1.54-.93-3.51.18-3.51,1.98v25.73c0,1.25.65,2.41,1.73,3.06l47.07,28.47-21.53,12.34c-.96.55-1.55,1.57-1.55,2.67v27.34c0,1.22,1.31,1.98,2.37,1.37l46.56-26.69c.8-.46,1.29-1.31,1.29-2.23v-28.91c0-.9-.47-1.74-1.24-2.2l-71.2-42.93Z"/>
  <path class="cls-3" d="M1329.05,392.36c-1.54-.93-3.51.18-3.51,1.98v25.73c0,1.25.65,2.41,1.73,3.06l47.07,28.47-21.53,12.34c-.96.55-1.55,1.57-1.55,2.67v27.34c0,1.22,1.31,1.98,2.37,1.37l46.56-26.69c.8-.46,1.29-1.31,1.29-2.23v-28.91c0-.9-.47-1.74-1.24-2.2l-71.2-42.93Z"/>
  <path class="cls-3" d="M1386.57,81.53c-1.54-.93-3.51.18-3.51,1.98v25.73c0,1.25.65,2.41,1.73,3.06l47.07,28.47-21.53,12.34c-.96.55-1.55,1.57-1.55,2.67v27.34c0,1.22,1.31,1.98,2.37,1.37l46.56-26.69c.8-.46,1.29-1.31,1.29-2.23v-28.91c0-.9-.47-1.74-1.24-2.2l-71.2-42.93Z"/>
  <path class="cls-3" d="M1109.16,305.81c-1.54-.93-3.51.18-3.51,1.98v25.73c0,1.25.65,2.41,1.73,3.06l47.07,28.47-21.53,12.34c-.96.55-1.55,1.57-1.55,2.67v27.34c0,1.22,1.31,1.98,2.37,1.37l46.56-26.69c.8-.46,1.29-1.31,1.29-2.23v-28.91c0-.9-.47-1.74-1.24-2.2l-71.2-42.93Z"/>
  <path class="cls-3" d="M1412.72,478.01c-1.54-.93-3.51.18-3.51,1.98v25.73c0,1.25.65,2.41,1.73,3.06l47.07,28.47-21.53,12.34c-.96.55-1.55,1.57-1.55,2.67v27.34c0,1.22,1.31,1.98,2.37,1.37l46.56-26.69c.8-.46,1.29-1.31,1.29-2.23v-28.91c0-.9-.47-1.74-1.24-2.2l-71.2-42.93Z"/>
  <path class="cls-4" d="M1430.47,296.63c1.54.93,3.51-.18,3.51-1.98v-25.73c0-1.25-.65-2.41-1.73-3.06l-47.07-28.47,21.53-12.34c.96-.55,1.55-1.57,1.55-2.67v-27.34c0-1.22-1.31-1.98-2.37-1.37l-46.56,26.69c-.8.46-1.29,1.31-1.29,2.23v28.91c0,.9.47,1.74,1.24,2.2l71.2,42.93Z"/>
  <path class="cls-4" d="M1504.55,336.98c-1.54-.93-3.51.18-3.51,1.98v25.73c0,1.25.65,2.41,1.73,3.06l47.07,28.47-21.52,12.34c-.96.55-1.55,1.57-1.55,2.67v27.34c0,1.22,1.31,1.98,2.37,1.37l46.56-26.69c.8-.46,1.29-1.31,1.29-2.23v-28.91c0-.9-.47-1.74-1.24-2.2l-71.2-42.93Z"/>
  <path class="cls-4" d="M1239.82,274.38c1.54.93,3.51-.18,3.51-1.98v-25.73c0-1.25-.65-2.41-1.73-3.06l-47.07-28.47,21.53-12.34c.96-.55,1.55-1.57,1.55-2.67v-27.34c0-1.22-1.31-1.98-2.37-1.37l-46.56,26.69c-.8.46-1.29,1.31-1.29,2.23v28.91c0,.9.47,1.74,1.24,2.2l71.2,42.93Z"/>
  <path class="cls-3" d="M1164.65,237.05c-1.54-.93-3.51.18-3.51,1.98v25.73c0,1.25.65,2.41,1.73,3.06l47.07,28.47-21.53,12.34c-.96.55-1.55,1.57-1.55,2.67v27.34c0,1.22,1.31,1.98,2.37,1.37l46.56-26.69c.8-.46,1.29-1.31,1.29-2.23v-28.91c0-.9-.47-1.74-1.24-2.2l-71.2-42.93Z"/>
  <path class="cls-3" d="M1611.45,326.14c1.54.93,3.51-.18,3.51-1.98v-25.73c0-1.25-.65-2.41-1.73-3.06l-47.07-28.47,21.53-12.34c.96-.55,1.55-1.57,1.55-2.67v-27.34c0-1.22-1.31-1.98-2.37-1.37l-46.56,26.69c-.8.46-1.29,1.31-1.29,2.23v28.91c0,.9.47,1.74,1.24,2.2l71.2,42.93Z"/>
  <path class="cls-2" d="M1315.77,356.89c1.54.93,3.51-.18,3.51-1.98v-25.73c0-1.25-.65-2.41-1.73-3.06l-47.07-28.47,21.53-12.34c.96-.55,1.55-1.57,1.55-2.67v-27.34c0-1.22-1.31-1.98-2.37-1.37l-46.56,26.69c-.8.46-1.29,1.31-1.29,2.23v28.91c0,.9.47,1.74,1.24,2.2l71.2,42.93Z"/>
  <path class="cls-2" d="M1481.65,511.34c1.54.93,3.51-.18,3.51-1.98v-25.73c0-1.25-.65-2.41-1.73-3.06l-47.07-28.47,21.53-12.34c.96-.55,1.55-1.57,1.55-2.67v-27.34c0-1.22-1.31-1.98-2.37-1.37l-46.56,26.69c-.8.46-1.29,1.31-1.29,2.23v28.91c0,.9.47,1.74,1.24,2.2l71.2,42.93Z"/>
  <path class="cls-1" d="M1456.36,401.88c1.54.93,3.51-.18,3.51-1.98v-25.73c0-1.25-.65-2.41-1.73-3.06l-47.07-28.47,21.53-12.34c.96-.55,1.55-1.57,1.55-2.67v-27.34c0-1.22-1.31-1.98-2.37-1.37l-46.56,26.69c-.8.46-1.29,1.31-1.29,2.23v28.91c0,.9.47,1.74,1.24,2.2l71.2,42.93Z"/>
  <path class="cls-1" d="M1204.64,491.57c1.54.93,3.51-.18,3.51-1.98v-25.73c0-1.25-.65-2.41-1.73-3.06l-47.07-28.47,21.53-12.34c.96-.55,1.55-1.57,1.55-2.67v-27.34c0-1.22-1.31-1.98-2.37-1.37l-46.56,26.69c-.8.46-1.29,1.31-1.29,2.23v28.91c0,.9.47,1.74,1.24,2.2l71.2,42.93Z"/>
  <path class="cls-1" d="M1156.68,228.62c1.54.93,3.51-.18,3.51-1.98v-25.73c0-1.25-.65-2.41-1.73-3.06l-47.07-28.47,21.53-12.34c.96-.55,1.55-1.57,1.55-2.67v-27.34c0-1.22-1.31-1.98-2.37-1.37l-46.56,26.69c-.8.46-1.29,1.31-1.29,2.23v28.91c0,.9.47,1.74,1.24,2.2l71.2,42.93Z"/>
  <path class="cls-1" d="M1366.39,572.1c1.54.93,3.51-.18,3.51-1.98v-25.73c0-1.25-.65-2.41-1.73-3.06l-47.07-28.47,21.53-12.34c.96-.55,1.55-1.57,1.55-2.67v-27.34c0-1.22-1.31-1.98-2.37-1.37l-46.56,26.69c-.8.46-1.29,1.31-1.29,2.23v28.91c0,.9.47,1.74,1.24,2.2l71.2,42.93Z"/>
  <path class="cls-4" d="M1246.85,319.91c-1.54-.93-3.51.18-3.51,1.98v25.73c0,1.25.65,2.41,1.73,3.06l47.07,28.47-21.53,12.34c-.96.55-1.55,1.57-1.55,2.67v27.34c0,1.22,1.31,1.98,2.37,1.37l46.56-26.69c.8-.46,1.29-1.31,1.29-2.23v-28.91c0-.9-.47-1.74-1.24-2.2l-71.2-42.93Z"/>
  <path class="cls-4" d="M1190.9,387.5c-1.54-.93-3.51.18-3.51,1.98v25.73c0,1.25.65,2.41,1.73,3.06l47.07,28.47-21.53,12.34c-.96.55-1.55,1.57-1.55,2.67v27.34c0,1.22,1.31,1.98,2.37,1.37l46.56-26.69c.8-.46,1.29-1.31,1.29-2.23v-28.91c0-.9-.47-1.74-1.24-2.2l-71.2-42.93Z"/>
  <path class="cls-2" d="M1109.16,440.49c-1.54-.93-3.51.18-3.51,1.98v25.73c0,1.25.65,2.41,1.73,3.06l47.07,28.47-21.53,12.34c-.96.55-1.55,1.57-1.55,2.67v27.34c0,1.22,1.31,1.98,2.37,1.37l46.56-26.69c.8-.46,1.29-1.31,1.29-2.23v-28.91c0-.9-.47-1.74-1.24-2.2l-71.2-42.93Z"/>
  <path class="cls-2" d="M1178.09,339.89c1.54.93,3.51-.18,3.51-1.98v-25.73c0-1.25-.65-2.41-1.73-3.06l-47.07-28.47,21.53-12.34c.96-.55,1.55-1.57,1.55-2.67v-27.34c0-1.22-1.31-1.98-2.37-1.37l-46.56,26.69c-.8.46-1.29,1.31-1.29,2.23v28.91c0,.9.47,1.74,1.24,2.2l71.2,42.93Z"/>
  <path class="cls-2" d="M1537.2,200.63c1.54.93,3.51-.18,3.51-1.98v-25.73c0-1.25-.65-2.41-1.73-3.06l-47.07-28.47,21.53-12.34c.96-.55,1.55-1.57,1.55-2.67v-27.34c0-1.22-1.31-1.98-2.37-1.37l-46.56,26.69c-.8.46-1.29,1.31-1.29,2.23v28.91c0,.9.47,1.74,1.24,2.2l71.2,42.93Z"/>
  <path class="cls-1" d="M1801.81,176.79c-1.54-.93-3.51.18-3.51,1.98v25.73c0,1.25.65,2.41,1.73,3.06l47.07,28.47-21.53,12.34c-.96.55-1.55,1.57-1.55,2.67v27.34c0,1.22,1.31,1.98,2.37,1.37l46.56-26.69c.8-.46,1.29-1.31,1.29-2.23v-28.91c0-.9-.47-1.74-1.24-2.2l-71.2-42.93Z"/>
  <path class="cls-3" d="M1631.63,305.81c-1.54-.93-3.51.18-3.51,1.98v25.73c0,1.25.65,2.41,1.73,3.06l47.07,28.47-21.53,12.34c-.96.55-1.55,1.57-1.55,2.67v27.34c0,1.22,1.31,1.98,2.37,1.37l46.56-26.69c.8-.46,1.29-1.31,1.29-2.23v-28.91c0-.9-.47-1.74-1.24-2.2l-71.2-42.93Z"/>
  <path class="cls-4" d="M1762.29,274.38c1.54.93,3.51-.18,3.51-1.98v-25.73c0-1.25-.65-2.41-1.73-3.06l-47.07-28.47,21.53-12.34c.96-.55,1.55-1.57,1.55-2.67v-27.34c0-1.22-1.31-1.98-2.37-1.37l-46.56,26.69c-.8.46-1.29,1.31-1.29,2.23v28.91c0,.9.47,1.74,1.24,2.2l71.2,42.93Z"/>
  <path class="cls-3" d="M1687.11,237.05c-1.54-.93-3.51.18-3.51,1.98v25.73c0,1.25.65,2.41,1.73,3.06l47.07,28.47-21.53,12.34c-.96.55-1.55,1.57-1.55,2.67v27.34c0,1.22,1.31,1.98,2.37,1.37l46.56-26.69c.8-.46,1.29-1.31,1.29-2.23v-28.91c0-.9-.47-1.74-1.24-2.2l-71.2-42.93Z"/>
  <path class="cls-2" d="M1838.24,356.89c1.54.93,3.51-.18,3.51-1.98v-25.73c0-1.25-.65-2.41-1.73-3.06l-47.07-28.47,21.53-12.34c.96-.55,1.55-1.57,1.55-2.67v-27.34c0-1.22-1.31-1.98-2.37-1.37l-46.56,26.69c-.8.46-1.29,1.31-1.29,2.23v28.91c0,.9.47,1.74,1.24,2.2l71.2,42.93Z"/>
  <path class="cls-1" d="M1727.11,491.57c1.54.93,3.51-.18,3.51-1.98v-25.73c0-1.25-.65-2.41-1.73-3.06l-47.07-28.47,21.53-12.34c.96-.55,1.55-1.57,1.55-2.67v-27.34c0-1.22-1.31-1.98-2.37-1.37l-46.56,26.69c-.8.46-1.29,1.31-1.29,2.23v28.91c0,.9.47,1.74,1.24,2.2l71.2,42.93Z"/>
  <path class="cls-1" d="M1679.15,228.62c1.54.93,3.51-.18,3.51-1.98v-25.73c0-1.25-.65-2.41-1.73-3.06l-47.07-28.47,21.53-12.34c.96-.55,1.55-1.57,1.55-2.67v-27.34c0-1.22-1.31-1.98-2.37-1.37l-46.56,26.69c-.8.46-1.29,1.31-1.29,2.23v28.91c0,.9.47,1.74,1.24,2.2l71.2,42.93Z"/>
  <path class="cls-1" d="M1782.74,422.74c1.54.93,3.51-.18,3.51-1.98v-25.73c0-1.25-.65-2.41-1.73-3.06l-47.07-28.47,21.53-12.34c.96-.55,1.55-1.57,1.55-2.67v-27.34c0-1.22-1.31-1.98-2.37-1.37l-46.56,26.69c-.8.46-1.29,1.31-1.29,2.23v28.91c0,.9.47,1.74,1.24,2.2l71.2,42.93Z"/>
  <path class="cls-4" d="M1769.31,319.91c-1.54-.93-3.51.18-3.51,1.98v25.73c0,1.25.65,2.41,1.73,3.06l47.07,28.47-21.53,12.34c-.96.55-1.55,1.57-1.55,2.67v27.34c0,1.22,1.31,1.98,2.37,1.37l46.56-26.69c.8-.46,1.29-1.31,1.29-2.23v-28.91c0-.9-.47-1.74-1.24-2.2l-71.2-42.93Z"/>
  <path class="cls-4" d="M1713.37,387.5c-1.54-.93-3.51.18-3.51,1.98v25.73c0,1.25.65,2.41,1.73,3.06l47.07,28.47-21.53,12.34c-.96.55-1.55,1.57-1.55,2.67v27.34c0,1.22,1.31,1.98,2.37,1.37l46.56-26.69c.8-.46,1.29-1.31,1.29-2.23v-28.91c0-.9-.47-1.74-1.24-2.2l-71.2-42.93Z"/>
  <path class="cls-2" d="M1631.63,440.49c-1.54-.93-3.51.18-3.51,1.98v25.73c0,1.25.65,2.41,1.73,3.06l47.07,28.47-21.53,12.34c-.96.55-1.55,1.57-1.55,2.67v27.34c0,1.22,1.31,1.98,2.37,1.37l46.56-26.69c.8-.46,1.29-1.31,1.29-2.23v-28.91c0-.9-.47-1.74-1.24-2.2l-71.2-42.93Z"/>
  <path class="cls-2" d="M1700.56,339.89c1.54.93,3.51-.18,3.51-1.98v-25.73c0-1.25-.65-2.41-1.73-3.06l-47.07-28.47,21.53-12.34c.96-.55,1.55-1.57,1.55-2.67v-27.34c0-1.22-1.31-1.98-2.37-1.37l-46.56,26.69c-.8.46-1.29,1.31-1.29,2.23v28.91c0,.9.47,1.74,1.24,2.2l71.2,42.93Z"/>
  <path class="cls-1" d="M1398.13,591.13c-1.54-.93-3.51.18-3.51,1.98v25.73c0,1.25.65,2.41,1.73,3.06l47.07,28.47-21.53,12.34c-.96.55-1.55,1.57-1.55,2.67v27.34c0,1.22,1.31,1.98,2.37,1.37l46.56-26.69c.8-.46,1.29-1.31,1.29-2.23v-28.91c0-.9-.47-1.74-1.24-2.2l-71.2-42.93Z"/>
  <path class="cls-3" d="M1447.83,806.69c-1.54-.93-3.51.18-3.51,1.98v25.73c0,1.25.65,2.41,1.73,3.06l47.07,28.47-21.53,12.34c-.96.55-1.55,1.57-1.55,2.67v27.34c0,1.22,1.31,1.98,2.37,1.37l46.56-26.69c.8-.46,1.29-1.31,1.29-2.23v-28.91c0-.9-.47-1.74-1.24-2.2l-71.2-42.93Z"/>
  <path class="cls-3" d="M1505.35,495.86c-1.54-.93-3.51.18-3.51,1.98v25.73c0,1.25.65,2.41,1.73,3.06l47.07,28.47-21.53,12.34c-.96.55-1.55,1.57-1.55,2.67v27.34c0,1.22,1.31,1.98,2.37,1.37l46.56-26.69c.8-.46,1.29-1.31,1.29-2.23v-28.91c0-.9-.47-1.74-1.24-2.2l-71.2-42.93Z"/>
  <path class="cls-3" d="M1227.95,720.15c-1.54-.93-3.51.18-3.51,1.98v25.73c0,1.25.65,2.41,1.73,3.06l47.07,28.47-21.53,12.34c-.96.55-1.55,1.57-1.55,2.67v27.34c0,1.22,1.31,1.98,2.37,1.37l46.56-26.69c.8-.46,1.29-1.31,1.29-2.23v-28.91c0-.9-.47-1.74-1.24-2.2l-71.2-42.93Z"/>
  <path class="cls-3" d="M1531.51,892.35c-1.54-.93-3.51.18-3.51,1.98v25.73c0,1.25.65,2.41,1.73,3.06l47.07,28.47-21.53,12.34c-.96.55-1.55,1.57-1.55,2.67v27.34c0,1.22,1.31,1.98,2.37,1.37l46.56-26.69c.8-.46,1.29-1.31,1.29-2.23v-28.91c0-.9-.47-1.74-1.24-2.2l-71.2-42.93Z"/>
  <path class="cls-4" d="M1549.26,710.97c1.54.93,3.51-.18,3.51-1.98v-25.73c0-1.25-.65-2.41-1.73-3.06l-47.07-28.47,21.53-12.34c.96-.55,1.55-1.57,1.55-2.67v-27.34c0-1.22-1.31-1.98-2.37-1.37l-46.56,26.69c-.8.46-1.29,1.31-1.29,2.23v28.91c0,.9.47,1.74,1.24,2.2l71.2,42.93Z"/>
  <path class="cls-4" d="M1623.33,751.32c-1.54-.93-3.51.18-3.51,1.98v25.73c0,1.25.65,2.41,1.73,3.06l47.07,28.47-21.52,12.34c-.96.55-1.55,1.57-1.55,2.67v27.34c0,1.22,1.31,1.98,2.37,1.37l46.56-26.69c.8-.46,1.29-1.31,1.29-2.23v-28.91c0-.9-.47-1.74-1.24-2.2l-71.2-42.93Z"/>
  <path class="cls-4" d="M1358.61,688.72c1.54.93,3.51-.18,3.51-1.98v-25.73c0-1.25-.65-2.41-1.73-3.06l-47.07-28.47,21.53-12.34c.96-.55,1.55-1.57,1.55-2.67v-27.34c0-1.22-1.31-1.98-2.37-1.37l-46.56,26.69c-.8.46-1.29,1.31-1.29,2.23v28.91c0,.9.47,1.74,1.24,2.2l71.2,42.93Z"/>
  <path class="cls-3" d="M1283.43,651.39c-1.54-.93-3.51.18-3.51,1.98v25.73c0,1.25.65,2.41,1.73,3.06l47.07,28.47-21.53,12.34c-.96.55-1.55,1.57-1.55,2.67v27.34c0,1.22,1.31,1.98,2.37,1.37l46.56-26.69c.8-.46,1.29-1.31,1.29-2.23v-28.91c0-.9-.47-1.74-1.24-2.2l-71.2-42.93Z"/>
  <path class="cls-3" d="M1730.24,740.47c1.54.93,3.51-.18,3.51-1.98v-25.73c0-1.25-.65-2.41-1.73-3.06l-47.07-28.47,21.53-12.34c.96-.55,1.55-1.57,1.55-2.67v-27.34c0-1.22-1.31-1.98-2.37-1.37l-46.56,26.69c-.8.46-1.29,1.31-1.29,2.23v28.91c0,.9.47,1.74,1.24,2.2l71.2,42.93Z"/>
  <path class="cls-2" d="M1434.56,771.23c1.54.93,3.51-.18,3.51-1.98v-25.73c0-1.25-.65-2.41-1.73-3.06l-47.07-28.47,21.53-12.34c.96-.55,1.55-1.57,1.55-2.67v-27.34c0-1.22-1.31-1.98-2.37-1.37l-46.56,26.69c-.8.46-1.29,1.31-1.29,2.23v28.91c0,.9.47,1.74,1.24,2.2l71.2,42.93Z"/>
  <path class="cls-2" d="M1600.44,925.67c1.54.93,3.51-.18,3.51-1.98v-25.73c0-1.25-.65-2.41-1.73-3.06l-47.07-28.47,21.53-12.34c.96-.55,1.55-1.57,1.55-2.67v-27.34c0-1.22-1.31-1.98-2.37-1.37l-46.56,26.69c-.8.46-1.29,1.31-1.29,2.23v28.91c0,.9.47,1.74,1.24,2.2l71.2,42.93Z"/>
  <path class="cls-1" d="M1575.14,816.22c1.54.93,3.51-.18,3.51-1.98v-25.73c0-1.25-.65-2.41-1.73-3.06l-47.07-28.47,21.53-12.34c.96-.55,1.55-1.57,1.55-2.67v-27.34c0-1.22-1.31-1.98-2.37-1.37l-46.56,26.69c-.8.46-1.29,1.31-1.29,2.23v28.91c0,.9.47,1.74,1.24,2.2l71.2,42.93Z"/>
  <path class="cls-1" d="M1323.42,905.9c1.54.93,3.51-.18,3.51-1.98v-25.73c0-1.25-.65-2.41-1.73-3.06l-47.07-28.47,21.53-12.34c.96-.55,1.55-1.57,1.55-2.67v-27.34c0-1.22-1.31-1.98-2.37-1.37l-46.56,26.69c-.8.46-1.29,1.31-1.29,2.23v28.91c0,.9.47,1.74,1.24,2.2l71.2,42.93Z"/>
  <path class="cls-1" d="M1275.46,642.96c1.54.93,3.51-.18,3.51-1.98v-25.73c0-1.25-.65-2.41-1.73-3.06l-47.07-28.47,21.53-12.34c.96-.55,1.55-1.57,1.55-2.67v-27.34c0-1.22-1.31-1.98-2.37-1.37l-46.56,26.69c-.8.46-1.29,1.31-1.29,2.23v28.91c0,.9.47,1.74,1.24,2.2l71.2,42.93Z"/>
  <path class="cls-1" d="M1379.05,837.08c1.54.93,3.51-.18,3.51-1.98v-25.73c0-1.25-.65-2.41-1.73-3.06l-47.07-28.47,21.53-12.34c.96-.55,1.55-1.57,1.55-2.67v-27.34c0-1.22-1.31-1.98-2.37-1.37l-46.56,26.69c-.8.46-1.29,1.31-1.29,2.23v28.91c0,.9.47,1.74,1.24,2.2l71.2,42.93Z"/>
  <path class="cls-4" d="M1365.63,734.24c-1.54-.93-3.51.18-3.51,1.98v25.73c0,1.25.65,2.41,1.73,3.06l47.07,28.47-21.53,12.34c-.96.55-1.55,1.57-1.55,2.67v27.34c0,1.22,1.31,1.98,2.37,1.37l46.56-26.69c.8-.46,1.29-1.31,1.29-2.23v-28.91c0-.9-.47-1.74-1.24-2.2l-71.2-42.93Z"/>
  <path class="cls-4" d="M1309.68,801.84c-1.54-.93-3.51.18-3.51,1.98v25.73c0,1.25.65,2.41,1.73,3.06l47.07,28.47-21.53,12.34c-.96.55-1.55,1.57-1.55,2.67v27.34c0,1.22,1.31,1.98,2.37,1.37l46.56-26.69c.8-.46,1.29-1.31,1.29-2.23v-28.91c0-.9-.47-1.74-1.24-2.2l-71.2-42.93Z"/>
  <path class="cls-2" d="M1227.95,854.82c-1.54-.93-3.51.18-3.51,1.98v25.73c0,1.25.65,2.41,1.73,3.06l47.07,28.47-21.53,12.34c-.96.55-1.55,1.57-1.55,2.67v27.34c0,1.22,1.31,1.98,2.37,1.37l46.56-26.69c.8-.46,1.29-1.31,1.29-2.23v-28.91c0-.9-.47-1.74-1.24-2.2l-71.2-42.93Z"/>
  <path class="cls-2" d="M1296.88,754.22c1.54.93,3.51-.18,3.51-1.98v-25.73c0-1.25-.65-2.41-1.73-3.06l-47.07-28.47,21.53-12.34c.96-.55,1.55-1.57,1.55-2.67v-27.34c0-1.22-1.31-1.98-2.37-1.37l-46.56,26.69c-.8.46-1.29,1.31-1.29,2.23v28.91c0,.9.47,1.74,1.24,2.2l71.2,42.93Z"/>
  <path class="cls-2" d="M1655.99,614.96c1.54.93,3.51-.18,3.51-1.98v-25.73c0-1.25-.65-2.41-1.73-3.06l-47.07-28.47,21.53-12.34c.96-.55,1.55-1.57,1.55-2.67v-27.34c0-1.22-1.31-1.98-2.37-1.37l-46.56,26.69c-.8.46-1.29,1.31-1.29,2.23v28.91c0,.9.47,1.74,1.24,2.2l71.2,42.93Z"/>
  <path class="cls-3" d="M1750.41,720.15c-1.54-.93-3.51.18-3.51,1.98v25.73c0,1.25.65,2.41,1.73,3.06l47.07,28.47-21.53,12.34c-.96.55-1.55,1.57-1.55,2.67v27.34c0,1.22,1.31,1.98,2.37,1.37l46.56-26.69c.8-.46,1.29-1.31,1.29-2.23v-28.91c0-.9-.47-1.74-1.24-2.2l-71.2-42.93Z"/>
  <path class="cls-4" d="M1881.07,688.72c1.54.93,3.51-.18,3.51-1.98v-25.73c0-1.25-.65-2.41-1.73-3.06l-47.07-28.47,21.53-12.34c.96-.55,1.55-1.57,1.55-2.67v-27.34c0-1.22-1.31-1.98-2.37-1.37l-46.56,26.69c-.8.46-1.29,1.31-1.29,2.23v28.91c0,.9.47,1.74,1.24,2.2l71.2,42.93Z"/>
  <path class="cls-3" d="M1805.9,651.39c-1.54-.93-3.51.18-3.51,1.98v25.73c0,1.25.65,2.41,1.73,3.06l47.07,28.47-21.53,12.34c-.96.55-1.55,1.57-1.55,2.67v27.34c0,1.22,1.31,1.98,2.37,1.37l46.56-26.69c.8-.46,1.29-1.31,1.29-2.23v-28.91c0-.9-.47-1.74-1.24-2.2l-71.2-42.93Z"/>
  <path class="cls-1" d="M1845.89,905.9c1.54.93,3.51-.18,3.51-1.98v-25.73c0-1.25-.65-2.41-1.73-3.06l-47.07-28.47,21.53-12.34c.96-.55,1.55-1.57,1.55-2.67v-27.34c0-1.22-1.31-1.98-2.37-1.37l-46.56,26.69c-.8.46-1.29,1.31-1.29,2.23v28.91c0,.9.47,1.74,1.24,2.2l71.2,42.93Z"/>
  <path class="cls-1" d="M1797.93,642.96c1.54.93,3.51-.18,3.51-1.98v-25.73c0-1.25-.65-2.41-1.73-3.06l-47.07-28.47,21.53-12.34c.96-.55,1.55-1.57,1.55-2.67v-27.34c0-1.22-1.31-1.98-2.37-1.37l-46.56,26.69c-.8.46-1.29,1.31-1.29,2.23v28.91c0,.9.47,1.74,1.24,2.2l71.2,42.93Z"/>
  <path class="cls-1" d="M1901.52,837.08c1.54.93,3.51-.18,3.51-1.98v-25.73c0-1.25-.65-2.41-1.73-3.06l-47.07-28.47,21.53-12.34c.96-.55,1.55-1.57,1.55-2.67v-27.34c0-1.22-1.31-1.98-2.37-1.37l-46.56,26.69c-.8.46-1.29,1.31-1.29,2.23v28.91c0,.9.47,1.74,1.24,2.2l71.2,42.93Z"/>
  <path class="cls-4" d="M1832.15,801.84c-1.54-.93-3.51.18-3.51,1.98v25.73c0,1.25.65,2.41,1.73,3.06l47.07,28.47-21.53,12.34c-.96.55-1.55,1.57-1.55,2.67v27.34c0,1.22,1.31,1.98,2.37,1.37l46.56-26.69c.8-.46,1.29-1.31,1.29-2.23v-28.91c0-.9-.47-1.74-1.24-2.2l-71.2-42.93Z"/>
  <path class="cls-2" d="M1750.41,854.82c-1.54-.93-3.51.18-3.51,1.98v25.73c0,1.25.65,2.41,1.73,3.06l47.07,28.47-21.53,12.34c-.96.55-1.55,1.57-1.55,2.67v27.34c0,1.22,1.31,1.98,2.37,1.37l46.56-26.69c.8-.46,1.29-1.31,1.29-2.23v-28.91c0-.9-.47-1.74-1.24-2.2l-71.2-42.93Z"/>
  <path class="cls-2" d="M1819.34,754.22c1.54.93,3.51-.18,3.51-1.98v-25.73c0-1.25-.65-2.41-1.73-3.06l-47.07-28.47,21.53-12.34c.96-.55,1.55-1.57,1.55-2.67v-27.34c0-1.22-1.31-1.98-2.37-1.37l-46.56,26.69c-.8.46-1.29,1.31-1.29,2.23v28.91c0,.9.47,1.74,1.24,2.2l71.2,42.93Z"/>
</svg>