<?xml version="1.0" encoding="UTF-8"?>
<svg id="Layer_1" data-name="Layer 1" xmlns="http://www.w3.org/2000/svg" xmlns:xlink="http://www.w3.org/1999/xlink" viewBox="0 0 1920 1080">
  <defs>
    <style>
      .cls-1, .cls-2, .cls-3 {
        fill: none;
      }

      .cls-2 {
        opacity: .92;
        stroke: #01ff97;
      }

      .cls-2, .cls-3 {
        stroke-miterlimit: 10;
      }

      .cls-4 {
        fill: #fff;
        opacity: .64;
      }

      .cls-5 {
        fill: #01ff97;
      }

      .cls-3 {
        stroke: #0000f4;
      }

      .cls-6 {
        clip-path: url(#clippath);
      }
    </style>
    <clipPath id="clippath">
      <rect class="cls-1" x="2360" y="-1520" width="1080" height="1920" transform="translate(3460 2340) rotate(-90)"/>
    </clipPath>
  </defs>
  <g class="cls-6">
    <path class="cls-4" d="M1751.04-77.27c-20.13,11.67-19.79,40.85.61,52.04l291.3,159.76c14.18,7.78,31.4,7.58,45.4-.53l614.62-356.15,6.03,320.31c.27,14.24,8.14,27.25,20.63,34.1l309.5,169.74c13.76,7.55,30.54-2.6,30.24-18.29l-13.04-692.92c-.22-11.9-6.8-22.77-17.23-28.49l-327.29-179.5c-10.2-5.6-22.59-5.44-32.66.41L1751.04-77.27Z"/>
    <path class="cls-2" d="M1930.42-1126.12c-20.07-11.77-45.3,2.9-44.99,26.17l4.46,332.21c.22,16.17,8.87,31.06,22.83,39.24l612.69,359.45-275.79,163.02c-12.26,7.25-19.71,20.51-19.52,34.75l4.73,352.96c.21,15.69,17.31,25.3,30.82,17.31l596.6-352.67c10.24-6.06,16.47-17.13,16.31-29.03l-5.01-373.25c-.16-11.64-6.39-22.34-16.44-28.22l-926.69-541.95Z"/>
  </g>
  <path class="cls-3" d="M212.06,124.08c1.58.71,3.33-.59,3.12-2.31l-3.07-24.58c-.15-1.2-.91-2.23-2.02-2.72l-48.37-21.58,19.09-14.36c.85-.64,1.29-1.68,1.16-2.74l-3.26-26.12c-.15-1.16-1.49-1.73-2.43-1.03l-41.3,31.06c-.71.53-1.08,1.41-.97,2.29l3.45,27.62c.11.86.66,1.6,1.45,1.96l73.14,32.52Z"/>
  <path class="cls-5" d="M192.48,26.75c-1.58-.71-3.33.59-3.12,2.31l3.07,24.58c.15,1.2.91,2.23,2.02,2.72l48.37,21.58-19.09,14.36c-.85.64-1.29,1.68-1.16,2.74l3.26,26.12c.15,1.16,1.49,1.73,2.43,1.03l41.3-31.06c.71-.53,1.08-1.41.97-2.29l-3.45-27.62c-.11-.86-.66-1.6-1.45-1.96l-73.14-32.52Z"/>
  <path class="cls-3" d="M351.17,123.2c1.58.71,3.33-.59,3.12-2.31l-3.07-24.58c-.15-1.2-.91-2.23-2.02-2.72l-48.37-21.58,19.09-14.36c.85-.64,1.29-1.68,1.16-2.74l-3.26-26.12c-.15-1.16-1.49-1.73-2.43-1.03l-41.3,31.06c-.71.53-1.08,1.41-.97,2.29l3.45,27.62c.11.86.66,1.6,1.45,1.96l73.14,32.52Z"/>
  <path class="cls-5" d="M331.68,26.57c-1.58-.71-3.33.59-3.12,2.31l3.07,24.58c.15,1.2.91,2.23,2.02,2.72l48.37,21.58-19.09,14.36c-.85.64-1.29,1.68-1.16,2.74l3.26,26.12c.15,1.16,1.49,1.73,2.43,1.03l41.3-31.06c.71-.53,1.08-1.41.97-2.29l-3.45-27.62c-.11-.86-.66-1.6-1.45-1.96l-73.14-32.52Z"/>
  <path class="cls-3" d="M490.37,123.03c1.58.71,3.33-.59,3.12-2.31l-3.07-24.58c-.15-1.2-.91-2.23-2.02-2.72l-48.37-21.58,19.09-14.36c.85-.64,1.29-1.68,1.16-2.74l-3.26-26.12c-.15-1.16-1.49-1.73-2.43-1.03l-41.3,31.06c-.71.53-1.08,1.41-.97,2.29l3.45,27.62c.11.86.66,1.6,1.45,1.96l73.14,32.52Z"/>
  <path class="cls-5" d="M470.79,25.69c-1.58-.71-3.33.59-3.12,2.31l3.07,24.58c.15,1.2.91,2.23,2.02,2.72l48.37,21.58-19.09,14.36c-.85.64-1.29,1.68-1.16,2.74l3.26,26.12c.15,1.16,1.49,1.73,2.43,1.03l41.3-31.06c.71-.53,1.08-1.41.97-2.29l-3.45-27.62c-.11-.86-.66-1.6-1.45-1.96l-73.14-32.52Z"/>
  <path class="cls-3" d="M629.48,122.15c1.58.71,3.33-.59,3.12-2.31l-3.07-24.58c-.15-1.2-.91-2.23-2.02-2.72l-48.37-21.58,19.09-14.36c.85-.64,1.29-1.68,1.16-2.74l-3.26-26.12c-.15-1.16-1.49-1.73-2.43-1.03l-41.3,31.06c-.71.53-1.08,1.41-.97,2.29l3.45,27.62c.11.86.66,1.6,1.45,1.96l73.14,32.52Z"/>
  <path class="cls-5" d="M609.99,25.52c-1.58-.71-3.33.59-3.12,2.31l3.07,24.58c.15,1.2.91,2.23,2.02,2.72l48.37,21.58-19.09,14.36c-.85.64-1.29,1.68-1.16,2.74l3.26,26.12c.15,1.16,1.49,1.73,2.43,1.03l41.3-31.06c.71-.53,1.08-1.41.97-2.29l-3.45-27.62c-.11-.86-.66-1.6-1.45-1.96l-73.14-32.52Z"/>
  <path class="cls-3" d="M768.68,121.98c1.58.71,3.33-.59,3.12-2.31l-3.07-24.58c-.15-1.2-.91-2.23-2.02-2.72l-48.37-21.58,19.09-14.36c.85-.64,1.29-1.68,1.16-2.74l-3.26-26.12c-.15-1.16-1.49-1.73-2.43-1.03l-41.3,31.06c-.71.53-1.08,1.41-.97,2.29l3.45,27.62c.11.86.66,1.6,1.45,1.96l73.14,32.52Z"/>
  <path class="cls-5" d="M749.1,24.64c-1.58-.71-3.33.59-3.12,2.31l3.07,24.58c.15,1.2.91,2.23,2.02,2.72l48.37,21.58-19.09,14.36c-.85.64-1.29,1.68-1.16,2.74l3.26,26.12c.15,1.16,1.49,1.73,2.43,1.03l41.3-31.06c.71-.53,1.08-1.41.97-2.29l-3.45-27.62c-.11-.86-.66-1.6-1.45-1.96l-73.14-32.52Z"/>
  <path class="cls-3" d="M907.79,121.1c1.58.71,3.33-.59,3.12-2.31l-3.07-24.58c-.15-1.2-.91-2.23-2.02-2.72l-48.37-21.58,19.09-14.36c.85-.64,1.29-1.68,1.16-2.74l-3.26-26.12c-.15-1.16-1.49-1.73-2.43-1.03l-41.3,31.06c-.71.53-1.08,1.41-.97,2.29l3.45,27.62c.11.86.66,1.6,1.45,1.96l73.14,32.52Z"/>
  <path class="cls-5" d="M888.3,24.47c-1.58-.71-3.33.59-3.12,2.31l3.07,24.58c.15,1.2.91,2.23,2.02,2.72l48.37,21.58-19.09,14.36c-.85.64-1.29,1.68-1.16,2.74l3.26,26.12c.15,1.16,1.49,1.73,2.43,1.03l41.3-31.06c.71-.53,1.08-1.41.97-2.29l-3.45-27.62c-.11-.86-.66-1.6-1.45-1.96l-73.14-32.52Z"/>
  <path class="cls-3" d="M1046.99,120.93c1.58.71,3.33-.59,3.12-2.31l-3.07-24.58c-.15-1.2-.91-2.23-2.02-2.72l-48.37-21.58,19.09-14.36c.85-.64,1.29-1.68,1.16-2.74l-3.26-26.12c-.15-1.16-1.49-1.73-2.43-1.03l-41.3,31.06c-.71.53-1.08,1.41-.97,2.29l3.45,27.62c.11.86.66,1.6,1.45,1.96l73.14,32.52Z"/>
  <path class="cls-5" d="M1027.41,23.59c-1.58-.71-3.33.59-3.12,2.31l3.07,24.58c.15,1.2.91,2.23,2.02,2.72l48.37,21.58-19.09,14.36c-.85.64-1.29,1.68-1.16,2.74l3.26,26.12c.15,1.16,1.49,1.73,2.43,1.03l41.3-31.06c.71-.53,1.08-1.41.97-2.29l-3.45-27.62c-.11-.86-.66-1.6-1.45-1.96l-73.14-32.52Z"/>
  <path class="cls-3" d="M1186.11,120.05c1.58.71,3.33-.59,3.12-2.31l-3.07-24.58c-.15-1.2-.91-2.23-2.02-2.72l-48.37-21.58,19.09-14.36c.85-.64,1.29-1.68,1.16-2.74l-3.26-26.12c-.15-1.16-1.49-1.73-2.43-1.03l-41.3,31.06c-.71.53-1.08,1.41-.97,2.29l3.45,27.62c.11.86.66,1.6,1.45,1.96l73.14,32.52Z"/>
  <path class="cls-5" d="M1166.61,23.42c-1.58-.71-3.33.59-3.12,2.31l3.07,24.58c.15,1.2.91,2.23,2.02,2.72l48.37,21.58-19.09,14.36c-.85.64-1.29,1.68-1.16,2.74l3.26,26.12c.15,1.16,1.49,1.73,2.43,1.03l41.3-31.06c.71-.53,1.08-1.41.97-2.29l-3.45-27.62c-.11-.86-.66-1.6-1.45-1.96l-73.14-32.52Z"/>
  <path class="cls-3" d="M1325.3,119.87c1.58.71,3.33-.59,3.12-2.31l-3.07-24.58c-.15-1.2-.91-2.23-2.02-2.72l-48.37-21.58,19.09-14.36c.85-.64,1.29-1.68,1.16-2.74l-3.26-26.12c-.15-1.16-1.49-1.73-2.43-1.03l-41.3,31.06c-.71.53-1.08,1.41-.97,2.29l3.45,27.62c.11.86.66,1.6,1.45,1.96l73.14,32.52Z"/>
  <path class="cls-5" d="M1305.73,22.54c-1.58-.71-3.33.59-3.12,2.31l3.07,24.58c.15,1.2.91,2.23,2.02,2.72l48.37,21.58-19.09,14.36c-.85.64-1.29,1.68-1.16,2.74l3.26,26.12c.15,1.16,1.49,1.73,2.43,1.03l41.3-31.06c.71-.53,1.08-1.41.97-2.29l-3.45-27.62c-.11-.86-.66-1.6-1.45-1.96l-73.14-32.52Z"/>
  <path class="cls-3" d="M1464.42,119c1.58.71,3.33-.59,3.12-2.31l-3.07-24.58c-.15-1.2-.91-2.23-2.02-2.72l-48.37-21.58,19.09-14.36c.85-.64,1.29-1.68,1.16-2.74l-3.26-26.12c-.15-1.16-1.49-1.73-2.43-1.03l-41.3,31.06c-.71.53-1.08,1.41-.97,2.29l3.45,27.62c.11.86.66,1.6,1.45,1.96l73.14,32.52Z"/>
  <path class="cls-5" d="M1444.92,22.36c-1.58-.71-3.33.59-3.12,2.31l3.07,24.58c.15,1.2.91,2.23,2.02,2.72l48.37,21.58-19.09,14.36c-.85.64-1.29,1.68-1.16,2.74l3.26,26.12c.15,1.16,1.49,1.73,2.43,1.03l41.3-31.06c.71-.53,1.08-1.41.97-2.29l-3.45-27.62c-.11-.86-.66-1.6-1.45-1.96l-73.14-32.52Z"/>
  <path class="cls-3" d="M1603.62,118.82c1.58.71,3.33-.59,3.12-2.31l-3.07-24.58c-.15-1.2-.91-2.23-2.02-2.72l-48.37-21.58,19.09-14.36c.85-.64,1.29-1.68,1.16-2.74l-3.26-26.12c-.15-1.16-1.49-1.73-2.43-1.03l-41.3,31.06c-.71.53-1.08,1.41-.97,2.29l3.45,27.62c.11.86.66,1.6,1.45,1.96l73.14,32.52Z"/>
  <path class="cls-5" d="M1584.04,21.49c-1.58-.71-3.33.59-3.12,2.31l3.07,24.58c.15,1.2.91,2.23,2.02,2.72l48.37,21.58-19.09,14.36c-.85.64-1.29,1.68-1.16,2.74l3.26,26.12c.15,1.16,1.49,1.73,2.43,1.03l41.3-31.06c.71-.53,1.08-1.41.97-2.29l-3.45-27.62c-.11-.86-.66-1.6-1.45-1.96l-73.14-32.52Z"/>
  <path class="cls-3" d="M1742.73,117.95c1.58.71,3.33-.59,3.12-2.31l-3.07-24.58c-.15-1.2-.91-2.23-2.02-2.72l-48.37-21.58,19.09-14.36c.85-.64,1.29-1.68,1.16-2.74l-3.26-26.12c-.15-1.16-1.49-1.73-2.43-1.03l-41.3,31.06c-.71.53-1.08,1.41-.97,2.29l3.45,27.62c.11.86.66,1.6,1.45,1.96l73.14,32.52Z"/>
  <path class="cls-5" d="M150.44,103.67c-1.58-.71-3.33.59-3.12,2.31l3.07,24.58c.15,1.2.91,2.23,2.02,2.72l48.37,21.58-19.09,14.36c-.85.64-1.29,1.68-1.16,2.74l3.26,26.12c.15,1.16,1.49,1.73,2.43,1.03l41.3-31.06c.71-.53,1.08-1.41.97-2.29l-3.45-27.62c-.11-.86-.66-1.6-1.45-1.96l-73.14-32.52Z"/>
  <path class="cls-3" d="M309.13,200.13c1.58.71,3.33-.59,3.12-2.31l-3.07-24.58c-.15-1.2-.91-2.23-2.02-2.72l-48.37-21.58,19.09-14.36c.85-.64,1.29-1.68,1.16-2.74l-3.26-26.12c-.15-1.16-1.49-1.73-2.43-1.03l-41.3,31.06c-.71.53-1.08,1.41-.97,2.29l3.45,27.62c.11.86.66,1.6,1.45,1.96l73.14,32.52Z"/>
  <path class="cls-5" d="M289.64,103.5c-1.58-.71-3.33.59-3.12,2.31l3.07,24.58c.15,1.2.91,2.23,2.02,2.72l48.37,21.58-19.09,14.36c-.85.64-1.29,1.68-1.16,2.74l3.26,26.12c.15,1.16,1.49,1.73,2.43,1.03l41.3-31.06c.71-.53,1.08-1.41.97-2.29l-3.45-27.62c-.11-.86-.66-1.6-1.45-1.96l-73.14-32.52Z"/>
  <path class="cls-3" d="M448.33,199.96c1.58.71,3.33-.59,3.12-2.31l-3.07-24.58c-.15-1.2-.91-2.23-2.02-2.72l-48.37-21.58,19.09-14.36c.85-.64,1.29-1.68,1.16-2.74l-3.26-26.12c-.15-1.16-1.49-1.73-2.43-1.03l-41.3,31.06c-.71.53-1.08,1.41-.97,2.29l3.45,27.62c.11.86.66,1.6,1.45,1.96l73.14,32.52Z"/>
  <path class="cls-5" d="M428.75,102.62c-1.58-.71-3.33.59-3.12,2.31l3.07,24.58c.15,1.2.91,2.23,2.02,2.72l48.37,21.58-19.09,14.36c-.85.64-1.29,1.68-1.16,2.74l3.26,26.12c.15,1.16,1.49,1.73,2.43,1.03l41.3-31.06c.71-.53,1.08-1.41.97-2.29l-3.45-27.62c-.11-.86-.66-1.6-1.45-1.96l-73.14-32.52Z"/>
  <path class="cls-3" d="M587.44,199.08c1.58.71,3.33-.59,3.12-2.31l-3.07-24.58c-.15-1.2-.91-2.23-2.02-2.72l-48.37-21.58,19.09-14.36c.85-.64,1.29-1.68,1.16-2.74l-3.26-26.12c-.15-1.16-1.49-1.73-2.43-1.03l-41.3,31.06c-.71.53-1.08,1.41-.97,2.29l3.45,27.62c.11.86.66,1.6,1.45,1.96l73.14,32.52Z"/>
  <path class="cls-5" d="M567.95,102.45c-1.58-.71-3.33.59-3.12,2.31l3.07,24.58c.15,1.2.91,2.23,2.02,2.72l48.37,21.58-19.09,14.36c-.85.64-1.29,1.68-1.16,2.74l3.26,26.12c.15,1.16,1.49,1.73,2.43,1.03l41.3-31.06c.71-.53,1.08-1.41.97-2.29l-3.45-27.62c-.11-.86-.66-1.6-1.45-1.96l-73.14-32.52Z"/>
  <path class="cls-3" d="M726.64,198.91c1.58.71,3.33-.59,3.12-2.31l-3.07-24.58c-.15-1.2-.91-2.23-2.02-2.72l-48.37-21.58,19.09-14.36c.85-.64,1.29-1.68,1.16-2.74l-3.26-26.12c-.15-1.16-1.49-1.73-2.43-1.03l-41.3,31.06c-.71.53-1.08,1.41-.97,2.29l3.45,27.62c.11.86.66,1.6,1.45,1.96l73.14,32.52Z"/>
  <path class="cls-5" d="M707.06,101.57c-1.58-.71-3.33.59-3.12,2.31l3.07,24.58c.15,1.2.91,2.23,2.02,2.72l48.37,21.58-19.09,14.36c-.85.64-1.29,1.68-1.16,2.74l3.26,26.12c.15,1.16,1.49,1.73,2.43,1.03l41.3-31.06c.71-.53,1.08-1.41.97-2.29l-3.45-27.62c-.11-.86-.66-1.6-1.45-1.96l-73.14-32.52Z"/>
  <path class="cls-3" d="M865.76,198.03c1.58.71,3.33-.59,3.12-2.31l-3.07-24.58c-.15-1.2-.91-2.23-2.02-2.72l-48.37-21.58,19.09-14.36c.85-.64,1.29-1.68,1.16-2.74l-3.26-26.12c-.15-1.16-1.49-1.73-2.43-1.03l-41.3,31.06c-.71.53-1.08,1.41-.97,2.29l3.45,27.62c.11.86.66,1.6,1.45,1.96l73.14,32.52Z"/>
  <path class="cls-5" d="M846.26,101.4c-1.58-.71-3.33.59-3.12,2.31l3.07,24.58c.15,1.2.91,2.23,2.02,2.72l48.37,21.58-19.09,14.36c-.85.64-1.29,1.68-1.16,2.74l3.26,26.12c.15,1.16,1.49,1.73,2.43,1.03l41.3-31.06c.71-.53,1.08-1.41.97-2.29l-3.45-27.62c-.11-.86-.66-1.6-1.45-1.96l-73.14-32.52Z"/>
  <path class="cls-3" d="M1004.96,197.85c1.58.71,3.33-.59,3.12-2.31l-3.07-24.58c-.15-1.2-.91-2.23-2.02-2.72l-48.37-21.58,19.09-14.36c.85-.64,1.29-1.68,1.16-2.74l-3.26-26.12c-.15-1.16-1.49-1.73-2.43-1.03l-41.3,31.06c-.71.53-1.08,1.41-.97,2.29l3.45,27.62c.11.86.66,1.6,1.45,1.96l73.14,32.52Z"/>
  <path class="cls-5" d="M985.38,100.52c-1.58-.71-3.33.59-3.12,2.31l3.07,24.58c.15,1.2.91,2.23,2.02,2.72l48.37,21.58-19.09,14.36c-.85.64-1.29,1.68-1.16,2.74l3.26,26.12c.15,1.16,1.49,1.73,2.43,1.03l41.3-31.06c.71-.53,1.08-1.41.97-2.29l-3.45-27.62c-.11-.86-.66-1.6-1.45-1.96l-73.14-32.52Z"/>
  <path class="cls-3" d="M1144.07,196.98c1.58.71,3.33-.59,3.12-2.31l-3.07-24.58c-.15-1.2-.91-2.23-2.02-2.72l-48.37-21.58,19.09-14.36c.85-.64,1.29-1.68,1.16-2.74l-3.26-26.12c-.15-1.16-1.49-1.73-2.43-1.03l-41.3,31.06c-.71.53-1.08,1.41-.97,2.29l3.45,27.62c.11.86.66,1.6,1.45,1.96l73.14,32.52Z"/>
  <path class="cls-5" d="M1124.58,100.34c-1.58-.71-3.33.59-3.12,2.31l3.07,24.58c.15,1.2.91,2.23,2.02,2.72l48.37,21.58-19.09,14.36c-.85.64-1.29,1.68-1.16,2.74l3.26,26.12c.15,1.16,1.49,1.73,2.43,1.03l41.3-31.06c.71-.53,1.08-1.41.97-2.29l-3.45-27.62c-.11-.86-.66-1.6-1.45-1.96l-73.14-32.52Z"/>
  <path class="cls-3" d="M1283.27,196.8c1.58.71,3.33-.59,3.12-2.31l-3.07-24.58c-.15-1.2-.91-2.23-2.02-2.72l-48.37-21.58,19.09-14.36c.85-.64,1.29-1.68,1.16-2.74l-3.26-26.12c-.15-1.16-1.49-1.73-2.43-1.03l-41.3,31.06c-.71.53-1.08,1.41-.97,2.29l3.45,27.62c.11.86.66,1.6,1.45,1.96l73.14,32.52Z"/>
  <path class="cls-5" d="M1263.69,99.47c-1.58-.71-3.33.59-3.12,2.31l3.07,24.58c.15,1.2.91,2.23,2.02,2.72l48.37,21.58-19.09,14.36c-.85.64-1.29,1.68-1.16,2.74l3.26,26.12c.15,1.16,1.49,1.73,2.43,1.03l41.3-31.06c.71-.53,1.08-1.41.97-2.29l-3.45-27.62c-.11-.86-.66-1.6-1.45-1.96l-73.14-32.52Z"/>
  <path class="cls-3" d="M1422.38,195.93c1.58.71,3.33-.59,3.12-2.31l-3.07-24.58c-.15-1.2-.91-2.23-2.02-2.72l-48.37-21.58,19.09-14.36c.85-.64,1.29-1.68,1.16-2.74l-3.26-26.12c-.15-1.16-1.49-1.73-2.43-1.03l-41.3,31.06c-.71.53-1.08,1.41-.97,2.29l3.45,27.62c.11.86.66,1.6,1.45,1.96l73.14,32.52Z"/>
  <path class="cls-5" d="M1402.89,99.29c-1.58-.71-3.33.59-3.12,2.31l3.07,24.58c.15,1.2.91,2.23,2.02,2.72l48.37,21.58-19.09,14.36c-.85.64-1.29,1.68-1.16,2.74l3.26,26.12c.15,1.16,1.49,1.73,2.43,1.03l41.3-31.06c.71-.53,1.08-1.41.97-2.29l-3.45-27.62c-.11-.86-.66-1.6-1.45-1.96l-73.14-32.52Z"/>
  <path class="cls-3" d="M1561.58,195.75c1.58.71,3.33-.59,3.12-2.31l-3.07-24.58c-.15-1.2-.91-2.23-2.02-2.72l-48.37-21.58,19.09-14.36c.85-.64,1.29-1.68,1.16-2.74l-3.26-26.12c-.15-1.16-1.49-1.73-2.43-1.03l-41.3,31.06c-.71.53-1.08,1.41-.97,2.29l3.45,27.62c.11.86.66,1.6,1.45,1.96l73.14,32.52Z"/>
  <path class="cls-5" d="M1542,98.42c-1.58-.71-3.33.59-3.12,2.31l3.07,24.58c.15,1.2.91,2.23,2.02,2.72l48.37,21.58-19.09,14.36c-.85.64-1.29,1.68-1.16,2.74l3.26,26.12c.15,1.16,1.49,1.73,2.43,1.03l41.3-31.06c.71-.53,1.08-1.41.97-2.29l-3.45-27.62c-.11-.86-.66-1.6-1.45-1.96l-73.14-32.52Z"/>
  <path class="cls-3" d="M1700.69,194.88c1.58.71,3.33-.59,3.12-2.31l-3.07-24.58c-.15-1.2-.91-2.23-2.02-2.72l-48.37-21.58,19.09-14.36c.85-.64,1.29-1.68,1.16-2.74l-3.26-26.12c-.15-1.16-1.49-1.73-2.43-1.03l-41.3,31.06c-.71.53-1.08,1.41-.97,2.29l3.45,27.62c.11.86.66,1.6,1.45,1.96l73.14,32.52Z"/>
  <path class="cls-3" d="M259.36,277.12c1.58.71,3.33-.59,3.12-2.31l-3.07-24.58c-.15-1.2-.91-2.23-2.02-2.72l-48.37-21.58,19.09-14.36c.85-.64,1.29-1.68,1.16-2.74l-3.26-26.12c-.15-1.16-1.49-1.73-2.43-1.03l-41.3,31.06c-.71.53-1.08,1.41-.97,2.29l3.45,27.62c.11.86.66,1.6,1.45,1.96l73.14,32.52Z"/>
  <path class="cls-5" d="M239.78,179.78c-1.58-.71-3.33.59-3.12,2.31l3.07,24.58c.15,1.2.91,2.23,2.02,2.72l48.37,21.58-19.09,14.36c-.85.64-1.29,1.68-1.16,2.74l3.26,26.12c.15,1.16,1.49,1.73,2.43,1.03l41.3-31.06c.71-.53,1.08-1.41.97-2.29l-3.45-27.62c-.11-.86-.66-1.6-1.45-1.96l-73.14-32.52Z"/>
  <path class="cls-3" d="M398.47,276.24c1.58.71,3.33-.59,3.12-2.31l-3.07-24.58c-.15-1.2-.91-2.23-2.02-2.72l-48.37-21.58,19.09-14.36c.85-.64,1.29-1.68,1.16-2.74l-3.26-26.12c-.15-1.16-1.49-1.73-2.43-1.03l-41.3,31.06c-.71.53-1.08,1.41-.97,2.29l3.45,27.62c.11.86.66,1.6,1.45,1.96l73.14,32.52Z"/>
  <path class="cls-5" d="M378.98,179.61c-1.58-.71-3.33.59-3.12,2.31l3.07,24.58c.15,1.2.91,2.23,2.02,2.72l48.37,21.58-19.09,14.36c-.85.64-1.29,1.68-1.16,2.74l3.26,26.12c.15,1.16,1.49,1.73,2.43,1.03l41.3-31.06c.71-.53,1.08-1.41.97-2.29l-3.45-27.62c-.11-.86-.66-1.6-1.45-1.96l-73.14-32.52Z"/>
  <path class="cls-3" d="M537.67,276.07c1.58.71,3.33-.59,3.12-2.31l-3.07-24.58c-.15-1.2-.91-2.23-2.02-2.72l-48.37-21.58,19.09-14.36c.85-.64,1.29-1.68,1.16-2.74l-3.26-26.12c-.15-1.16-1.49-1.73-2.43-1.03l-41.3,31.06c-.71.53-1.08,1.41-.97,2.29l3.45,27.62c.11.86.66,1.6,1.45,1.96l73.14,32.52Z"/>
  <path class="cls-5" d="M518.09,178.73c-1.58-.71-3.33.59-3.12,2.31l3.07,24.58c.15,1.2.91,2.23,2.02,2.72l48.37,21.58-19.09,14.36c-.85.64-1.29,1.68-1.16,2.74l3.26,26.12c.15,1.16,1.49,1.73,2.43,1.03l41.3-31.06c.71-.53,1.08-1.41.97-2.29l-3.45-27.62c-.11-.86-.66-1.6-1.45-1.96l-73.14-32.52Z"/>
  <path class="cls-3" d="M676.78,275.19c1.58.71,3.33-.59,3.12-2.31l-3.07-24.58c-.15-1.2-.91-2.23-2.02-2.72l-48.37-21.58,19.09-14.36c.85-.64,1.29-1.68,1.16-2.74l-3.26-26.12c-.15-1.16-1.49-1.73-2.43-1.03l-41.3,31.06c-.71.53-1.08,1.41-.97,2.29l3.45,27.62c.11.86.66,1.6,1.45,1.96l73.14,32.52Z"/>
  <path class="cls-5" d="M657.29,178.56c-1.58-.71-3.33.59-3.12,2.31l3.07,24.58c.15,1.2.91,2.23,2.02,2.72l48.37,21.58-19.09,14.36c-.85.64-1.29,1.68-1.16,2.74l3.26,26.12c.15,1.16,1.49,1.73,2.43,1.03l41.3-31.06c.71-.53,1.08-1.41.97-2.29l-3.45-27.62c-.11-.86-.66-1.6-1.45-1.96l-73.14-32.52Z"/>
  <path class="cls-3" d="M815.98,275.01c1.58.71,3.33-.59,3.12-2.31l-3.07-24.58c-.15-1.2-.91-2.23-2.02-2.72l-48.37-21.58,19.09-14.36c.85-.64,1.29-1.68,1.16-2.74l-3.26-26.12c-.15-1.16-1.49-1.73-2.43-1.03l-41.3,31.06c-.71.53-1.08,1.41-.97,2.29l3.45,27.62c.11.86.66,1.6,1.45,1.96l73.14,32.52Z"/>
  <path class="cls-5" d="M796.4,177.68c-1.58-.71-3.33.59-3.12,2.31l3.07,24.58c.15,1.2.91,2.23,2.02,2.72l48.37,21.58-19.09,14.36c-.85.64-1.29,1.68-1.16,2.74l3.26,26.12c.15,1.16,1.49,1.73,2.43,1.03l41.3-31.06c.71-.53,1.08-1.41.97-2.29l-3.45-27.62c-.11-.86-.66-1.6-1.45-1.96l-73.14-32.52Z"/>
  <path class="cls-3" d="M955.09,274.14c1.58.71,3.33-.59,3.12-2.31l-3.07-24.58c-.15-1.2-.91-2.23-2.02-2.72l-48.37-21.58,19.09-14.36c.85-.64,1.29-1.68,1.16-2.74l-3.26-26.12c-.15-1.16-1.49-1.73-2.43-1.03l-41.3,31.06c-.71.53-1.08,1.41-.97,2.29l3.45,27.62c.11.86.66,1.6,1.45,1.96l73.14,32.52Z"/>
  <path class="cls-5" d="M935.6,177.5c-1.58-.71-3.33.59-3.12,2.31l3.07,24.58c.15,1.2.91,2.23,2.02,2.72l48.37,21.58-19.09,14.36c-.85.64-1.29,1.68-1.16,2.74l3.26,26.12c.15,1.16,1.49,1.73,2.43,1.03l41.3-31.06c.71-.53,1.08-1.41.97-2.29l-3.45-27.62c-.11-.86-.66-1.6-1.45-1.96l-73.14-32.52Z"/>
  <path class="cls-3" d="M1094.29,273.96c1.58.71,3.33-.59,3.12-2.31l-3.07-24.58c-.15-1.2-.91-2.23-2.02-2.72l-48.37-21.58,19.09-14.36c.85-.64,1.29-1.68,1.16-2.74l-3.26-26.12c-.15-1.16-1.49-1.73-2.43-1.03l-41.3,31.06c-.71.53-1.08,1.41-.97,2.29l3.45,27.62c.11.86.66,1.6,1.45,1.96l73.14,32.52Z"/>
  <path class="cls-5" d="M1074.71,176.63c-1.58-.71-3.33.59-3.12,2.31l3.07,24.58c.15,1.2.91,2.23,2.02,2.72l48.37,21.58-19.09,14.36c-.85.64-1.29,1.68-1.16,2.74l3.26,26.12c.15,1.16,1.49,1.73,2.43,1.03l41.3-31.06c.71-.53,1.08-1.41.97-2.29l-3.45-27.62c-.11-.86-.66-1.6-1.45-1.96l-73.14-32.52Z"/>
  <path class="cls-3" d="M1233.41,273.09c1.58.71,3.33-.59,3.12-2.31l-3.07-24.58c-.15-1.2-.91-2.23-2.02-2.72l-48.37-21.58,19.09-14.36c.85-.64,1.29-1.68,1.16-2.74l-3.26-26.12c-.15-1.16-1.49-1.73-2.43-1.03l-41.3,31.06c-.71.53-1.08,1.41-.97,2.29l3.45,27.62c.11.86.66,1.6,1.45,1.96l73.14,32.52Z"/>
  <path class="cls-5" d="M1213.91,176.45c-1.58-.71-3.33.59-3.12,2.31l3.07,24.58c.15,1.2.91,2.23,2.02,2.72l48.37,21.58-19.09,14.36c-.85.64-1.29,1.68-1.16,2.74l3.26,26.12c.15,1.16,1.49,1.73,2.43,1.03l41.3-31.06c.71-.53,1.08-1.41.97-2.29l-3.45-27.62c-.11-.86-.66-1.6-1.45-1.96l-73.14-32.52Z"/>
  <path class="cls-3" d="M1372.6,272.91c1.58.71,3.33-.59,3.12-2.31l-3.07-24.58c-.15-1.2-.91-2.23-2.02-2.72l-48.37-21.58,19.09-14.36c.85-.64,1.29-1.68,1.16-2.74l-3.26-26.12c-.15-1.16-1.49-1.73-2.43-1.03l-41.3,31.06c-.71.53-1.08,1.41-.97,2.29l3.45,27.62c.11.86.66,1.6,1.45,1.96l73.14,32.52Z"/>
  <path class="cls-5" d="M1353.03,175.58c-1.58-.71-3.33.59-3.12,2.31l3.07,24.58c.15,1.2.91,2.23,2.02,2.72l48.37,21.58-19.09,14.36c-.85.64-1.29,1.68-1.16,2.74l3.26,26.12c.15,1.16,1.49,1.73,2.43,1.03l41.3-31.06c.71-.53,1.08-1.41.97-2.29l-3.45-27.62c-.11-.86-.66-1.6-1.45-1.96l-73.14-32.52Z"/>
  <path class="cls-3" d="M1511.72,272.04c1.58.71,3.33-.59,3.12-2.31l-3.07-24.58c-.15-1.2-.91-2.23-2.02-2.72l-48.37-21.58,19.09-14.36c.85-.64,1.29-1.68,1.16-2.74l-3.26-26.12c-.15-1.16-1.49-1.73-2.43-1.03l-41.3,31.06c-.71.53-1.08,1.41-.97,2.29l3.45,27.62c.11.86.66,1.6,1.45,1.96l73.14,32.52Z"/>
  <path class="cls-5" d="M1492.23,175.4c-1.58-.71-3.33.59-3.12,2.31l3.07,24.58c.15,1.2.91,2.23,2.02,2.72l48.37,21.58-19.09,14.36c-.85.64-1.29,1.68-1.16,2.74l3.26,26.12c.15,1.16,1.49,1.73,2.43,1.03l41.3-31.06c.71-.53,1.08-1.41.97-2.29l-3.45-27.62c-.11-.86-.66-1.6-1.45-1.96l-73.14-32.52Z"/>
  <path class="cls-3" d="M1650.92,271.86c1.58.71,3.33-.59,3.12-2.31l-3.07-24.58c-.15-1.2-.91-2.23-2.02-2.72l-48.37-21.58,19.09-14.36c.85-.64,1.29-1.68,1.16-2.74l-3.26-26.12c-.15-1.16-1.49-1.73-2.43-1.03l-41.3,31.06c-.71.53-1.08,1.41-.97,2.29l3.45,27.62c.11.86.66,1.6,1.45,1.96l73.14,32.52Z"/>
  <path class="cls-5" d="M1631.34,174.53c-1.58-.71-3.33.59-3.12,2.31l3.07,24.58c.15,1.2.91,2.23,2.02,2.72l48.37,21.58-19.09,14.36c-.85.64-1.29,1.68-1.16,2.74l3.26,26.12c.15,1.16,1.49,1.73,2.43,1.03l41.3-31.06c.71-.53,1.08-1.41.97-2.29l-3.45-27.62c-.11-.86-.66-1.6-1.45-1.96l-73.14-32.52Z"/>
  <path class="cls-3" d="M1790.03,270.98c1.58.71,3.33-.59,3.12-2.31l-3.07-24.58c-.15-1.2-.91-2.23-2.02-2.72l-48.37-21.58,19.09-14.36c.85-.64,1.29-1.68,1.16-2.74l-3.26-26.12c-.15-1.16-1.49-1.73-2.43-1.03l-41.3,31.06c-.71.53-1.08,1.41-.97,2.29l3.45,27.62c.11.86.66,1.6,1.45,1.96l73.14,32.52Z"/>
  <path class="cls-3" d="M217.32,354.05c1.58.71,3.33-.59,3.12-2.31l-3.07-24.58c-.15-1.2-.91-2.23-2.02-2.72l-48.37-21.58,19.09-14.36c.85-.64,1.29-1.68,1.16-2.74l-3.26-26.12c-.15-1.16-1.49-1.73-2.43-1.03l-41.3,31.06c-.71.53-1.08,1.41-.97,2.29l3.45,27.62c.11.86.66,1.6,1.45,1.96l73.14,32.52Z"/>
  <path class="cls-5" d="M197.74,256.71c-1.58-.71-3.33.59-3.12,2.31l3.07,24.58c.15,1.2.91,2.23,2.02,2.72l48.37,21.58-19.09,14.36c-.85.64-1.29,1.68-1.16,2.74l3.26,26.12c.15,1.16,1.49,1.73,2.43,1.03l41.3-31.06c.71-.53,1.08-1.41.97-2.29l-3.45-27.62c-.11-.86-.66-1.6-1.45-1.96l-73.14-32.52Z"/>
  <path class="cls-3" d="M356.43,353.17c1.58.71,3.33-.59,3.12-2.31l-3.07-24.58c-.15-1.2-.91-2.23-2.02-2.72l-48.37-21.58,19.09-14.36c.85-.64,1.29-1.68,1.16-2.74l-3.26-26.12c-.15-1.16-1.49-1.73-2.43-1.03l-41.3,31.06c-.71.53-1.08,1.41-.97,2.29l3.45,27.62c.11.86.66,1.6,1.45,1.96l73.14,32.52Z"/>
  <path class="cls-5" d="M336.94,256.54c-1.58-.71-3.33.59-3.12,2.31l3.07,24.58c.15,1.2.91,2.23,2.02,2.72l48.37,21.58-19.09,14.36c-.85.64-1.29,1.68-1.16,2.74l3.26,26.12c.15,1.16,1.49,1.73,2.43,1.03l41.3-31.06c.71-.53,1.08-1.41.97-2.29l-3.45-27.62c-.11-.86-.66-1.6-1.45-1.96l-73.14-32.52Z"/>
  <path class="cls-3" d="M495.63,352.99c1.58.71,3.33-.59,3.12-2.31l-3.07-24.58c-.15-1.2-.91-2.23-2.02-2.72l-48.37-21.58,19.09-14.36c.85-.64,1.29-1.68,1.16-2.74l-3.26-26.12c-.15-1.16-1.49-1.73-2.43-1.03l-41.3,31.06c-.71.53-1.08,1.41-.97,2.29l3.45,27.62c.11.86.66,1.6,1.45,1.96l73.14,32.52Z"/>
  <path class="cls-5" d="M476.05,255.66c-1.58-.71-3.33.59-3.12,2.31l3.07,24.58c.15,1.2.91,2.23,2.02,2.72l48.37,21.58-19.09,14.36c-.85.64-1.29,1.68-1.16,2.74l3.26,26.12c.15,1.16,1.49,1.73,2.43,1.03l41.3-31.06c.71-.53,1.08-1.41.97-2.29l-3.45-27.62c-.11-.86-.66-1.6-1.45-1.96l-73.14-32.52Z"/>
  <path class="cls-3" d="M634.74,352.12c1.58.71,3.33-.59,3.12-2.31l-3.07-24.58c-.15-1.2-.91-2.23-2.02-2.72l-48.37-21.58,19.09-14.36c.85-.64,1.29-1.68,1.16-2.74l-3.26-26.12c-.15-1.16-1.49-1.73-2.43-1.03l-41.3,31.06c-.71.53-1.08,1.41-.97,2.29l3.45,27.62c.11.86.66,1.6,1.45,1.96l73.14,32.52Z"/>
  <path class="cls-5" d="M615.25,255.48c-1.58-.71-3.33.59-3.12,2.31l3.07,24.58c.15,1.2.91,2.23,2.02,2.72l48.37,21.58-19.09,14.36c-.85.64-1.29,1.68-1.16,2.74l3.26,26.12c.15,1.16,1.49,1.73,2.43,1.03l41.3-31.06c.71-.53,1.08-1.41.97-2.29l-3.45-27.62c-.11-.86-.66-1.6-1.45-1.96l-73.14-32.52Z"/>
  <path class="cls-3" d="M773.94,351.94c1.58.71,3.33-.59,3.12-2.31l-3.07-24.58c-.15-1.2-.91-2.23-2.02-2.72l-48.37-21.58,19.09-14.36c.85-.64,1.29-1.68,1.16-2.74l-3.26-26.12c-.15-1.16-1.49-1.73-2.43-1.03l-41.3,31.06c-.71.53-1.08,1.41-.97,2.29l3.45,27.62c.11.86.66,1.6,1.45,1.96l73.14,32.52Z"/>
  <path class="cls-5" d="M754.36,254.61c-1.58-.71-3.33.59-3.12,2.31l3.07,24.58c.15,1.2.91,2.23,2.02,2.72l48.37,21.58-19.09,14.36c-.85.64-1.29,1.68-1.16,2.74l3.26,26.12c.15,1.16,1.49,1.73,2.43,1.03l41.3-31.06c.71-.53,1.08-1.41.97-2.29l-3.45-27.62c-.11-.86-.66-1.6-1.45-1.96l-73.14-32.52Z"/>
  <path class="cls-3" d="M913.06,351.07c1.58.71,3.33-.59,3.12-2.31l-3.07-24.58c-.15-1.2-.91-2.23-2.02-2.72l-48.37-21.58,19.09-14.36c.85-.64,1.29-1.68,1.16-2.74l-3.26-26.12c-.15-1.16-1.49-1.73-2.43-1.03l-41.3,31.06c-.71.53-1.08,1.41-.97,2.29l3.45,27.62c.11.86.66,1.6,1.45,1.96l73.14,32.52Z"/>
  <path class="cls-5" d="M893.56,254.43c-1.58-.71-3.33.59-3.12,2.31l3.07,24.58c.15,1.2.91,2.23,2.02,2.72l48.37,21.58-19.09,14.36c-.85.64-1.29,1.68-1.16,2.74l3.26,26.12c.15,1.16,1.49,1.73,2.43,1.03l41.3-31.06c.71-.53,1.08-1.41.97-2.29l-3.45-27.62c-.11-.86-.66-1.6-1.45-1.96l-73.14-32.52Z"/>
  <path class="cls-3" d="M1052.26,350.89c1.58.71,3.33-.59,3.12-2.31l-3.07-24.58c-.15-1.2-.91-2.23-2.02-2.72l-48.37-21.58,19.09-14.36c.85-.64,1.29-1.68,1.16-2.74l-3.26-26.12c-.15-1.16-1.49-1.73-2.43-1.03l-41.3,31.06c-.71.53-1.08,1.41-.97,2.29l3.45,27.62c.11.86.66,1.6,1.45,1.96l73.14,32.52Z"/>
  <path class="cls-5" d="M1032.68,253.56c-1.58-.71-3.33.59-3.12,2.31l3.07,24.58c.15,1.2.91,2.23,2.02,2.72l48.37,21.58-19.09,14.36c-.85.64-1.29,1.68-1.16,2.74l3.26,26.12c.15,1.16,1.49,1.73,2.43,1.03l41.3-31.06c.71-.53,1.08-1.41.97-2.29l-3.45-27.62c-.11-.86-.66-1.6-1.45-1.96l-73.14-32.52Z"/>
  <path class="cls-3" d="M1191.37,350.02c1.58.71,3.33-.59,3.12-2.31l-3.07-24.58c-.15-1.2-.91-2.23-2.02-2.72l-48.37-21.58,19.09-14.36c.85-.64,1.29-1.68,1.16-2.74l-3.26-26.12c-.15-1.16-1.49-1.73-2.43-1.03l-41.3,31.06c-.71.53-1.08,1.41-.97,2.29l3.45,27.62c.11.86.66,1.6,1.45,1.96l73.14,32.52Z"/>
  <path class="cls-5" d="M1171.88,253.38c-1.58-.71-3.33.59-3.12,2.31l3.07,24.58c.15,1.2.91,2.23,2.02,2.72l48.37,21.58-19.09,14.36c-.85.64-1.29,1.68-1.16,2.74l3.26,26.12c.15,1.16,1.49,1.73,2.43,1.03l41.3-31.06c.71-.53,1.08-1.41.97-2.29l-3.45-27.62c-.11-.86-.66-1.6-1.45-1.96l-73.14-32.52Z"/>
  <path class="cls-3" d="M1330.57,349.84c1.58.71,3.33-.59,3.12-2.31l-3.07-24.58c-.15-1.2-.91-2.23-2.02-2.72l-48.37-21.58,19.09-14.36c.85-.64,1.29-1.68,1.16-2.74l-3.26-26.12c-.15-1.16-1.49-1.73-2.43-1.03l-41.3,31.06c-.71.53-1.08,1.41-.97,2.29l3.45,27.62c.11.86.66,1.6,1.45,1.96l73.14,32.52Z"/>
  <path class="cls-5" d="M1310.99,252.51c-1.58-.71-3.33.59-3.12,2.31l3.07,24.58c.15,1.2.91,2.23,2.02,2.72l48.37,21.58-19.09,14.36c-.85.64-1.29,1.68-1.16,2.74l3.26,26.12c.15,1.16,1.49,1.73,2.43,1.03l41.3-31.06c.71-.53,1.08-1.41.97-2.29l-3.45-27.62c-.11-.86-.66-1.6-1.45-1.96l-73.14-32.52Z"/>
  <path class="cls-3" d="M1469.68,348.96c1.58.71,3.33-.59,3.12-2.31l-3.07-24.58c-.15-1.2-.91-2.23-2.02-2.72l-48.37-21.58,19.09-14.36c.85-.64,1.29-1.68,1.16-2.74l-3.26-26.12c-.15-1.16-1.49-1.73-2.43-1.03l-41.3,31.06c-.71.53-1.08,1.41-.97,2.29l3.45,27.62c.11.86.66,1.6,1.45,1.96l73.14,32.52Z"/>
  <path class="cls-5" d="M1450.19,252.33c-1.58-.71-3.33.59-3.12,2.31l3.07,24.58c.15,1.2.91,2.23,2.02,2.72l48.37,21.58-19.09,14.36c-.85.64-1.29,1.68-1.16,2.74l3.26,26.12c.15,1.16,1.49,1.73,2.43,1.03l41.3-31.06c.71-.53,1.08-1.41.97-2.29l-3.45-27.62c-.11-.86-.66-1.6-1.45-1.96l-73.14-32.52Z"/>
  <path class="cls-3" d="M1608.88,348.79c1.58.71,3.33-.59,3.12-2.31l-3.07-24.58c-.15-1.2-.91-2.23-2.02-2.72l-48.37-21.58,19.09-14.36c.85-.64,1.29-1.68,1.16-2.74l-3.26-26.12c-.15-1.16-1.49-1.73-2.43-1.03l-41.3,31.06c-.71.53-1.08,1.41-.97,2.29l3.45,27.62c.11.86.66,1.6,1.45,1.96l73.14,32.52Z"/>
  <path class="cls-5" d="M1589.3,251.45c-1.58-.71-3.33.59-3.12,2.31l3.07,24.58c.15,1.2.91,2.23,2.02,2.72l48.37,21.58-19.09,14.36c-.85.64-1.29,1.68-1.16,2.74l3.26,26.12c.15,1.16,1.49,1.73,2.43,1.03l41.3-31.06c.71-.53,1.08-1.41.97-2.29l-3.45-27.62c-.11-.86-.66-1.6-1.45-1.96l-73.14-32.52Z"/>
  <path class="cls-3" d="M1747.99,347.91c1.58.71,3.33-.59,3.12-2.31l-3.07-24.58c-.15-1.2-.91-2.23-2.02-2.72l-48.37-21.58,19.09-14.36c.85-.64,1.29-1.68,1.16-2.74l-3.26-26.12c-.15-1.16-1.49-1.73-2.43-1.03l-41.3,31.06c-.71.53-1.08,1.41-.97,2.29l3.45,27.62c.11.86.66,1.6,1.45,1.96l73.14,32.52Z"/>
  <path class="cls-5" d="M147.88,338.92c-1.58-.71-3.33.59-3.12,2.31l3.07,24.58c.15,1.2.91,2.23,2.02,2.72l48.37,21.58-19.09,14.36c-.85.64-1.29,1.68-1.16,2.74l3.26,26.12c.15,1.16,1.49,1.73,2.43,1.03l41.3-31.06c.71-.53,1.08-1.41.97-2.29l-3.45-27.62c-.11-.86-.66-1.6-1.45-1.96l-73.14-32.52Z"/>
  <path class="cls-3" d="M306.57,435.37c1.58.71,3.33-.59,3.12-2.31l-3.07-24.58c-.15-1.2-.91-2.23-2.02-2.72l-48.37-21.58,19.09-14.36c.85-.64,1.29-1.68,1.16-2.74l-3.26-26.12c-.15-1.16-1.49-1.73-2.43-1.03l-41.3,31.06c-.71.53-1.08,1.41-.97,2.29l3.45,27.62c.11.86.66,1.6,1.45,1.96l73.14,32.52Z"/>
  <path class="cls-5" d="M286.99,338.04c-1.58-.71-3.33.59-3.12,2.31l3.07,24.58c.15,1.2.91,2.23,2.02,2.72l48.37,21.58-19.09,14.36c-.85.64-1.29,1.68-1.16,2.74l3.26,26.12c.15,1.16,1.49,1.73,2.43,1.03l41.3-31.06c.71-.53,1.08-1.41.97-2.29l-3.45-27.62c-.11-.86-.66-1.6-1.45-1.96l-73.14-32.52Z"/>
  <path class="cls-3" d="M445.68,434.5c1.58.71,3.33-.59,3.12-2.31l-3.07-24.58c-.15-1.2-.91-2.23-2.02-2.72l-48.37-21.58,19.09-14.36c.85-.64,1.29-1.68,1.16-2.74l-3.26-26.12c-.15-1.16-1.49-1.73-2.43-1.03l-41.3,31.06c-.71.53-1.08,1.41-.97,2.29l3.45,27.62c.11.86.66,1.6,1.45,1.96l73.14,32.52Z"/>
  <path class="cls-5" d="M426.19,337.86c-1.58-.71-3.33.59-3.12,2.31l3.07,24.58c.15,1.2.91,2.23,2.02,2.72l48.37,21.58-19.09,14.36c-.85.64-1.29,1.68-1.16,2.74l3.26,26.12c.15,1.16,1.49,1.73,2.43,1.03l41.3-31.06c.71-.53,1.08-1.41.97-2.29l-3.45-27.62c-.11-.86-.66-1.6-1.45-1.96l-73.14-32.52Z"/>
  <path class="cls-3" d="M584.88,434.32c1.58.71,3.33-.59,3.12-2.31l-3.07-24.58c-.15-1.2-.91-2.23-2.02-2.72l-48.37-21.58,19.09-14.36c.85-.64,1.29-1.68,1.16-2.74l-3.26-26.12c-.15-1.16-1.49-1.73-2.43-1.03l-41.3,31.06c-.71.53-1.08,1.41-.97,2.29l3.45,27.62c.11.86.66,1.6,1.45,1.96l73.14,32.52Z"/>
  <path class="cls-5" d="M565.3,336.99c-1.58-.71-3.33.59-3.12,2.31l3.07,24.58c.15,1.2.91,2.23,2.02,2.72l48.37,21.58-19.09,14.36c-.85.64-1.29,1.68-1.16,2.74l3.26,26.12c.15,1.16,1.49,1.73,2.43,1.03l41.3-31.06c.71-.53,1.08-1.41.97-2.29l-3.45-27.62c-.11-.86-.66-1.6-1.45-1.96l-73.14-32.52Z"/>
  <path class="cls-3" d="M724,433.45c1.58.71,3.33-.59,3.12-2.31l-3.07-24.58c-.15-1.2-.91-2.23-2.02-2.72l-48.37-21.58,19.09-14.36c.85-.64,1.29-1.68,1.16-2.74l-3.26-26.12c-.15-1.16-1.49-1.73-2.43-1.03l-41.3,31.06c-.71.53-1.08,1.41-.97,2.29l3.45,27.62c.11.86.66,1.6,1.45,1.96l73.14,32.52Z"/>
  <path class="cls-5" d="M704.5,336.81c-1.58-.71-3.33.59-3.12,2.31l3.07,24.58c.15,1.2.91,2.23,2.02,2.72l48.37,21.58-19.09,14.36c-.85.64-1.29,1.68-1.16,2.74l3.26,26.12c.15,1.16,1.49,1.73,2.43,1.03l41.3-31.06c.71-.53,1.08-1.41.97-2.29l-3.45-27.62c-.11-.86-.66-1.6-1.45-1.96l-73.14-32.52Z"/>
  <path class="cls-3" d="M863.2,433.27c1.58.71,3.33-.59,3.12-2.31l-3.07-24.58c-.15-1.2-.91-2.23-2.02-2.72l-48.37-21.58,19.09-14.36c.85-.64,1.29-1.68,1.16-2.74l-3.26-26.12c-.15-1.16-1.49-1.73-2.43-1.03l-41.3,31.06c-.71.53-1.08,1.41-.97,2.29l3.45,27.62c.11.86.66,1.6,1.45,1.96l73.14,32.52Z"/>
  <path class="cls-5" d="M843.62,335.94c-1.58-.71-3.33.59-3.12,2.31l3.07,24.58c.15,1.2.91,2.23,2.02,2.72l48.37,21.58-19.09,14.36c-.85.64-1.29,1.68-1.16,2.74l3.26,26.12c.15,1.16,1.49,1.73,2.43,1.03l41.3-31.06c.71-.53,1.08-1.41.97-2.29l-3.45-27.62c-.11-.86-.66-1.6-1.45-1.96l-73.14-32.52Z"/>
  <path class="cls-3" d="M1002.31,432.39c1.58.71,3.33-.59,3.12-2.31l-3.07-24.58c-.15-1.2-.91-2.23-2.02-2.72l-48.37-21.58,19.09-14.36c.85-.64,1.29-1.68,1.16-2.74l-3.26-26.12c-.15-1.16-1.49-1.73-2.43-1.03l-41.3,31.06c-.71.53-1.08,1.41-.97,2.29l3.45,27.62c.11.86.66,1.6,1.45,1.96l73.14,32.52Z"/>
  <path class="cls-5" d="M982.82,335.76c-1.58-.71-3.33.59-3.12,2.31l3.07,24.58c.15,1.2.91,2.23,2.02,2.72l48.37,21.58-19.09,14.36c-.85.64-1.29,1.68-1.16,2.74l3.26,26.12c.15,1.16,1.49,1.73,2.43,1.03l41.3-31.06c.71-.53,1.08-1.41.97-2.29l-3.45-27.62c-.11-.86-.66-1.6-1.45-1.96l-73.14-32.52Z"/>
  <path class="cls-3" d="M1141.51,432.22c1.58.71,3.33-.59,3.12-2.31l-3.07-24.58c-.15-1.2-.91-2.23-2.02-2.72l-48.37-21.58,19.09-14.36c.85-.64,1.29-1.68,1.16-2.74l-3.26-26.12c-.15-1.16-1.49-1.73-2.43-1.03l-41.3,31.06c-.71.53-1.08,1.41-.97,2.29l3.45,27.62c.11.86.66,1.6,1.45,1.96l73.14,32.52Z"/>
  <path class="cls-5" d="M1121.93,334.88c-1.58-.71-3.33.59-3.12,2.31l3.07,24.58c.15,1.2.91,2.23,2.02,2.72l48.37,21.58-19.09,14.36c-.85.64-1.29,1.68-1.16,2.74l3.26,26.12c.15,1.16,1.49,1.73,2.43,1.03l41.3-31.06c.71-.53,1.08-1.41.97-2.29l-3.45-27.62c-.11-.86-.66-1.6-1.45-1.96l-73.14-32.52Z"/>
  <path class="cls-3" d="M1280.62,431.34c1.58.71,3.33-.59,3.12-2.31l-3.07-24.58c-.15-1.2-.91-2.23-2.02-2.72l-48.37-21.58,19.09-14.36c.85-.64,1.29-1.68,1.16-2.74l-3.26-26.12c-.15-1.16-1.49-1.73-2.43-1.03l-41.3,31.06c-.71.53-1.08,1.41-.97,2.29l3.45,27.62c.11.86.66,1.6,1.45,1.96l73.14,32.52Z"/>
  <path class="cls-5" d="M1261.13,334.71c-1.58-.71-3.33.59-3.12,2.31l3.07,24.58c.15,1.2.91,2.23,2.02,2.72l48.37,21.58-19.09,14.36c-.85.64-1.29,1.68-1.16,2.74l3.26,26.12c.15,1.16,1.49,1.73,2.43,1.03l41.3-31.06c.71-.53,1.08-1.41.97-2.29l-3.45-27.62c-.11-.86-.66-1.6-1.45-1.96l-73.14-32.52Z"/>
  <path class="cls-3" d="M1419.82,431.17c1.58.71,3.33-.59,3.12-2.31l-3.07-24.58c-.15-1.2-.91-2.23-2.02-2.72l-48.37-21.58,19.09-14.36c.85-.64,1.29-1.68,1.16-2.74l-3.26-26.12c-.15-1.16-1.49-1.73-2.43-1.03l-41.3,31.06c-.71.53-1.08,1.41-.97,2.29l3.45,27.62c.11.86.66,1.6,1.45,1.96l73.14,32.52Z"/>
  <path class="cls-5" d="M1400.24,333.83c-1.58-.71-3.33.59-3.12,2.31l3.07,24.58c.15,1.2.91,2.23,2.02,2.72l48.37,21.58-19.09,14.36c-.85.64-1.29,1.68-1.16,2.74l3.26,26.12c.15,1.16,1.49,1.73,2.43,1.03l41.3-31.06c.71-.53,1.08-1.41.97-2.29l-3.45-27.62c-.11-.86-.66-1.6-1.45-1.96l-73.14-32.52Z"/>
  <path class="cls-3" d="M1558.93,430.29c1.58.71,3.33-.59,3.12-2.31l-3.07-24.58c-.15-1.2-.91-2.23-2.02-2.72l-48.37-21.58,19.09-14.36c.85-.64,1.29-1.68,1.16-2.74l-3.26-26.12c-.15-1.16-1.49-1.73-2.43-1.03l-41.3,31.06c-.71.53-1.08,1.41-.97,2.29l3.45,27.62c.11.86.66,1.6,1.45,1.96l73.14,32.52Z"/>
  <path class="cls-5" d="M1539.44,333.66c-1.58-.71-3.33.59-3.12,2.31l3.07,24.58c.15,1.2.91,2.23,2.02,2.72l48.37,21.58-19.09,14.36c-.85.64-1.29,1.68-1.16,2.74l3.26,26.12c.15,1.16,1.49,1.73,2.43,1.03l41.3-31.06c.71-.53,1.08-1.41.97-2.29l-3.45-27.62c-.11-.86-.66-1.6-1.45-1.96l-73.14-32.52Z"/>
  <path class="cls-3" d="M1698.13,430.12c1.58.71,3.33-.59,3.12-2.31l-3.07-24.58c-.15-1.2-.91-2.23-2.02-2.72l-48.37-21.58,19.09-14.36c.85-.64,1.29-1.68,1.16-2.74l-3.26-26.12c-.15-1.16-1.49-1.73-2.43-1.03l-41.3,31.06c-.71.53-1.08,1.41-.97,2.29l3.45,27.62c.11.86.66,1.6,1.45,1.96l73.14,32.52Z"/>
  <path class="cls-5" d="M1678.55,332.78c-1.58-.71-3.33.59-3.12,2.31l3.07,24.58c.15,1.2.91,2.23,2.02,2.72l48.37,21.58-19.09,14.36c-.85.64-1.29,1.68-1.16,2.74l3.26,26.12c.15,1.16,1.49,1.73,2.43,1.03l41.3-31.06c.71-.53,1.08-1.41.97-2.29l-3.45-27.62c-.11-.86-.66-1.6-1.45-1.96l-73.14-32.52Z"/>
  <path class="cls-3" d="M264.53,512.3c1.58.71,3.33-.59,3.12-2.31l-3.07-24.58c-.15-1.2-.91-2.23-2.02-2.72l-48.37-21.58,19.09-14.36c.85-.64,1.29-1.68,1.16-2.74l-3.26-26.12c-.15-1.16-1.49-1.73-2.43-1.03l-41.3,31.06c-.71.53-1.08,1.41-.97,2.29l3.45,27.62c.11.86.66,1.6,1.45,1.96l73.14,32.52Z"/>
  <path class="cls-5" d="M244.96,414.97c-1.58-.71-3.33.59-3.12,2.31l3.07,24.58c.15,1.2.91,2.23,2.02,2.72l48.37,21.58-19.09,14.36c-.85.64-1.29,1.68-1.16,2.74l3.26,26.12c.15,1.16,1.49,1.73,2.43,1.03l41.3-31.06c.71-.53,1.08-1.41.97-2.29l-3.45-27.62c-.11-.86-.66-1.6-1.45-1.96l-73.14-32.52Z"/>
  <path class="cls-3" d="M403.65,511.43c1.58.71,3.33-.59,3.12-2.31l-3.07-24.58c-.15-1.2-.91-2.23-2.02-2.72l-48.37-21.58,19.09-14.36c.85-.64,1.29-1.68,1.16-2.74l-3.26-26.12c-.15-1.16-1.49-1.73-2.43-1.03l-41.3,31.06c-.71.53-1.08,1.41-.97,2.29l3.45,27.62c.11.86.66,1.6,1.45,1.96l73.14,32.52Z"/>
  <path class="cls-5" d="M384.15,414.79c-1.58-.71-3.33.59-3.12,2.31l3.07,24.58c.15,1.2.91,2.23,2.02,2.72l48.37,21.58-19.09,14.36c-.85.64-1.29,1.68-1.16,2.74l3.26,26.12c.15,1.16,1.49,1.73,2.43,1.03l41.3-31.06c.71-.53,1.08-1.41.97-2.29l-3.45-27.62c-.11-.86-.66-1.6-1.45-1.96l-73.14-32.52Z"/>
  <path class="cls-3" d="M542.85,511.25c1.58.71,3.33-.59,3.12-2.31l-3.07-24.58c-.15-1.2-.91-2.23-2.02-2.72l-48.37-21.58,19.09-14.36c.85-.64,1.29-1.68,1.16-2.74l-3.26-26.12c-.15-1.16-1.49-1.73-2.43-1.03l-41.3,31.06c-.71.53-1.08,1.41-.97,2.29l3.45,27.62c.11.86.66,1.6,1.45,1.96l73.14,32.52Z"/>
  <path class="cls-5" d="M523.27,413.92c-1.58-.71-3.33.59-3.12,2.31l3.07,24.58c.15,1.2.91,2.23,2.02,2.72l48.37,21.58-19.09,14.36c-.85.64-1.29,1.68-1.16,2.74l3.26,26.12c.15,1.16,1.49,1.73,2.43,1.03l41.3-31.06c.71-.53,1.08-1.41.97-2.29l-3.45-27.62c-.11-.86-.66-1.6-1.45-1.96l-73.14-32.52Z"/>
  <path class="cls-3" d="M681.96,510.37c1.58.71,3.33-.59,3.12-2.31l-3.07-24.58c-.15-1.2-.91-2.23-2.02-2.72l-48.37-21.58,19.09-14.36c.85-.64,1.29-1.68,1.16-2.74l-3.26-26.12c-.15-1.16-1.49-1.73-2.43-1.03l-41.3,31.06c-.71.53-1.08,1.41-.97,2.29l3.45,27.62c.11.86.66,1.6,1.45,1.96l73.14,32.52Z"/>
  <path class="cls-5" d="M662.47,413.74c-1.58-.71-3.33.59-3.12,2.31l3.07,24.58c.15,1.2.91,2.23,2.02,2.72l48.37,21.58-19.09,14.36c-.85.64-1.29,1.68-1.16,2.74l3.26,26.12c.15,1.16,1.49,1.73,2.43,1.03l41.3-31.06c.71-.53,1.08-1.41.97-2.29l-3.45-27.62c-.11-.86-.66-1.6-1.45-1.96l-73.14-32.52Z"/>
  <path class="cls-3" d="M821.16,510.2c1.58.71,3.33-.59,3.12-2.31l-3.07-24.58c-.15-1.2-.91-2.23-2.02-2.72l-48.37-21.58,19.09-14.36c.85-.64,1.29-1.68,1.16-2.74l-3.26-26.12c-.15-1.16-1.49-1.73-2.43-1.03l-41.3,31.06c-.71.53-1.08,1.41-.97,2.29l3.45,27.62c.11.86.66,1.6,1.45,1.96l73.14,32.52Z"/>
  <path class="cls-5" d="M801.58,412.86c-1.58-.71-3.33.59-3.12,2.31l3.07,24.58c.15,1.2.91,2.23,2.02,2.72l48.37,21.58-19.09,14.36c-.85.64-1.29,1.68-1.16,2.74l3.26,26.12c.15,1.16,1.49,1.73,2.43,1.03l41.3-31.06c.71-.53,1.08-1.41.97-2.29l-3.45-27.62c-.11-.86-.66-1.6-1.45-1.96l-73.14-32.52Z"/>
  <path class="cls-3" d="M960.27,509.32c1.58.71,3.33-.59,3.12-2.31l-3.07-24.58c-.15-1.2-.91-2.23-2.02-2.72l-48.37-21.58,19.09-14.36c.85-.64,1.29-1.68,1.16-2.74l-3.26-26.12c-.15-1.16-1.49-1.73-2.43-1.03l-41.3,31.06c-.71.53-1.08,1.41-.97,2.29l3.45,27.62c.11.86.66,1.6,1.45,1.96l73.14,32.52Z"/>
  <path class="cls-5" d="M940.78,412.69c-1.58-.71-3.33.59-3.12,2.31l3.07,24.58c.15,1.2.91,2.23,2.02,2.72l48.37,21.58-19.09,14.36c-.85.64-1.29,1.68-1.16,2.74l3.26,26.12c.15,1.16,1.49,1.73,2.43,1.03l41.3-31.06c.71-.53,1.08-1.41.97-2.29l-3.45-27.62c-.11-.86-.66-1.6-1.45-1.96l-73.14-32.52Z"/>
  <path class="cls-3" d="M1099.47,509.15c1.58.71,3.33-.59,3.12-2.31l-3.07-24.58c-.15-1.2-.91-2.23-2.02-2.72l-48.37-21.58,19.09-14.36c.85-.64,1.29-1.68,1.16-2.74l-3.26-26.12c-.15-1.16-1.49-1.73-2.43-1.03l-41.3,31.06c-.71.53-1.08,1.41-.97,2.29l3.45,27.62c.11.86.66,1.6,1.45,1.96l73.14,32.52Z"/>
  <path class="cls-5" d="M1079.89,411.81c-1.58-.71-3.33.59-3.12,2.31l3.07,24.58c.15,1.2.91,2.23,2.02,2.72l48.37,21.58-19.09,14.36c-.85.64-1.29,1.68-1.16,2.74l3.26,26.12c.15,1.16,1.49,1.73,2.43,1.03l41.3-31.06c.71-.53,1.08-1.41.97-2.29l-3.45-27.62c-.11-.86-.66-1.6-1.45-1.96l-73.14-32.52Z"/>
  <path class="cls-3" d="M1238.58,508.27c1.58.71,3.33-.59,3.12-2.31l-3.07-24.58c-.15-1.2-.91-2.23-2.02-2.72l-48.37-21.58,19.09-14.36c.85-.64,1.29-1.68,1.16-2.74l-3.26-26.12c-.15-1.16-1.49-1.73-2.43-1.03l-41.3,31.06c-.71.53-1.08,1.41-.97,2.29l3.45,27.62c.11.86.66,1.6,1.45,1.96l73.14,32.52Z"/>
  <path class="cls-5" d="M1219.09,411.64c-1.58-.71-3.33.59-3.12,2.31l3.07,24.58c.15,1.2.91,2.23,2.02,2.72l48.37,21.58-19.09,14.36c-.85.64-1.29,1.68-1.16,2.74l3.26,26.12c.15,1.16,1.49,1.73,2.43,1.03l41.3-31.06c.71-.53,1.08-1.41.97-2.29l-3.45-27.62c-.11-.86-.66-1.6-1.45-1.96l-73.14-32.52Z"/>
  <path class="cls-3" d="M1377.78,508.1c1.58.71,3.33-.59,3.12-2.31l-3.07-24.58c-.15-1.2-.91-2.23-2.02-2.72l-48.37-21.58,19.09-14.36c.85-.64,1.29-1.68,1.16-2.74l-3.26-26.12c-.15-1.16-1.49-1.73-2.43-1.03l-41.3,31.06c-.71.53-1.08,1.41-.97,2.29l3.45,27.62c.11.86.66,1.6,1.45,1.96l73.14,32.52Z"/>
  <path class="cls-5" d="M1358.2,410.76c-1.58-.71-3.33.59-3.12,2.31l3.07,24.58c.15,1.2.91,2.23,2.02,2.72l48.37,21.58-19.09,14.36c-.85.64-1.29,1.68-1.16,2.74l3.26,26.12c.15,1.16,1.49,1.73,2.43,1.03l41.3-31.06c.71-.53,1.08-1.41.97-2.29l-3.45-27.62c-.11-.86-.66-1.6-1.45-1.96l-73.14-32.52Z"/>
  <path class="cls-3" d="M1516.89,507.22c1.58.71,3.33-.59,3.12-2.31l-3.07-24.58c-.15-1.2-.91-2.23-2.02-2.72l-48.37-21.58,19.09-14.36c.85-.64,1.29-1.68,1.16-2.74l-3.26-26.12c-.15-1.16-1.49-1.73-2.43-1.03l-41.3,31.06c-.71.53-1.08,1.41-.97,2.29l3.45,27.62c.11.86.66,1.6,1.45,1.96l73.14,32.52Z"/>
  <path class="cls-5" d="M1497.4,410.59c-1.58-.71-3.33.59-3.12,2.31l3.07,24.58c.15,1.2.91,2.23,2.02,2.72l48.37,21.58-19.09,14.36c-.85.64-1.29,1.68-1.16,2.74l3.26,26.12c.15,1.16,1.49,1.73,2.43,1.03l41.3-31.06c.71-.53,1.08-1.41.97-2.29l-3.45-27.62c-.11-.86-.66-1.6-1.45-1.96l-73.14-32.52Z"/>
  <path class="cls-3" d="M1656.09,507.04c1.58.71,3.33-.59,3.12-2.31l-3.07-24.58c-.15-1.2-.91-2.23-2.02-2.72l-48.37-21.58,19.09-14.36c.85-.64,1.29-1.68,1.16-2.74l-3.26-26.12c-.15-1.16-1.49-1.73-2.43-1.03l-41.3,31.06c-.71.53-1.08,1.41-.97,2.29l3.45,27.62c.11.86.66,1.6,1.45,1.96l73.14,32.52Z"/>
  <path class="cls-5" d="M1636.51,409.71c-1.58-.71-3.33.59-3.12,2.31l3.07,24.58c.15,1.2.91,2.23,2.02,2.72l48.37,21.58-19.09,14.36c-.85.64-1.29,1.68-1.16,2.74l3.26,26.12c.15,1.16,1.49,1.73,2.43,1.03l41.3-31.06c.71-.53,1.08-1.41.97-2.29l-3.45-27.62c-.11-.86-.66-1.6-1.45-1.96l-73.14-32.52Z"/>
  <path class="cls-3" d="M1795.21,506.17c1.58.71,3.33-.59,3.12-2.31l-3.07-24.58c-.15-1.2-.91-2.23-2.02-2.72l-48.37-21.58,19.09-14.36c.85-.64,1.29-1.68,1.16-2.74l-3.26-26.12c-.15-1.16-1.49-1.73-2.43-1.03l-41.3,31.06c-.71.53-1.08,1.41-.97,2.29l3.45,27.62c.11.86.66,1.6,1.45,1.96l73.14,32.52Z"/>
  <path class="cls-5" d="M195.18,491.95c-1.58-.71-3.33.59-3.12,2.31l3.07,24.58c.15,1.2.91,2.23,2.02,2.72l48.37,21.58-19.09,14.36c-.85.64-1.29,1.68-1.16,2.74l3.26,26.12c.15,1.16,1.49,1.73,2.43,1.03l41.3-31.06c.71-.53,1.08-1.41.97-2.29l-3.45-27.62c-.11-.86-.66-1.6-1.45-1.96l-73.14-32.52Z"/>
  <path class="cls-3" d="M353.87,588.41c1.58.71,3.33-.59,3.12-2.31l-3.07-24.58c-.15-1.2-.91-2.23-2.02-2.72l-48.37-21.58,19.09-14.36c.85-.64,1.29-1.68,1.16-2.74l-3.26-26.12c-.15-1.16-1.49-1.73-2.43-1.03l-41.3,31.06c-.71.53-1.08,1.41-.97,2.29l3.45,27.62c.11.86.66,1.6,1.45,1.96l73.14,32.52Z"/>
  <path class="cls-5" d="M334.29,491.08c-1.58-.71-3.33.59-3.12,2.31l3.07,24.58c.15,1.2.91,2.23,2.02,2.72l48.37,21.58-19.09,14.36c-.85.64-1.29,1.68-1.16,2.74l3.26,26.12c.15,1.16,1.49,1.73,2.43,1.03l41.3-31.06c.71-.53,1.08-1.41.97-2.29l-3.45-27.62c-.11-.86-.66-1.6-1.45-1.96l-73.14-32.52Z"/>
  <path class="cls-3" d="M492.98,587.53c1.58.71,3.33-.59,3.12-2.31l-3.07-24.58c-.15-1.2-.91-2.23-2.02-2.72l-48.37-21.58,19.09-14.36c.85-.64,1.29-1.68,1.16-2.74l-3.26-26.12c-.15-1.16-1.49-1.73-2.43-1.03l-41.3,31.06c-.71.53-1.08,1.41-.97,2.29l3.45,27.62c.11.86.66,1.6,1.45,1.96l73.14,32.52Z"/>
  <path class="cls-5" d="M473.49,490.9c-1.58-.71-3.33.59-3.12,2.31l3.07,24.58c.15,1.2.91,2.23,2.02,2.72l48.37,21.58-19.09,14.36c-.85.64-1.29,1.68-1.16,2.74l3.26,26.12c.15,1.16,1.49,1.73,2.43,1.03l41.3-31.06c.71-.53,1.08-1.41.97-2.29l-3.45-27.62c-.11-.86-.66-1.6-1.45-1.96l-73.14-32.52Z"/>
  <path class="cls-3" d="M632.18,587.36c1.58.71,3.33-.59,3.12-2.31l-3.07-24.58c-.15-1.2-.91-2.23-2.02-2.72l-48.37-21.58,19.09-14.36c.85-.64,1.29-1.68,1.16-2.74l-3.26-26.12c-.15-1.16-1.49-1.73-2.43-1.03l-41.3,31.06c-.71.53-1.08,1.41-.97,2.29l3.45,27.62c.11.86.66,1.6,1.45,1.96l73.14,32.52Z"/>
  <path class="cls-5" d="M612.6,490.03c-1.58-.71-3.33.59-3.12,2.31l3.07,24.58c.15,1.2.91,2.23,2.02,2.72l48.37,21.58-19.09,14.36c-.85.64-1.29,1.68-1.16,2.74l3.26,26.12c.15,1.16,1.49,1.73,2.43,1.03l41.3-31.06c.71-.53,1.08-1.41.97-2.29l-3.45-27.62c-.11-.86-.66-1.6-1.45-1.96l-73.14-32.52Z"/>
  <path class="cls-3" d="M771.3,586.48c1.58.71,3.33-.59,3.12-2.31l-3.07-24.58c-.15-1.2-.91-2.23-2.02-2.72l-48.37-21.58,19.09-14.36c.85-.64,1.29-1.68,1.16-2.74l-3.26-26.12c-.15-1.16-1.49-1.73-2.43-1.03l-41.3,31.06c-.71.53-1.08,1.41-.97,2.29l3.45,27.62c.11.86.66,1.6,1.45,1.96l73.14,32.52Z"/>
  <path class="cls-5" d="M751.8,489.85c-1.58-.71-3.33.59-3.12,2.31l3.07,24.58c.15,1.2.91,2.23,2.02,2.72l48.37,21.58-19.09,14.36c-.85.64-1.29,1.68-1.16,2.74l3.26,26.12c.15,1.16,1.49,1.73,2.43,1.03l41.3-31.06c.71-.53,1.08-1.41.97-2.29l-3.45-27.62c-.11-.86-.66-1.6-1.45-1.96l-73.14-32.52Z"/>
  <path class="cls-3" d="M910.5,586.31c1.58.71,3.33-.59,3.12-2.31l-3.07-24.58c-.15-1.2-.91-2.23-2.02-2.72l-48.37-21.58,19.09-14.36c.85-.64,1.29-1.68,1.16-2.74l-3.26-26.12c-.15-1.16-1.49-1.73-2.43-1.03l-41.3,31.06c-.71.53-1.08,1.41-.97,2.29l3.45,27.62c.11.86.66,1.6,1.45,1.96l73.14,32.52Z"/>
  <path class="cls-5" d="M890.92,488.97c-1.58-.71-3.33.59-3.12,2.31l3.07,24.58c.15,1.2.91,2.23,2.02,2.72l48.37,21.58-19.09,14.36c-.85.64-1.29,1.68-1.16,2.74l3.26,26.12c.15,1.16,1.49,1.73,2.43,1.03l41.3-31.06c.71-.53,1.08-1.41.97-2.29l-3.45-27.62c-.11-.86-.66-1.6-1.45-1.96l-73.14-32.52Z"/>
  <path class="cls-3" d="M1049.61,585.43c1.58.71,3.33-.59,3.12-2.31l-3.07-24.58c-.15-1.2-.91-2.23-2.02-2.72l-48.37-21.58,19.09-14.36c.85-.64,1.29-1.68,1.16-2.74l-3.26-26.12c-.15-1.16-1.49-1.73-2.43-1.03l-41.3,31.06c-.71.53-1.08,1.41-.97,2.29l3.45,27.62c.11.86.66,1.6,1.45,1.96l73.14,32.52Z"/>
  <path class="cls-5" d="M1030.12,488.8c-1.58-.71-3.33.59-3.12,2.31l3.07,24.58c.15,1.2.91,2.23,2.02,2.72l48.37,21.58-19.09,14.36c-.85.64-1.29,1.68-1.16,2.74l3.26,26.12c.15,1.16,1.49,1.73,2.43,1.03l41.3-31.06c.71-.53,1.08-1.41.97-2.29l-3.45-27.62c-.11-.86-.66-1.6-1.45-1.96l-73.14-32.52Z"/>
  <path class="cls-3" d="M1188.81,585.26c1.58.71,3.33-.59,3.12-2.31l-3.07-24.58c-.15-1.2-.91-2.23-2.02-2.72l-48.37-21.58,19.09-14.36c.85-.64,1.29-1.68,1.16-2.74l-3.26-26.12c-.15-1.16-1.49-1.73-2.43-1.03l-41.3,31.06c-.71.53-1.08,1.41-.97,2.29l3.45,27.62c.11.86.66,1.6,1.45,1.96l73.14,32.52Z"/>
  <path class="cls-5" d="M1169.23,487.92c-1.58-.71-3.33.59-3.12,2.31l3.07,24.58c.15,1.2.91,2.23,2.02,2.72l48.37,21.58-19.09,14.36c-.85.64-1.29,1.68-1.16,2.74l3.26,26.12c.15,1.16,1.49,1.73,2.43,1.03l41.3-31.06c.71-.53,1.08-1.41.97-2.29l-3.45-27.62c-.11-.86-.66-1.6-1.45-1.96l-73.14-32.52Z"/>
  <path class="cls-3" d="M1327.92,584.38c1.58.71,3.33-.59,3.12-2.31l-3.07-24.58c-.15-1.2-.91-2.23-2.02-2.72l-48.37-21.58,19.09-14.36c.85-.64,1.29-1.68,1.16-2.74l-3.26-26.12c-.15-1.16-1.49-1.73-2.43-1.03l-41.3,31.06c-.71.53-1.08,1.41-.97,2.29l3.45,27.62c.11.86.66,1.6,1.45,1.96l73.14,32.52Z"/>
  <path class="cls-5" d="M1308.43,487.75c-1.58-.71-3.33.59-3.12,2.31l3.07,24.58c.15,1.2.91,2.23,2.02,2.72l48.37,21.58-19.09,14.36c-.85.64-1.29,1.68-1.16,2.74l3.26,26.12c.15,1.16,1.49,1.73,2.43,1.03l41.3-31.06c.71-.53,1.08-1.41.97-2.29l-3.45-27.62c-.11-.86-.66-1.6-1.45-1.96l-73.14-32.52Z"/>
  <path class="cls-3" d="M1467.12,584.2c1.58.71,3.33-.59,3.12-2.31l-3.07-24.58c-.15-1.2-.91-2.23-2.02-2.72l-48.37-21.58,19.09-14.36c.85-.64,1.29-1.68,1.16-2.74l-3.26-26.12c-.15-1.16-1.49-1.73-2.43-1.03l-41.3,31.06c-.71.53-1.08,1.41-.97,2.29l3.45,27.62c.11.86.66,1.6,1.45,1.96l73.14,32.52Z"/>
  <path class="cls-5" d="M1447.54,486.87c-1.58-.71-3.33.59-3.12,2.31l3.07,24.58c.15,1.2.91,2.23,2.02,2.72l48.37,21.58-19.09,14.36c-.85.64-1.29,1.68-1.16,2.74l3.26,26.12c.15,1.16,1.49,1.73,2.43,1.03l41.3-31.06c.71-.53,1.08-1.41.97-2.29l-3.45-27.62c-.11-.86-.66-1.6-1.45-1.96l-73.14-32.52Z"/>
  <path class="cls-3" d="M1606.23,583.33c1.58.71,3.33-.59,3.12-2.31l-3.07-24.58c-.15-1.2-.91-2.23-2.02-2.72l-48.37-21.58,19.09-14.36c.85-.64,1.29-1.68,1.16-2.74l-3.26-26.12c-.15-1.16-1.49-1.73-2.43-1.03l-41.3,31.06c-.71.53-1.08,1.41-.97,2.29l3.45,27.62c.11.86.66,1.6,1.45,1.96l73.14,32.52Z"/>
  <path class="cls-5" d="M1586.74,486.69c-1.58-.71-3.33.59-3.12,2.31l3.07,24.58c.15,1.2.91,2.23,2.02,2.72l48.37,21.58-19.09,14.36c-.85.64-1.29,1.68-1.16,2.74l3.26,26.12c.15,1.16,1.49,1.73,2.43,1.03l41.3-31.06c.71-.53,1.08-1.41.97-2.29l-3.45-27.62c-.11-.86-.66-1.6-1.45-1.96l-73.14-32.52Z"/>
  <path class="cls-3" d="M1745.43,583.15c1.58.71,3.33-.59,3.12-2.31l-3.07-24.58c-.15-1.2-.91-2.23-2.02-2.72l-48.37-21.58,19.09-14.36c.85-.64,1.29-1.68,1.16-2.74l-3.26-26.12c-.15-1.16-1.49-1.73-2.43-1.03l-41.3,31.06c-.71.53-1.08,1.41-.97,2.29l3.45,27.62c.11.86.66,1.6,1.45,1.96l73.14,32.52Z"/>
  <path class="cls-5" d="M1725.85,485.82c-1.58-.71-3.33.59-3.12,2.31l3.07,24.58c.15,1.2.91,2.23,2.02,2.72l48.37,21.58-19.09,14.36c-.85.64-1.29,1.68-1.16,2.74l3.26,26.12c.15,1.16,1.49,1.73,2.43,1.03l41.3-31.06c.71-.53,1.08-1.41.97-2.29l-3.45-27.62c-.11-.86-.66-1.6-1.45-1.96l-73.14-32.52Z"/>
  <path class="cls-5" d="M153.14,568.88c-1.58-.71-3.33.59-3.12,2.31l3.07,24.58c.15,1.2.91,2.23,2.02,2.72l48.37,21.58-19.09,14.36c-.85.64-1.29,1.68-1.16,2.74l3.26,26.12c.15,1.16,1.49,1.73,2.43,1.03l41.3-31.06c.71-.53,1.08-1.41.97-2.29l-3.45-27.62c-.11-.86-.66-1.6-1.45-1.96l-73.14-32.52Z"/>
  <path class="cls-3" d="M311.83,665.34c1.58.71,3.33-.59,3.12-2.31l-3.07-24.58c-.15-1.2-.91-2.23-2.02-2.72l-48.37-21.58,19.09-14.36c.85-.64,1.29-1.68,1.16-2.74l-3.26-26.12c-.15-1.16-1.49-1.73-2.43-1.03l-41.3,31.06c-.71.53-1.08,1.41-.97,2.29l3.45,27.62c.11.86.66,1.6,1.45,1.96l73.14,32.52Z"/>
  <path class="cls-5" d="M292.26,568.01c-1.58-.71-3.33.59-3.12,2.31l3.07,24.58c.15,1.2.91,2.23,2.02,2.72l48.37,21.58-19.09,14.36c-.85.64-1.29,1.68-1.16,2.74l3.26,26.12c.15,1.16,1.49,1.73,2.43,1.03l41.3-31.06c.71-.53,1.08-1.41.97-2.29l-3.45-27.62c-.11-.86-.66-1.6-1.45-1.96l-73.14-32.52Z"/>
  <path class="cls-3" d="M450.95,664.46c1.58.71,3.33-.59,3.12-2.31l-3.07-24.58c-.15-1.2-.91-2.23-2.02-2.72l-48.37-21.58,19.09-14.36c.85-.64,1.29-1.68,1.16-2.74l-3.26-26.12c-.15-1.16-1.49-1.73-2.43-1.03l-41.3,31.06c-.71.53-1.08,1.41-.97,2.29l3.45,27.62c.11.86.66,1.6,1.45,1.96l73.14,32.52Z"/>
  <path class="cls-5" d="M431.46,567.83c-1.58-.71-3.33.59-3.12,2.31l3.07,24.58c.15,1.2.91,2.23,2.02,2.72l48.37,21.58-19.09,14.36c-.85.64-1.29,1.68-1.16,2.74l3.26,26.12c.15,1.16,1.49,1.73,2.43,1.03l41.3-31.06c.71-.53,1.08-1.41.97-2.29l-3.45-27.62c-.11-.86-.66-1.6-1.45-1.96l-73.14-32.52Z"/>
  <path class="cls-3" d="M590.15,664.29c1.58.71,3.33-.59,3.12-2.31l-3.07-24.58c-.15-1.2-.91-2.23-2.02-2.72l-48.37-21.58,19.09-14.36c.85-.64,1.29-1.68,1.16-2.74l-3.26-26.12c-.15-1.16-1.49-1.73-2.43-1.03l-41.3,31.06c-.71.53-1.08,1.41-.97,2.29l3.45,27.62c.11.86.66,1.6,1.45,1.96l73.14,32.52Z"/>
  <path class="cls-5" d="M570.57,566.95c-1.58-.71-3.33.59-3.12,2.31l3.07,24.58c.15,1.2.91,2.23,2.02,2.72l48.37,21.58-19.09,14.36c-.85.64-1.29,1.68-1.16,2.74l3.26,26.12c.15,1.16,1.49,1.73,2.43,1.03l41.3-31.06c.71-.53,1.08-1.41.97-2.29l-3.45-27.62c-.11-.86-.66-1.6-1.45-1.96l-73.14-32.52Z"/>
  <path class="cls-3" d="M729.26,663.41c1.58.71,3.33-.59,3.12-2.31l-3.07-24.58c-.15-1.2-.91-2.23-2.02-2.72l-48.37-21.58,19.09-14.36c.85-.64,1.29-1.68,1.16-2.74l-3.26-26.12c-.15-1.16-1.49-1.73-2.43-1.03l-41.3,31.06c-.71.53-1.08,1.41-.97,2.29l3.45,27.62c.11.86.66,1.6,1.45,1.96l73.14,32.52Z"/>
  <path class="cls-5" d="M709.77,566.78c-1.58-.71-3.33.59-3.12,2.31l3.07,24.58c.15,1.2.91,2.23,2.02,2.72l48.37,21.58-19.09,14.36c-.85.64-1.29,1.68-1.16,2.74l3.26,26.12c.15,1.16,1.49,1.73,2.43,1.03l41.3-31.06c.71-.53,1.08-1.41.97-2.29l-3.45-27.62c-.11-.86-.66-1.6-1.45-1.96l-73.14-32.52Z"/>
  <path class="cls-3" d="M868.46,663.24c1.58.71,3.33-.59,3.12-2.31l-3.07-24.58c-.15-1.2-.91-2.23-2.02-2.72l-48.37-21.58,19.09-14.36c.85-.64,1.29-1.68,1.16-2.74l-3.26-26.12c-.15-1.16-1.49-1.73-2.43-1.03l-41.3,31.06c-.71.53-1.08,1.41-.97,2.29l3.45,27.62c.11.86.66,1.6,1.45,1.96l73.14,32.52Z"/>
  <path class="cls-5" d="M848.88,565.9c-1.58-.71-3.33.59-3.12,2.31l3.07,24.58c.15,1.2.91,2.23,2.02,2.72l48.37,21.58-19.09,14.36c-.85.64-1.29,1.68-1.16,2.74l3.26,26.12c.15,1.16,1.49,1.73,2.43,1.03l41.3-31.06c.71-.53,1.08-1.41.97-2.29l-3.45-27.62c-.11-.86-.66-1.6-1.45-1.96l-73.14-32.52Z"/>
  <path class="cls-3" d="M1007.57,662.36c1.58.71,3.33-.59,3.12-2.31l-3.07-24.58c-.15-1.2-.91-2.23-2.02-2.72l-48.37-21.58,19.09-14.36c.85-.64,1.29-1.68,1.16-2.74l-3.26-26.12c-.15-1.16-1.49-1.73-2.43-1.03l-41.3,31.06c-.71.53-1.08,1.41-.97,2.29l3.45,27.62c.11.86.66,1.6,1.45,1.96l73.14,32.52Z"/>
  <path class="cls-5" d="M988.08,565.73c-1.58-.71-3.33.59-3.12,2.31l3.07,24.58c.15,1.2.91,2.23,2.02,2.72l48.37,21.58-19.09,14.36c-.85.64-1.29,1.68-1.16,2.74l3.26,26.12c.15,1.16,1.49,1.73,2.43,1.03l41.3-31.06c.71-.53,1.08-1.41.97-2.29l-3.45-27.62c-.11-.86-.66-1.6-1.45-1.96l-73.14-32.52Z"/>
  <path class="cls-3" d="M1146.77,662.18c1.58.71,3.33-.59,3.12-2.31l-3.07-24.58c-.15-1.2-.91-2.23-2.02-2.72l-48.37-21.58,19.09-14.36c.85-.64,1.29-1.68,1.16-2.74l-3.26-26.12c-.15-1.16-1.49-1.73-2.43-1.03l-41.3,31.06c-.71.53-1.08,1.41-.97,2.29l3.45,27.62c.11.86.66,1.6,1.45,1.96l73.14,32.52Z"/>
  <path class="cls-5" d="M1127.19,564.85c-1.58-.71-3.33.59-3.12,2.31l3.07,24.58c.15,1.2.91,2.23,2.02,2.72l48.37,21.58-19.09,14.36c-.85.64-1.29,1.68-1.16,2.74l3.26,26.12c.15,1.16,1.49,1.73,2.43,1.03l41.3-31.06c.71-.53,1.08-1.41.97-2.29l-3.45-27.62c-.11-.86-.66-1.6-1.45-1.96l-73.14-32.52Z"/>
  <path class="cls-3" d="M1285.88,661.31c1.58.71,3.33-.59,3.12-2.31l-3.07-24.58c-.15-1.2-.91-2.23-2.02-2.72l-48.37-21.58,19.09-14.36c.85-.64,1.29-1.68,1.16-2.74l-3.26-26.12c-.15-1.16-1.49-1.73-2.43-1.03l-41.3,31.06c-.71.53-1.08,1.41-.97,2.29l3.45,27.62c.11.86.66,1.6,1.45,1.96l73.14,32.52Z"/>
  <path class="cls-5" d="M1266.39,564.68c-1.58-.71-3.33.59-3.12,2.31l3.07,24.58c.15,1.2.91,2.23,2.02,2.72l48.37,21.58-19.09,14.36c-.85.64-1.29,1.68-1.16,2.74l3.26,26.12c.15,1.16,1.49,1.73,2.43,1.03l41.3-31.06c.71-.53,1.08-1.41.97-2.29l-3.45-27.62c-.11-.86-.66-1.6-1.45-1.96l-73.14-32.52Z"/>
  <path class="cls-3" d="M1425.08,661.13c1.58.71,3.33-.59,3.12-2.31l-3.07-24.58c-.15-1.2-.91-2.23-2.02-2.72l-48.37-21.58,19.09-14.36c.85-.64,1.29-1.68,1.16-2.74l-3.26-26.12c-.15-1.16-1.49-1.73-2.43-1.03l-41.3,31.06c-.71.53-1.08,1.41-.97,2.29l3.45,27.62c.11.86.66,1.6,1.45,1.96l73.14,32.52Z"/>
  <path class="cls-5" d="M1405.5,563.8c-1.58-.71-3.33.59-3.12,2.31l3.07,24.58c.15,1.2.91,2.23,2.02,2.72l48.37,21.58-19.09,14.36c-.85.64-1.29,1.68-1.16,2.74l3.26,26.12c.15,1.16,1.49,1.73,2.43,1.03l41.3-31.06c.71-.53,1.08-1.41.97-2.29l-3.45-27.62c-.11-.86-.66-1.6-1.45-1.96l-73.14-32.52Z"/>
  <path class="cls-3" d="M1564.19,660.26c1.58.71,3.33-.59,3.12-2.31l-3.07-24.58c-.15-1.2-.91-2.23-2.02-2.72l-48.37-21.58,19.09-14.36c.85-.64,1.29-1.68,1.16-2.74l-3.26-26.12c-.15-1.16-1.49-1.73-2.43-1.03l-41.3,31.06c-.71.53-1.08,1.41-.97,2.29l3.45,27.62c.11.86.66,1.6,1.45,1.96l73.14,32.52Z"/>
  <path class="cls-5" d="M1544.7,563.62c-1.58-.71-3.33.59-3.12,2.31l3.07,24.58c.15,1.2.91,2.23,2.02,2.72l48.37,21.58-19.09,14.36c-.85.64-1.29,1.68-1.16,2.74l3.26,26.12c.15,1.16,1.49,1.73,2.43,1.03l41.3-31.06c.71-.53,1.08-1.41.97-2.29l-3.45-27.62c-.11-.86-.66-1.6-1.45-1.96l-73.14-32.52Z"/>
  <path class="cls-3" d="M1703.39,660.08c1.58.71,3.33-.59,3.12-2.31l-3.07-24.58c-.15-1.2-.91-2.23-2.02-2.72l-48.37-21.58,19.09-14.36c.85-.64,1.29-1.68,1.16-2.74l-3.26-26.12c-.15-1.16-1.49-1.73-2.43-1.03l-41.3,31.06c-.71.53-1.08,1.41-.97,2.29l3.45,27.62c.11.86.66,1.6,1.45,1.96l73.14,32.52Z"/>
  <path class="cls-5" d="M1683.81,562.75c-1.58-.71-3.33.59-3.12,2.31l3.07,24.58c.15,1.2.91,2.23,2.02,2.72l48.37,21.58-19.09,14.36c-.85.64-1.29,1.68-1.16,2.74l3.26,26.12c.15,1.16,1.49,1.73,2.43,1.03l41.3-31.06c.71-.53,1.08-1.41.97-2.29l-3.45-27.62c-.11-.86-.66-1.6-1.45-1.96l-73.14-32.52Z"/>
  <path class="cls-3" d="M262.31,742.58c1.58.71,3.33-.59,3.12-2.31l-3.07-24.58c-.15-1.2-.91-2.23-2.02-2.72l-48.37-21.58,19.09-14.36c.85-.64,1.29-1.68,1.16-2.74l-3.26-26.12c-.15-1.16-1.49-1.73-2.43-1.03l-41.3,31.06c-.71.53-1.08,1.41-.97,2.29l3.45,27.62c.11.86.66,1.6,1.45,1.96l73.14,32.52Z"/>
  <path class="cls-5" d="M242.73,645.25c-1.58-.71-3.33.59-3.12,2.31l3.07,24.58c.15,1.2.91,2.23,2.02,2.72l48.37,21.58-19.09,14.36c-.85.64-1.29,1.68-1.16,2.74l3.26,26.12c.15,1.16,1.49,1.73,2.43,1.03l41.3-31.06c.71-.53,1.08-1.41.97-2.29l-3.45-27.62c-.11-.86-.66-1.6-1.45-1.96l-73.14-32.52Z"/>
  <path class="cls-3" d="M401.43,741.71c1.58.71,3.33-.59,3.12-2.31l-3.07-24.58c-.15-1.2-.91-2.23-2.02-2.72l-48.37-21.58,19.09-14.36c.85-.64,1.29-1.68,1.16-2.74l-3.26-26.12c-.15-1.16-1.49-1.73-2.43-1.03l-41.3,31.06c-.71.53-1.08,1.41-.97,2.29l3.45,27.62c.11.86.66,1.6,1.45,1.96l73.14,32.52Z"/>
  <path class="cls-5" d="M381.93,645.08c-1.58-.71-3.33.59-3.12,2.31l3.07,24.58c.15,1.2.91,2.23,2.02,2.72l48.37,21.58-19.09,14.36c-.85.64-1.29,1.68-1.16,2.74l3.26,26.12c.15,1.16,1.49,1.73,2.43,1.03l41.3-31.06c.71-.53,1.08-1.41.97-2.29l-3.45-27.62c-.11-.86-.66-1.6-1.45-1.96l-73.14-32.52Z"/>
  <path class="cls-3" d="M540.63,741.53c1.58.71,3.33-.59,3.12-2.31l-3.07-24.58c-.15-1.2-.91-2.23-2.02-2.72l-48.37-21.58,19.09-14.36c.85-.64,1.29-1.68,1.16-2.74l-3.26-26.12c-.15-1.16-1.49-1.73-2.43-1.03l-41.3,31.06c-.71.53-1.08,1.41-.97,2.29l3.45,27.62c.11.86.66,1.6,1.45,1.96l73.14,32.52Z"/>
  <path class="cls-5" d="M521.05,644.2c-1.58-.71-3.33.59-3.12,2.31l3.07,24.58c.15,1.2.91,2.23,2.02,2.72l48.37,21.58-19.09,14.36c-.85.64-1.29,1.68-1.16,2.74l3.26,26.12c.15,1.16,1.49,1.73,2.43,1.03l41.3-31.06c.71-.53,1.08-1.41.97-2.29l-3.45-27.62c-.11-.86-.66-1.6-1.45-1.96l-73.14-32.52Z"/>
  <path class="cls-3" d="M679.74,740.66c1.58.71,3.33-.59,3.12-2.31l-3.07-24.58c-.15-1.2-.91-2.23-2.02-2.72l-48.37-21.58,19.09-14.36c.85-.64,1.29-1.68,1.16-2.74l-3.26-26.12c-.15-1.16-1.49-1.73-2.43-1.03l-41.3,31.06c-.71.53-1.08,1.41-.97,2.29l3.45,27.62c.11.86.66,1.6,1.45,1.96l73.14,32.52Z"/>
  <path class="cls-5" d="M660.25,644.02c-1.58-.71-3.33.59-3.12,2.31l3.07,24.58c.15,1.2.91,2.23,2.02,2.72l48.37,21.58-19.09,14.36c-.85.64-1.29,1.68-1.16,2.74l3.26,26.12c.15,1.16,1.49,1.73,2.43,1.03l41.3-31.06c.71-.53,1.08-1.41.97-2.29l-3.45-27.62c-.11-.86-.66-1.6-1.45-1.96l-73.14-32.52Z"/>
  <path class="cls-3" d="M818.94,740.48c1.58.71,3.33-.59,3.12-2.31l-3.07-24.58c-.15-1.2-.91-2.23-2.02-2.72l-48.37-21.58,19.09-14.36c.85-.64,1.29-1.68,1.16-2.74l-3.26-26.12c-.15-1.16-1.49-1.73-2.43-1.03l-41.3,31.06c-.71.53-1.08,1.41-.97,2.29l3.45,27.62c.11.86.66,1.6,1.45,1.96l73.14,32.52Z"/>
  <path class="cls-5" d="M799.36,643.15c-1.58-.71-3.33.59-3.12,2.31l3.07,24.58c.15,1.2.91,2.23,2.02,2.72l48.37,21.58-19.09,14.36c-.85.64-1.29,1.68-1.16,2.74l3.26,26.12c.15,1.16,1.49,1.73,2.43,1.03l41.3-31.06c.71-.53,1.08-1.41.97-2.29l-3.45-27.62c-.11-.86-.66-1.6-1.45-1.96l-73.14-32.52Z"/>
  <path class="cls-3" d="M958.05,739.61c1.58.71,3.33-.59,3.12-2.31l-3.07-24.58c-.15-1.2-.91-2.23-2.02-2.72l-48.37-21.58,19.09-14.36c.85-.64,1.29-1.68,1.16-2.74l-3.26-26.12c-.15-1.16-1.49-1.73-2.43-1.03l-41.3,31.06c-.71.53-1.08,1.41-.97,2.29l3.45,27.62c.11.86.66,1.6,1.45,1.96l73.14,32.52Z"/>
  <path class="cls-5" d="M938.56,642.97c-1.58-.71-3.33.59-3.12,2.31l3.07,24.58c.15,1.2.91,2.23,2.02,2.72l48.37,21.58-19.09,14.36c-.85.64-1.29,1.68-1.16,2.74l3.26,26.12c.15,1.16,1.49,1.73,2.43,1.03l41.3-31.06c.71-.53,1.08-1.41.97-2.29l-3.45-27.62c-.11-.86-.66-1.6-1.45-1.96l-73.14-32.52Z"/>
  <path class="cls-3" d="M1097.25,739.43c1.58.71,3.33-.59,3.12-2.31l-3.07-24.58c-.15-1.2-.91-2.23-2.02-2.72l-48.37-21.58,19.09-14.36c.85-.64,1.29-1.68,1.16-2.74l-3.26-26.12c-.15-1.16-1.49-1.73-2.43-1.03l-41.3,31.06c-.71.53-1.08,1.41-.97,2.29l3.45,27.62c.11.86.66,1.6,1.45,1.96l73.14,32.52Z"/>
  <path class="cls-5" d="M1077.67,642.1c-1.58-.71-3.33.59-3.12,2.31l3.07,24.58c.15,1.2.91,2.23,2.02,2.72l48.37,21.58-19.09,14.36c-.85.64-1.29,1.68-1.16,2.74l3.26,26.12c.15,1.16,1.49,1.73,2.43,1.03l41.3-31.06c.71-.53,1.08-1.41.97-2.29l-3.45-27.62c-.11-.86-.66-1.6-1.45-1.96l-73.14-32.52Z"/>
  <path class="cls-3" d="M1236.36,738.55c1.58.71,3.33-.59,3.12-2.31l-3.07-24.58c-.15-1.2-.91-2.23-2.02-2.72l-48.37-21.58,19.09-14.36c.85-.64,1.29-1.68,1.16-2.74l-3.26-26.12c-.15-1.16-1.49-1.73-2.43-1.03l-41.3,31.06c-.71.53-1.08,1.41-.97,2.29l3.45,27.62c.11.86.66,1.6,1.45,1.96l73.14,32.52Z"/>
  <path class="cls-5" d="M1216.87,641.92c-1.58-.71-3.33.59-3.12,2.31l3.07,24.58c.15,1.2.91,2.23,2.02,2.72l48.37,21.58-19.09,14.36c-.85.64-1.29,1.68-1.16,2.74l3.26,26.12c.15,1.16,1.49,1.73,2.43,1.03l41.3-31.06c.71-.53,1.08-1.41.97-2.29l-3.45-27.62c-.11-.86-.66-1.6-1.45-1.96l-73.14-32.52Z"/>
  <path class="cls-3" d="M1375.56,738.38c1.58.71,3.33-.59,3.12-2.31l-3.07-24.58c-.15-1.2-.91-2.23-2.02-2.72l-48.37-21.58,19.09-14.36c.85-.64,1.29-1.68,1.16-2.74l-3.26-26.12c-.15-1.16-1.49-1.73-2.43-1.03l-41.3,31.06c-.71.53-1.08,1.41-.97,2.29l3.45,27.62c.11.86.66,1.6,1.45,1.96l73.14,32.52Z"/>
  <path class="cls-5" d="M1355.98,641.04c-1.58-.71-3.33.59-3.12,2.31l3.07,24.58c.15,1.2.91,2.23,2.02,2.72l48.37,21.58-19.09,14.36c-.85.64-1.29,1.68-1.16,2.74l3.26,26.12c.15,1.16,1.49,1.73,2.43,1.03l41.3-31.06c.71-.53,1.08-1.41.97-2.29l-3.45-27.62c-.11-.86-.66-1.6-1.45-1.96l-73.14-32.52Z"/>
  <path class="cls-3" d="M1514.67,737.5c1.58.71,3.33-.59,3.12-2.31l-3.07-24.58c-.15-1.2-.91-2.23-2.02-2.72l-48.37-21.58,19.09-14.36c.85-.64,1.29-1.68,1.16-2.74l-3.26-26.12c-.15-1.16-1.49-1.73-2.43-1.03l-41.3,31.06c-.71.53-1.08,1.41-.97,2.29l3.45,27.62c.11.86.66,1.6,1.45,1.96l73.14,32.52Z"/>
  <path class="cls-5" d="M1495.18,640.87c-1.58-.71-3.33.59-3.12,2.31l3.07,24.58c.15,1.2.91,2.23,2.02,2.72l48.37,21.58-19.09,14.36c-.85.64-1.29,1.68-1.16,2.74l3.26,26.12c.15,1.16,1.49,1.73,2.43,1.03l41.3-31.06c.71-.53,1.08-1.41.97-2.29l-3.45-27.62c-.11-.86-.66-1.6-1.45-1.96l-73.14-32.52Z"/>
  <path class="cls-3" d="M1653.87,737.33c1.58.71,3.33-.59,3.12-2.31l-3.07-24.58c-.15-1.2-.91-2.23-2.02-2.72l-48.37-21.58,19.09-14.36c.85-.64,1.29-1.68,1.16-2.74l-3.26-26.12c-.15-1.16-1.49-1.73-2.43-1.03l-41.3,31.06c-.71.53-1.08,1.41-.97,2.29l3.45,27.62c.11.86.66,1.6,1.45,1.96l73.14,32.52Z"/>
  <path class="cls-5" d="M1634.29,639.99c-1.58-.71-3.33.59-3.12,2.31l3.07,24.58c.15,1.2.91,2.23,2.02,2.72l48.37,21.58-19.09,14.36c-.85.64-1.29,1.68-1.16,2.74l3.26,26.12c.15,1.16,1.49,1.73,2.43,1.03l41.3-31.06c.71-.53,1.08-1.41.97-2.29l-3.45-27.62c-.11-.86-.66-1.6-1.45-1.96l-73.14-32.52Z"/>
  <path class="cls-3" d="M1792.99,736.45c1.58.71,3.33-.59,3.12-2.31l-3.07-24.58c-.15-1.2-.91-2.23-2.02-2.72l-48.37-21.58,19.09-14.36c.85-.64,1.29-1.68,1.16-2.74l-3.26-26.12c-.15-1.16-1.49-1.73-2.43-1.03l-41.3,31.06c-.71.53-1.08,1.41-.97,2.29l3.45,27.62c.11.86.66,1.6,1.45,1.96l73.14,32.52Z"/>
  <path class="cls-3" d="M220.28,819.51c1.58.71,3.33-.59,3.12-2.31l-3.07-24.58c-.15-1.2-.91-2.23-2.02-2.72l-48.37-21.58,19.09-14.36c.85-.64,1.29-1.68,1.16-2.74l-3.26-26.12c-.15-1.16-1.49-1.73-2.43-1.03l-41.3,31.06c-.71.53-1.08,1.41-.97,2.29l3.45,27.62c.11.86.66,1.6,1.45,1.96l73.14,32.52Z"/>
  <path class="cls-5" d="M200.7,722.18c-1.58-.71-3.33.59-3.12,2.31l3.07,24.58c.15,1.2.91,2.23,2.02,2.72l48.37,21.58-19.09,14.36c-.85.64-1.29,1.68-1.16,2.74l3.26,26.12c.15,1.16,1.49,1.73,2.43,1.03l41.3-31.06c.71-.53,1.08-1.41.97-2.29l-3.45-27.62c-.11-.86-.66-1.6-1.45-1.96l-73.14-32.52Z"/>
  <path class="cls-3" d="M359.39,818.64c1.58.71,3.33-.59,3.12-2.31l-3.07-24.58c-.15-1.2-.91-2.23-2.02-2.72l-48.37-21.58,19.09-14.36c.85-.64,1.29-1.68,1.16-2.74l-3.26-26.12c-.15-1.16-1.49-1.73-2.43-1.03l-41.3,31.06c-.71.53-1.08,1.41-.97,2.29l3.45,27.62c.11.86.66,1.6,1.45,1.96l73.14,32.52Z"/>
  <path class="cls-5" d="M339.9,722c-1.58-.71-3.33.59-3.12,2.31l3.07,24.58c.15,1.2.91,2.23,2.02,2.72l48.37,21.58-19.09,14.36c-.85.64-1.29,1.68-1.16,2.74l3.26,26.12c.15,1.16,1.49,1.73,2.43,1.03l41.3-31.06c.71-.53,1.08-1.41.97-2.29l-3.45-27.62c-.11-.86-.66-1.6-1.45-1.96l-73.14-32.52Z"/>
  <path class="cls-3" d="M498.59,818.46c1.58.71,3.33-.59,3.12-2.31l-3.07-24.58c-.15-1.2-.91-2.23-2.02-2.72l-48.37-21.58,19.09-14.36c.85-.64,1.29-1.68,1.16-2.74l-3.26-26.12c-.15-1.16-1.49-1.73-2.43-1.03l-41.3,31.06c-.71.53-1.08,1.41-.97,2.29l3.45,27.62c.11.86.66,1.6,1.45,1.96l73.14,32.52Z"/>
  <path class="cls-5" d="M479.01,721.13c-1.58-.71-3.33.59-3.12,2.31l3.07,24.58c.15,1.2.91,2.23,2.02,2.72l48.37,21.58-19.09,14.36c-.85.64-1.29,1.68-1.16,2.74l3.26,26.12c.15,1.16,1.49,1.73,2.43,1.03l41.3-31.06c.71-.53,1.08-1.41.97-2.29l-3.45-27.62c-.11-.86-.66-1.6-1.45-1.96l-73.14-32.52Z"/>
  <path class="cls-3" d="M637.7,817.59c1.58.71,3.33-.59,3.12-2.31l-3.07-24.58c-.15-1.2-.91-2.23-2.02-2.72l-48.37-21.58,19.09-14.36c.85-.64,1.29-1.68,1.16-2.74l-3.26-26.12c-.15-1.16-1.49-1.73-2.43-1.03l-41.3,31.06c-.71.53-1.08,1.41-.97,2.29l3.45,27.62c.11.86.66,1.6,1.45,1.96l73.14,32.52Z"/>
  <path class="cls-5" d="M618.21,720.95c-1.58-.71-3.33.59-3.12,2.31l3.07,24.58c.15,1.2.91,2.23,2.02,2.72l48.37,21.58-19.09,14.36c-.85.64-1.29,1.68-1.16,2.74l3.26,26.12c.15,1.16,1.49,1.73,2.43,1.03l41.3-31.06c.71-.53,1.08-1.41.97-2.29l-3.45-27.62c-.11-.86-.66-1.6-1.45-1.96l-73.14-32.52Z"/>
  <path class="cls-3" d="M776.9,817.41c1.58.71,3.33-.59,3.12-2.31l-3.07-24.58c-.15-1.2-.91-2.23-2.02-2.72l-48.37-21.58,19.09-14.36c.85-.64,1.29-1.68,1.16-2.74l-3.26-26.12c-.15-1.16-1.49-1.73-2.43-1.03l-41.3,31.06c-.71.53-1.08,1.41-.97,2.29l3.45,27.62c.11.86.66,1.6,1.45,1.96l73.14,32.52Z"/>
  <path class="cls-5" d="M757.32,720.08c-1.58-.71-3.33.59-3.12,2.31l3.07,24.58c.15,1.2.91,2.23,2.02,2.72l48.37,21.58-19.09,14.36c-.85.64-1.29,1.68-1.16,2.74l3.26,26.12c.15,1.16,1.49,1.73,2.43,1.03l41.3-31.06c.71-.53,1.08-1.41.97-2.29l-3.45-27.62c-.11-.86-.66-1.6-1.45-1.96l-73.14-32.52Z"/>
  <path class="cls-3" d="M916.01,816.53c1.58.71,3.33-.59,3.12-2.31l-3.07-24.58c-.15-1.2-.91-2.23-2.02-2.72l-48.37-21.58,19.09-14.36c.85-.64,1.29-1.68,1.16-2.74l-3.26-26.12c-.15-1.16-1.49-1.73-2.43-1.03l-41.3,31.06c-.71.53-1.08,1.41-.97,2.29l3.45,27.62c.11.86.66,1.6,1.45,1.96l73.14,32.52Z"/>
  <path class="cls-5" d="M896.52,719.9c-1.58-.71-3.33.59-3.12,2.31l3.07,24.58c.15,1.2.91,2.23,2.02,2.72l48.37,21.58-19.09,14.36c-.85.64-1.29,1.68-1.16,2.74l3.26,26.12c.15,1.16,1.49,1.73,2.43,1.03l41.3-31.06c.71-.53,1.08-1.41.97-2.29l-3.45-27.62c-.11-.86-.66-1.6-1.45-1.96l-73.14-32.52Z"/>
  <path class="cls-3" d="M1055.21,816.36c1.58.71,3.33-.59,3.12-2.31l-3.07-24.58c-.15-1.2-.91-2.23-2.02-2.72l-48.37-21.58,19.09-14.36c.85-.64,1.29-1.68,1.16-2.74l-3.26-26.12c-.15-1.16-1.49-1.73-2.43-1.03l-41.3,31.06c-.71.53-1.08,1.41-.97,2.29l3.45,27.62c.11.86.66,1.6,1.45,1.96l73.14,32.52Z"/>
  <path class="cls-5" d="M1035.63,719.02c-1.58-.71-3.33.59-3.12,2.31l3.07,24.58c.15,1.2.91,2.23,2.02,2.72l48.37,21.58-19.09,14.36c-.85.64-1.29,1.68-1.16,2.74l3.26,26.12c.15,1.16,1.49,1.73,2.43,1.03l41.3-31.06c.71-.53,1.08-1.41.97-2.29l-3.45-27.62c-.11-.86-.66-1.6-1.45-1.96l-73.14-32.52Z"/>
  <path class="cls-3" d="M1194.33,815.48c1.58.71,3.33-.59,3.12-2.31l-3.07-24.58c-.15-1.2-.91-2.23-2.02-2.72l-48.37-21.58,19.09-14.36c.85-.64,1.29-1.68,1.16-2.74l-3.26-26.12c-.15-1.16-1.49-1.73-2.43-1.03l-41.3,31.06c-.71.53-1.08,1.41-.97,2.29l3.45,27.62c.11.86.66,1.6,1.45,1.96l73.14,32.52Z"/>
  <path class="cls-5" d="M1174.83,718.85c-1.58-.71-3.33.59-3.12,2.31l3.07,24.58c.15,1.2.91,2.23,2.02,2.72l48.37,21.58-19.09,14.36c-.85.64-1.29,1.68-1.16,2.74l3.26,26.12c.15,1.16,1.49,1.73,2.43,1.03l41.3-31.06c.71-.53,1.08-1.41.97-2.29l-3.45-27.62c-.11-.86-.66-1.6-1.45-1.96l-73.14-32.52Z"/>
  <path class="cls-3" d="M1333.53,815.31c1.58.71,3.33-.59,3.12-2.31l-3.07-24.58c-.15-1.2-.91-2.23-2.02-2.72l-48.37-21.58,19.09-14.36c.85-.64,1.29-1.68,1.16-2.74l-3.26-26.12c-.15-1.16-1.49-1.73-2.43-1.03l-41.3,31.06c-.71.53-1.08,1.41-.97,2.29l3.45,27.62c.11.86.66,1.6,1.45,1.96l73.14,32.52Z"/>
  <path class="cls-5" d="M1313.95,717.97c-1.58-.71-3.33.59-3.12,2.31l3.07,24.58c.15,1.2.91,2.23,2.02,2.72l48.37,21.58-19.09,14.36c-.85.64-1.29,1.68-1.16,2.74l3.26,26.12c.15,1.16,1.49,1.73,2.43,1.03l41.3-31.06c.71-.53,1.08-1.41.97-2.29l-3.45-27.62c-.11-.86-.66-1.6-1.45-1.96l-73.14-32.52Z"/>
  <path class="cls-3" d="M1472.64,814.43c1.58.71,3.33-.59,3.12-2.31l-3.07-24.58c-.15-1.2-.91-2.23-2.02-2.72l-48.37-21.58,19.09-14.36c.85-.64,1.29-1.68,1.16-2.74l-3.26-26.12c-.15-1.16-1.49-1.73-2.43-1.03l-41.3,31.06c-.71.53-1.08,1.41-.97,2.29l3.45,27.62c.11.86.66,1.6,1.45,1.96l73.14,32.52Z"/>
  <path class="cls-5" d="M1453.15,717.8c-1.58-.71-3.33.59-3.12,2.31l3.07,24.58c.15,1.2.91,2.23,2.02,2.72l48.37,21.58-19.09,14.36c-.85.64-1.29,1.68-1.16,2.74l3.26,26.12c.15,1.16,1.49,1.73,2.43,1.03l41.3-31.06c.71-.53,1.08-1.41.97-2.29l-3.45-27.62c-.11-.86-.66-1.6-1.45-1.96l-73.14-32.52Z"/>
  <path class="cls-3" d="M1611.84,814.26c1.58.71,3.33-.59,3.12-2.31l-3.07-24.58c-.15-1.2-.91-2.23-2.02-2.72l-48.37-21.58,19.09-14.36c.85-.64,1.29-1.68,1.16-2.74l-3.26-26.12c-.15-1.16-1.49-1.73-2.43-1.03l-41.3,31.06c-.71.53-1.08,1.41-.97,2.29l3.45,27.62c.11.86.66,1.6,1.45,1.96l73.14,32.52Z"/>
  <path class="cls-5" d="M1592.26,716.92c-1.58-.71-3.33.59-3.12,2.31l3.07,24.58c.15,1.2.91,2.23,2.02,2.72l48.37,21.58-19.09,14.36c-.85.64-1.29,1.68-1.16,2.74l3.26,26.12c.15,1.16,1.49,1.73,2.43,1.03l41.3-31.06c.71-.53,1.08-1.41.97-2.29l-3.45-27.62c-.11-.86-.66-1.6-1.45-1.96l-73.14-32.52Z"/>
  <path class="cls-3" d="M1750.95,813.38c1.58.71,3.33-.59,3.12-2.31l-3.07-24.58c-.15-1.2-.91-2.23-2.02-2.72l-48.37-21.58,19.09-14.36c.85-.64,1.29-1.68,1.16-2.74l-3.26-26.12c-.15-1.16-1.49-1.73-2.43-1.03l-41.3,31.06c-.71.53-1.08,1.41-.97,2.29l3.45,27.62c.11.86.66,1.6,1.45,1.96l73.14,32.52Z"/>
  <path class="cls-5" d="M150.92,799.16c-1.58-.71-3.33.59-3.12,2.31l3.07,24.58c.15,1.2.91,2.23,2.02,2.72l48.37,21.58-19.09,14.36c-.85.64-1.29,1.68-1.16,2.74l3.26,26.12c.15,1.16,1.49,1.73,2.43,1.03l41.3-31.06c.71-.53,1.08-1.41.97-2.29l-3.45-27.62c-.11-.86-.66-1.6-1.45-1.96l-73.14-32.52Z"/>
  <path class="cls-3" d="M309.61,895.62c1.58.71,3.33-.59,3.12-2.31l-3.07-24.58c-.15-1.2-.91-2.23-2.02-2.72l-48.37-21.58,19.09-14.36c.85-.64,1.29-1.68,1.16-2.74l-3.26-26.12c-.15-1.16-1.49-1.73-2.43-1.03l-41.3,31.06c-.71.53-1.08,1.41-.97,2.29l3.45,27.62c.11.86.66,1.6,1.45,1.96l73.14,32.52Z"/>
  <path class="cls-5" d="M290.03,798.29c-1.58-.71-3.33.59-3.12,2.31l3.07,24.58c.15,1.2.91,2.23,2.02,2.72l48.37,21.58-19.09,14.36c-.85.64-1.29,1.68-1.16,2.74l3.26,26.12c.15,1.16,1.49,1.73,2.43,1.03l41.3-31.06c.71-.53,1.08-1.41.97-2.29l-3.45-27.62c-.11-.86-.66-1.6-1.45-1.96l-73.14-32.52Z"/>
  <path class="cls-3" d="M448.73,894.75c1.58.71,3.33-.59,3.12-2.31l-3.07-24.58c-.15-1.2-.91-2.23-2.02-2.72l-48.37-21.58,19.09-14.36c.85-.64,1.29-1.68,1.16-2.74l-3.26-26.12c-.15-1.16-1.49-1.73-2.43-1.03l-41.3,31.06c-.71.53-1.08,1.41-.97,2.29l3.45,27.62c.11.86.66,1.6,1.45,1.96l73.14,32.52Z"/>
  <path class="cls-5" d="M429.23,798.11c-1.58-.71-3.33.59-3.12,2.31l3.07,24.58c.15,1.2.91,2.23,2.02,2.72l48.37,21.58-19.09,14.36c-.85.64-1.29,1.68-1.16,2.74l3.26,26.12c.15,1.16,1.49,1.73,2.43,1.03l41.3-31.06c.71-.53,1.08-1.41.97-2.29l-3.45-27.62c-.11-.86-.66-1.6-1.45-1.96l-73.14-32.52Z"/>
  <path class="cls-3" d="M587.93,894.57c1.58.71,3.33-.59,3.12-2.31l-3.07-24.58c-.15-1.2-.91-2.23-2.02-2.72l-48.37-21.58,19.09-14.36c.85-.64,1.29-1.68,1.16-2.74l-3.26-26.12c-.15-1.16-1.49-1.73-2.43-1.03l-41.3,31.06c-.71.53-1.08,1.41-.97,2.29l3.45,27.62c.11.86.66,1.6,1.45,1.96l73.14,32.52Z"/>
  <path class="cls-5" d="M568.35,797.24c-1.58-.71-3.33.59-3.12,2.31l3.07,24.58c.15,1.2.91,2.23,2.02,2.72l48.37,21.58-19.09,14.36c-.85.64-1.29,1.68-1.16,2.74l3.26,26.12c.15,1.16,1.49,1.73,2.43,1.03l41.3-31.06c.71-.53,1.08-1.41.97-2.29l-3.45-27.62c-.11-.86-.66-1.6-1.45-1.96l-73.14-32.52Z"/>
  <path class="cls-3" d="M727.04,893.69c1.58.71,3.33-.59,3.12-2.31l-3.07-24.58c-.15-1.2-.91-2.23-2.02-2.72l-48.37-21.58,19.09-14.36c.85-.64,1.29-1.68,1.16-2.74l-3.26-26.12c-.15-1.16-1.49-1.73-2.43-1.03l-41.3,31.06c-.71.53-1.08,1.41-.97,2.29l3.45,27.62c.11.86.66,1.6,1.45,1.96l73.14,32.52Z"/>
  <path class="cls-5" d="M707.55,797.06c-1.58-.71-3.33.59-3.12,2.31l3.07,24.58c.15,1.2.91,2.23,2.02,2.72l48.37,21.58-19.09,14.36c-.85.64-1.29,1.68-1.16,2.74l3.26,26.12c.15,1.16,1.49,1.73,2.43,1.03l41.3-31.06c.71-.53,1.08-1.41.97-2.29l-3.45-27.62c-.11-.86-.66-1.6-1.45-1.96l-73.14-32.52Z"/>
  <path class="cls-3" d="M866.24,893.52c1.58.71,3.33-.59,3.12-2.31l-3.07-24.58c-.15-1.2-.91-2.23-2.02-2.72l-48.37-21.58,19.09-14.36c.85-.64,1.29-1.68,1.16-2.74l-3.26-26.12c-.15-1.16-1.49-1.73-2.43-1.03l-41.3,31.06c-.71.53-1.08,1.41-.97,2.29l3.45,27.62c.11.86.66,1.6,1.45,1.96l73.14,32.52Z"/>
  <path class="cls-5" d="M846.66,796.18c-1.58-.71-3.33.59-3.12,2.31l3.07,24.58c.15,1.2.91,2.23,2.02,2.72l48.37,21.58-19.09,14.36c-.85.64-1.29,1.68-1.16,2.74l3.26,26.12c.15,1.16,1.49,1.73,2.43,1.03l41.3-31.06c.71-.53,1.08-1.41.97-2.29l-3.45-27.62c-.11-.86-.66-1.6-1.45-1.96l-73.14-32.52Z"/>
  <path class="cls-3" d="M1005.35,892.64c1.58.71,3.33-.59,3.12-2.31l-3.07-24.58c-.15-1.2-.91-2.23-2.02-2.72l-48.37-21.58,19.09-14.36c.85-.64,1.29-1.68,1.16-2.74l-3.26-26.12c-.15-1.16-1.49-1.73-2.43-1.03l-41.3,31.06c-.71.53-1.08,1.41-.97,2.29l3.45,27.62c.11.86.66,1.6,1.45,1.96l73.14,32.52Z"/>
  <path class="cls-5" d="M985.86,796.01c-1.58-.71-3.33.59-3.12,2.31l3.07,24.58c.15,1.2.91,2.23,2.02,2.72l48.37,21.58-19.09,14.36c-.85.64-1.29,1.68-1.16,2.74l3.26,26.12c.15,1.16,1.49,1.73,2.43,1.03l41.3-31.06c.71-.53,1.08-1.41.97-2.29l-3.45-27.62c-.11-.86-.66-1.6-1.45-1.96l-73.14-32.52Z"/>
  <path class="cls-3" d="M1144.55,892.47c1.58.71,3.33-.59,3.12-2.31l-3.07-24.58c-.15-1.2-.91-2.23-2.02-2.72l-48.37-21.58,19.09-14.36c.85-.64,1.29-1.68,1.16-2.74l-3.26-26.12c-.15-1.16-1.49-1.73-2.43-1.03l-41.3,31.06c-.71.53-1.08,1.41-.97,2.29l3.45,27.62c.11.86.66,1.6,1.45,1.96l73.14,32.52Z"/>
  <path class="cls-5" d="M1124.97,795.13c-1.58-.71-3.33.59-3.12,2.31l3.07,24.58c.15,1.2.91,2.23,2.02,2.72l48.37,21.58-19.09,14.36c-.85.64-1.29,1.68-1.16,2.74l3.26,26.12c.15,1.16,1.49,1.73,2.43,1.03l41.3-31.06c.71-.53,1.08-1.41.97-2.29l-3.45-27.62c-.11-.86-.66-1.6-1.45-1.96l-73.14-32.52Z"/>
  <path class="cls-3" d="M1283.66,891.59c1.58.71,3.33-.59,3.12-2.31l-3.07-24.58c-.15-1.2-.91-2.23-2.02-2.72l-48.37-21.58,19.09-14.36c.85-.64,1.29-1.68,1.16-2.74l-3.26-26.12c-.15-1.16-1.49-1.73-2.43-1.03l-41.3,31.06c-.71.53-1.08,1.41-.97,2.29l3.45,27.62c.11.86.66,1.6,1.45,1.96l73.14,32.52Z"/>
  <path class="cls-5" d="M1264.17,794.96c-1.58-.71-3.33.59-3.12,2.31l3.07,24.58c.15,1.2.91,2.23,2.02,2.72l48.37,21.58-19.09,14.36c-.85.64-1.29,1.68-1.16,2.74l3.26,26.12c.15,1.16,1.49,1.73,2.43,1.03l41.3-31.06c.71-.53,1.08-1.41.97-2.29l-3.45-27.62c-.11-.86-.66-1.6-1.45-1.96l-73.14-32.52Z"/>
  <path class="cls-3" d="M1422.86,891.42c1.58.71,3.33-.59,3.12-2.31l-3.07-24.58c-.15-1.2-.91-2.23-2.02-2.72l-48.37-21.58,19.09-14.36c.85-.64,1.29-1.68,1.16-2.74l-3.26-26.12c-.15-1.16-1.49-1.73-2.43-1.03l-41.3,31.06c-.71.53-1.08,1.41-.97,2.29l3.45,27.62c.11.86.66,1.6,1.45,1.96l73.14,32.52Z"/>
  <path class="cls-5" d="M1403.28,794.08c-1.58-.71-3.33.59-3.12,2.31l3.07,24.58c.15,1.2.91,2.23,2.02,2.72l48.37,21.58-19.09,14.36c-.85.64-1.29,1.68-1.16,2.74l3.26,26.12c.15,1.16,1.49,1.73,2.43,1.03l41.3-31.06c.71-.53,1.08-1.41.97-2.29l-3.45-27.62c-.11-.86-.66-1.6-1.45-1.96l-73.14-32.52Z"/>
  <path class="cls-3" d="M1561.97,890.54c1.58.71,3.33-.59,3.12-2.31l-3.07-24.58c-.15-1.2-.91-2.23-2.02-2.72l-48.37-21.58,19.09-14.36c.85-.64,1.29-1.68,1.16-2.74l-3.26-26.12c-.15-1.16-1.49-1.73-2.43-1.03l-41.3,31.06c-.71.53-1.08,1.41-.97,2.29l3.45,27.62c.11.86.66,1.6,1.45,1.96l73.14,32.52Z"/>
  <path class="cls-5" d="M1542.48,793.91c-1.58-.71-3.33.59-3.12,2.31l3.07,24.58c.15,1.2.91,2.23,2.02,2.72l48.37,21.58-19.09,14.36c-.85.64-1.29,1.68-1.16,2.74l3.26,26.12c.15,1.16,1.49,1.73,2.43,1.03l41.3-31.06c.71-.53,1.08-1.41.97-2.29l-3.45-27.62c-.11-.86-.66-1.6-1.45-1.96l-73.14-32.52Z"/>
  <path class="cls-3" d="M1701.17,890.36c1.58.71,3.33-.59,3.12-2.31l-3.07-24.58c-.15-1.2-.91-2.23-2.02-2.72l-48.37-21.58,19.09-14.36c.85-.64,1.29-1.68,1.16-2.74l-3.26-26.12c-.15-1.16-1.49-1.73-2.43-1.03l-41.3,31.06c-.71.53-1.08,1.41-.97,2.29l3.45,27.62c.11.86.66,1.6,1.45,1.96l73.14,32.52Z"/>
  <path class="cls-5" d="M1681.59,793.03c-1.58-.71-3.33.59-3.12,2.31l3.07,24.58c.15,1.2.91,2.23,2.02,2.72l48.37,21.58-19.09,14.36c-.85.64-1.29,1.68-1.16,2.74l3.26,26.12c.15,1.16,1.49,1.73,2.43,1.03l41.3-31.06c.71-.53,1.08-1.41.97-2.29l-3.45-27.62c-.11-.86-.66-1.6-1.45-1.96l-73.14-32.52Z"/>
  <path class="cls-3" d="M267.58,972.55c1.58.71,3.33-.59,3.12-2.31l-3.07-24.58c-.15-1.2-.91-2.23-2.02-2.72l-48.37-21.58,19.09-14.36c.85-.64,1.29-1.68,1.16-2.74l-3.26-26.12c-.15-1.16-1.49-1.73-2.43-1.03l-41.3,31.06c-.71.53-1.08,1.41-.97,2.29l3.45,27.62c.11.86.66,1.6,1.45,1.96l73.14,32.52Z"/>
  <path class="cls-5" d="M248,875.22c-1.58-.71-3.33.59-3.12,2.31l3.07,24.58c.15,1.2.91,2.23,2.02,2.72l48.37,21.58-19.09,14.36c-.85.64-1.29,1.68-1.16,2.74l3.26,26.12c.15,1.16,1.49,1.73,2.43,1.03l41.3-31.06c.71-.53,1.08-1.41.97-2.29l-3.45-27.62c-.11-.86-.66-1.6-1.45-1.96l-73.14-32.52Z"/>
  <path class="cls-3" d="M406.69,971.67c1.58.71,3.33-.59,3.12-2.31l-3.07-24.58c-.15-1.2-.91-2.23-2.02-2.72l-48.37-21.58,19.09-14.36c.85-.64,1.29-1.68,1.16-2.74l-3.26-26.12c-.15-1.16-1.49-1.73-2.43-1.03l-41.3,31.06c-.71.53-1.08,1.41-.97,2.29l3.45,27.62c.11.86.66,1.6,1.45,1.96l73.14,32.52Z"/>
  <path class="cls-5" d="M387.2,875.04c-1.58-.71-3.33.59-3.12,2.31l3.07,24.58c.15,1.2.91,2.23,2.02,2.72l48.37,21.58-19.09,14.36c-.85.64-1.29,1.68-1.16,2.74l3.26,26.12c.15,1.16,1.49,1.73,2.43,1.03l41.3-31.06c.71-.53,1.08-1.41.97-2.29l-3.45-27.62c-.11-.86-.66-1.6-1.45-1.96l-73.14-32.52Z"/>
  <path class="cls-3" d="M545.89,971.5c1.58.71,3.33-.59,3.12-2.31l-3.07-24.58c-.15-1.2-.91-2.23-2.02-2.72l-48.37-21.58,19.09-14.36c.85-.64,1.29-1.68,1.16-2.74l-3.26-26.12c-.15-1.16-1.49-1.73-2.43-1.03l-41.3,31.06c-.71.53-1.08,1.41-.97,2.29l3.45,27.62c.11.86.66,1.6,1.45,1.96l73.14,32.52Z"/>
  <path class="cls-5" d="M526.31,874.16c-1.58-.71-3.33.59-3.12,2.31l3.07,24.58c.15,1.2.91,2.23,2.02,2.72l48.37,21.58-19.09,14.36c-.85.64-1.29,1.68-1.16,2.74l3.26,26.12c.15,1.16,1.49,1.73,2.43,1.03l41.3-31.06c.71-.53,1.08-1.41.97-2.29l-3.45-27.62c-.11-.86-.66-1.6-1.45-1.96l-73.14-32.52Z"/>
  <path class="cls-3" d="M685,970.62c1.58.71,3.33-.59,3.12-2.31l-3.07-24.58c-.15-1.2-.91-2.23-2.02-2.72l-48.37-21.58,19.09-14.36c.85-.64,1.29-1.68,1.16-2.74l-3.26-26.12c-.15-1.16-1.49-1.73-2.43-1.03l-41.3,31.06c-.71.53-1.08,1.41-.97,2.29l3.45,27.62c.11.86.66,1.6,1.45,1.96l73.14,32.52Z"/>
  <path class="cls-5" d="M665.51,873.99c-1.58-.71-3.33.59-3.12,2.31l3.07,24.58c.15,1.2.91,2.23,2.02,2.72l48.37,21.58-19.09,14.36c-.85.64-1.29,1.68-1.16,2.74l3.26,26.12c.15,1.16,1.49,1.73,2.43,1.03l41.3-31.06c.71-.53,1.08-1.41.97-2.29l-3.45-27.62c-.11-.86-.66-1.6-1.45-1.96l-73.14-32.52Z"/>
  <path class="cls-3" d="M824.2,970.45c1.58.71,3.33-.59,3.12-2.31l-3.07-24.58c-.15-1.2-.91-2.23-2.02-2.72l-48.37-21.58,19.09-14.36c.85-.64,1.29-1.68,1.16-2.74l-3.26-26.12c-.15-1.16-1.49-1.73-2.43-1.03l-41.3,31.06c-.71.53-1.08,1.41-.97,2.29l3.45,27.62c.11.86.66,1.6,1.45,1.96l73.14,32.52Z"/>
  <path class="cls-5" d="M804.62,873.11c-1.58-.71-3.33.59-3.12,2.31l3.07,24.58c.15,1.2.91,2.23,2.02,2.72l48.37,21.58-19.09,14.36c-.85.64-1.29,1.68-1.16,2.74l3.26,26.12c.15,1.16,1.49,1.73,2.43,1.03l41.3-31.06c.71-.53,1.08-1.41.97-2.29l-3.45-27.62c-.11-.86-.66-1.6-1.45-1.96l-73.14-32.52Z"/>
  <path class="cls-3" d="M963.31,969.57c1.58.71,3.33-.59,3.12-2.31l-3.07-24.58c-.15-1.2-.91-2.23-2.02-2.72l-48.37-21.58,19.09-14.36c.85-.64,1.29-1.68,1.16-2.74l-3.26-26.12c-.15-1.16-1.49-1.73-2.43-1.03l-41.3,31.06c-.71.53-1.08,1.41-.97,2.29l3.45,27.62c.11.86.66,1.6,1.45,1.96l73.14,32.52Z"/>
  <path class="cls-5" d="M943.82,872.94c-1.58-.71-3.33.59-3.12,2.31l3.07,24.58c.15,1.2.91,2.23,2.02,2.72l48.37,21.58-19.09,14.36c-.85.64-1.29,1.68-1.16,2.74l3.26,26.12c.15,1.16,1.49,1.73,2.43,1.03l41.3-31.06c.71-.53,1.08-1.41.97-2.29l-3.45-27.62c-.11-.86-.66-1.6-1.45-1.96l-73.14-32.52Z"/>
  <path class="cls-3" d="M1102.51,969.4c1.58.71,3.33-.59,3.12-2.31l-3.07-24.58c-.15-1.2-.91-2.23-2.02-2.72l-48.37-21.58,19.09-14.36c.85-.64,1.29-1.68,1.16-2.74l-3.26-26.12c-.15-1.16-1.49-1.73-2.43-1.03l-41.3,31.06c-.71.53-1.08,1.41-.97,2.29l3.45,27.62c.11.86.66,1.6,1.45,1.96l73.14,32.52Z"/>
  <path class="cls-5" d="M1082.93,872.06c-1.58-.71-3.33.59-3.12,2.31l3.07,24.58c.15,1.2.91,2.23,2.02,2.72l48.37,21.58-19.09,14.36c-.85.64-1.29,1.68-1.16,2.74l3.26,26.12c.15,1.16,1.49,1.73,2.43,1.03l41.3-31.06c.71-.53,1.08-1.41.97-2.29l-3.45-27.62c-.11-.86-.66-1.6-1.45-1.96l-73.14-32.52Z"/>
  <path class="cls-3" d="M1241.63,968.52c1.58.71,3.33-.59,3.12-2.31l-3.07-24.58c-.15-1.2-.91-2.23-2.02-2.72l-48.37-21.58,19.09-14.36c.85-.64,1.29-1.68,1.16-2.74l-3.26-26.12c-.15-1.16-1.49-1.73-2.43-1.03l-41.3,31.06c-.71.53-1.08,1.41-.97,2.29l3.45,27.62c.11.86.66,1.6,1.45,1.96l73.14,32.52Z"/>
  <path class="cls-5" d="M1222.13,871.89c-1.58-.71-3.33.59-3.12,2.31l3.07,24.58c.15,1.2.91,2.23,2.02,2.72l48.37,21.58-19.09,14.36c-.85.64-1.29,1.68-1.16,2.74l3.26,26.12c.15,1.16,1.49,1.73,2.43,1.03l41.3-31.06c.71-.53,1.08-1.41.97-2.29l-3.45-27.62c-.11-.86-.66-1.6-1.45-1.96l-73.14-32.52Z"/>
  <path class="cls-3" d="M1380.83,968.34c1.58.71,3.33-.59,3.12-2.31l-3.07-24.58c-.15-1.2-.91-2.23-2.02-2.72l-48.37-21.58,19.09-14.36c.85-.64,1.29-1.68,1.16-2.74l-3.26-26.12c-.15-1.16-1.49-1.73-2.43-1.03l-41.3,31.06c-.71.53-1.08,1.41-.97,2.29l3.45,27.62c.11.86.66,1.6,1.45,1.96l73.14,32.52Z"/>
  <path class="cls-5" d="M1361.25,871.01c-1.58-.71-3.33.59-3.12,2.31l3.07,24.58c.15,1.2.91,2.23,2.02,2.72l48.37,21.58-19.09,14.36c-.85.64-1.29,1.68-1.16,2.74l3.26,26.12c.15,1.16,1.49,1.73,2.43,1.03l41.3-31.06c.71-.53,1.08-1.41.97-2.29l-3.45-27.62c-.11-.86-.66-1.6-1.45-1.96l-73.14-32.52Z"/>
  <path class="cls-3" d="M1519.94,967.47c1.58.71,3.33-.59,3.12-2.31l-3.07-24.58c-.15-1.2-.91-2.23-2.02-2.72l-48.37-21.58,19.09-14.36c.85-.64,1.29-1.68,1.16-2.74l-3.26-26.12c-.15-1.16-1.49-1.73-2.43-1.03l-41.3,31.06c-.71.53-1.08,1.41-.97,2.29l3.45,27.62c.11.86.66,1.6,1.45,1.96l73.14,32.52Z"/>
  <path class="cls-5" d="M1500.45,870.83c-1.58-.71-3.33.59-3.12,2.31l3.07,24.58c.15,1.2.91,2.23,2.02,2.72l48.37,21.58-19.09,14.36c-.85.64-1.29,1.68-1.16,2.74l3.26,26.12c.15,1.16,1.49,1.73,2.43,1.03l41.3-31.06c.71-.53,1.08-1.41.97-2.29l-3.45-27.62c-.11-.86-.66-1.6-1.45-1.96l-73.14-32.52Z"/>
  <path class="cls-3" d="M1659.14,967.29c1.58.71,3.33-.59,3.12-2.31l-3.07-24.58c-.15-1.2-.91-2.23-2.02-2.72l-48.37-21.58,19.09-14.36c.85-.64,1.29-1.68,1.16-2.74l-3.26-26.12c-.15-1.16-1.49-1.73-2.43-1.03l-41.3,31.06c-.71.53-1.08,1.41-.97,2.29l3.45,27.62c.11.86.66,1.6,1.45,1.96l73.14,32.52Z"/>
  <path class="cls-5" d="M1639.56,869.96c-1.58-.71-3.33.59-3.12,2.31l3.07,24.58c.15,1.2.91,2.23,2.02,2.72l48.37,21.58-19.09,14.36c-.85.64-1.29,1.68-1.16,2.74l3.26,26.12c.15,1.16,1.49,1.73,2.43,1.03l41.3-31.06c.71-.53,1.08-1.41.97-2.29l-3.45-27.62c-.11-.86-.66-1.6-1.45-1.96l-73.14-32.52Z"/>
  <path class="cls-3" d="M1798.25,966.42c1.58.71,3.33-.59,3.12-2.31l-3.07-24.58c-.15-1.2-.91-2.23-2.02-2.72l-48.37-21.58,19.09-14.36c.85-.64,1.29-1.68,1.16-2.74l-3.26-26.12c-.15-1.16-1.49-1.73-2.43-1.03l-41.3,31.06c-.71.53-1.08,1.41-.97,2.29l3.45,27.62c.11.86.66,1.6,1.45,1.96l73.14,32.52Z"/>
  <path class="cls-5" d="M198.14,957.42c-1.58-.71-3.33.59-3.12,2.31l3.07,24.58c.15,1.2.91,2.23,2.02,2.72l48.37,21.58-19.09,14.36c-.85.64-1.29,1.68-1.16,2.74l3.26,26.12c.15,1.16,1.49,1.73,2.43,1.03l41.3-31.06c.71-.53,1.08-1.41.97-2.29l-3.45-27.62c-.11-.86-.66-1.6-1.45-1.96l-73.14-32.52Z"/>
  <path class="cls-3" d="M356.83,1053.88c1.58.71,3.33-.59,3.12-2.31l-3.07-24.58c-.15-1.2-.91-2.23-2.02-2.72l-48.37-21.58,19.09-14.36c.85-.64,1.29-1.68,1.16-2.74l-3.26-26.12c-.15-1.16-1.49-1.73-2.43-1.03l-41.3,31.06c-.71.53-1.08,1.41-.97,2.29l3.45,27.62c.11.86.66,1.6,1.45,1.96l73.14,32.52Z"/>
  <path class="cls-5" d="M337.25,956.54c-1.58-.71-3.33.59-3.12,2.31l3.07,24.58c.15,1.2.91,2.23,2.02,2.72l48.37,21.58-19.09,14.36c-.85.64-1.29,1.68-1.16,2.74l3.26,26.12c.15,1.16,1.49,1.73,2.43,1.03l41.3-31.06c.71-.53,1.08-1.41.97-2.29l-3.45-27.62c-.11-.86-.66-1.6-1.45-1.96l-73.14-32.52Z"/>
  <path class="cls-3" d="M495.94,1053c1.58.71,3.33-.59,3.12-2.31l-3.07-24.58c-.15-1.2-.91-2.23-2.02-2.72l-48.37-21.58,19.09-14.36c.85-.64,1.29-1.68,1.16-2.74l-3.26-26.12c-.15-1.16-1.49-1.73-2.43-1.03l-41.3,31.06c-.71.53-1.08,1.41-.97,2.29l3.45,27.62c.11.86.66,1.6,1.45,1.96l73.14,32.52Z"/>
  <path class="cls-5" d="M476.45,956.37c-1.58-.71-3.33.59-3.12,2.31l3.07,24.58c.15,1.2.91,2.23,2.02,2.72l48.37,21.58-19.09,14.36c-.85.64-1.29,1.68-1.16,2.74l3.26,26.12c.15,1.16,1.49,1.73,2.43,1.03l41.3-31.06c.71-.53,1.08-1.41.97-2.29l-3.45-27.62c-.11-.86-.66-1.6-1.45-1.96l-73.14-32.52Z"/>
  <path class="cls-3" d="M635.14,1052.83c1.58.71,3.33-.59,3.12-2.31l-3.07-24.58c-.15-1.2-.91-2.23-2.02-2.72l-48.37-21.58,19.09-14.36c.85-.64,1.29-1.68,1.16-2.74l-3.26-26.12c-.15-1.16-1.49-1.73-2.43-1.03l-41.3,31.06c-.71.53-1.08,1.41-.97,2.29l3.45,27.62c.11.86.66,1.6,1.45,1.96l73.14,32.52Z"/>
  <path class="cls-5" d="M615.56,955.49c-1.58-.71-3.33.59-3.12,2.31l3.07,24.58c.15,1.2.91,2.23,2.02,2.72l48.37,21.58-19.09,14.36c-.85.64-1.29,1.68-1.16,2.74l3.26,26.12c.15,1.16,1.49,1.73,2.43,1.03l41.3-31.06c.71-.53,1.08-1.41.97-2.29l-3.45-27.62c-.11-.86-.66-1.6-1.45-1.96l-73.14-32.52Z"/>
  <path class="cls-3" d="M774.25,1051.95c1.58.71,3.33-.59,3.12-2.31l-3.07-24.58c-.15-1.2-.91-2.23-2.02-2.72l-48.37-21.58,19.09-14.36c.85-.64,1.29-1.68,1.16-2.74l-3.26-26.12c-.15-1.16-1.49-1.73-2.43-1.03l-41.3,31.06c-.71.53-1.08,1.41-.97,2.29l3.45,27.62c.11.86.66,1.6,1.45,1.96l73.14,32.52Z"/>
  <path class="cls-5" d="M754.76,955.32c-1.58-.71-3.33.59-3.12,2.31l3.07,24.58c.15,1.2.91,2.23,2.02,2.72l48.37,21.58-19.09,14.36c-.85.64-1.29,1.68-1.16,2.74l3.26,26.12c.15,1.16,1.49,1.73,2.43,1.03l41.3-31.06c.71-.53,1.08-1.41.97-2.29l-3.45-27.62c-.11-.86-.66-1.6-1.45-1.96l-73.14-32.52Z"/>
  <path class="cls-3" d="M913.45,1051.78c1.58.71,3.33-.59,3.12-2.31l-3.07-24.58c-.15-1.2-.91-2.23-2.02-2.72l-48.37-21.58,19.09-14.36c.85-.64,1.29-1.68,1.16-2.74l-3.26-26.12c-.15-1.16-1.49-1.73-2.43-1.03l-41.3,31.06c-.71.53-1.08,1.41-.97,2.29l3.45,27.62c.11.86.66,1.6,1.45,1.96l73.14,32.52Z"/>
  <path class="cls-5" d="M893.87,954.44c-1.58-.71-3.33.59-3.12,2.31l3.07,24.58c.15,1.2.91,2.23,2.02,2.72l48.37,21.58-19.09,14.36c-.85.64-1.29,1.68-1.16,2.74l3.26,26.12c.15,1.16,1.49,1.73,2.43,1.03l41.3-31.06c.71-.53,1.08-1.41.97-2.29l-3.45-27.62c-.11-.86-.66-1.6-1.45-1.96l-73.14-32.52Z"/>
  <path class="cls-3" d="M1052.56,1050.9c1.58.71,3.33-.59,3.12-2.31l-3.07-24.58c-.15-1.2-.91-2.23-2.02-2.72l-48.37-21.58,19.09-14.36c.85-.64,1.29-1.68,1.16-2.74l-3.26-26.12c-.15-1.16-1.49-1.73-2.43-1.03l-41.3,31.06c-.71.53-1.08,1.41-.97,2.29l3.45,27.62c.11.86.66,1.6,1.45,1.96l73.14,32.52Z"/>
  <path class="cls-5" d="M1033.07,954.27c-1.58-.71-3.33.59-3.12,2.31l3.07,24.58c.15,1.2.91,2.23,2.02,2.72l48.37,21.58-19.09,14.36c-.85.64-1.29,1.68-1.16,2.74l3.26,26.12c.15,1.16,1.49,1.73,2.43,1.03l41.3-31.06c.71-.53,1.08-1.41.97-2.29l-3.45-27.62c-.11-.86-.66-1.6-1.45-1.96l-73.14-32.52Z"/>
  <path class="cls-3" d="M1191.76,1050.72c1.58.71,3.33-.59,3.12-2.31l-3.07-24.58c-.15-1.2-.91-2.23-2.02-2.72l-48.37-21.58,19.09-14.36c.85-.64,1.29-1.68,1.16-2.74l-3.26-26.12c-.15-1.16-1.49-1.73-2.43-1.03l-41.3,31.06c-.71.53-1.08,1.41-.97,2.29l3.45,27.62c.11.86.66,1.6,1.45,1.96l73.14,32.52Z"/>
  <path class="cls-5" d="M1172.18,953.39c-1.58-.71-3.33.59-3.12,2.31l3.07,24.58c.15,1.2.91,2.23,2.02,2.72l48.37,21.58-19.09,14.36c-.85.64-1.29,1.68-1.16,2.74l3.26,26.12c.15,1.16,1.49,1.73,2.43,1.03l41.3-31.06c.71-.53,1.08-1.41.97-2.29l-3.45-27.62c-.11-.86-.66-1.6-1.45-1.96l-73.14-32.52Z"/>
  <path class="cls-3" d="M1330.88,1049.85c1.58.71,3.33-.59,3.12-2.31l-3.07-24.58c-.15-1.2-.91-2.23-2.02-2.72l-48.37-21.58,19.09-14.36c.85-.64,1.29-1.68,1.16-2.74l-3.26-26.12c-.15-1.16-1.49-1.73-2.43-1.03l-41.3,31.06c-.71.53-1.08,1.41-.97,2.29l3.45,27.62c.11.86.66,1.6,1.45,1.96l73.14,32.52Z"/>
  <path class="cls-5" d="M1311.38,953.21c-1.58-.71-3.33.59-3.12,2.31l3.07,24.58c.15,1.2.91,2.23,2.02,2.72l48.37,21.58-19.09,14.36c-.85.64-1.29,1.68-1.16,2.74l3.26,26.12c.15,1.16,1.49,1.73,2.43,1.03l41.3-31.06c.71-.53,1.08-1.41.97-2.29l-3.45-27.62c-.11-.86-.66-1.6-1.45-1.96l-73.14-32.52Z"/>
  <path class="cls-3" d="M1470.08,1049.67c1.58.71,3.33-.59,3.12-2.31l-3.07-24.58c-.15-1.2-.91-2.23-2.02-2.72l-48.37-21.58,19.09-14.36c.85-.64,1.29-1.68,1.16-2.74l-3.26-26.12c-.15-1.16-1.49-1.73-2.43-1.03l-41.3,31.06c-.71.53-1.08,1.41-.97,2.29l3.45,27.62c.11.86.66,1.6,1.45,1.96l73.14,32.52Z"/>
  <path class="cls-5" d="M1450.5,952.34c-1.58-.71-3.33.59-3.12,2.31l3.07,24.58c.15,1.2.91,2.23,2.02,2.72l48.37,21.58-19.09,14.36c-.85.64-1.29,1.68-1.16,2.74l3.26,26.12c.15,1.16,1.49,1.73,2.43,1.03l41.3-31.06c.71-.53,1.08-1.41.97-2.29l-3.45-27.62c-.11-.86-.66-1.6-1.45-1.96l-73.14-32.52Z"/>
  <path class="cls-3" d="M1609.19,1048.8c1.58.71,3.33-.59,3.12-2.31l-3.07-24.58c-.15-1.2-.91-2.23-2.02-2.72l-48.37-21.58,19.09-14.36c.85-.64,1.29-1.68,1.16-2.74l-3.26-26.12c-.15-1.16-1.49-1.73-2.43-1.03l-41.3,31.06c-.71.53-1.08,1.41-.97,2.29l3.45,27.62c.11.86.66,1.6,1.45,1.96l73.14,32.52Z"/>
  <path class="cls-5" d="M1589.7,952.16c-1.58-.71-3.33.59-3.12,2.31l3.07,24.58c.15,1.2.91,2.23,2.02,2.72l48.37,21.58-19.09,14.36c-.85.64-1.29,1.68-1.16,2.74l3.26,26.12c.15,1.16,1.49,1.73,2.43,1.03l41.3-31.06c.71-.53,1.08-1.41.97-2.29l-3.45-27.62c-.11-.86-.66-1.6-1.45-1.96l-73.14-32.52Z"/>
  <path class="cls-3" d="M1748.39,1048.62c1.58.71,3.33-.59,3.12-2.31l-3.07-24.58c-.15-1.2-.91-2.23-2.02-2.72l-48.37-21.58,19.09-14.36c.85-.64,1.29-1.68,1.16-2.74l-3.26-26.12c-.15-1.16-1.49-1.73-2.43-1.03l-41.3,31.06c-.71.53-1.08,1.41-.97,2.29l3.45,27.62c.11.86.66,1.6,1.45,1.96l73.14,32.52Z"/>
  <path class="cls-5" d="M1728.81,951.29c-1.58-.71-3.33.59-3.12,2.31l3.07,24.58c.15,1.2.91,2.23,2.02,2.72l48.37,21.58-19.09,14.36c-.85.64-1.29,1.68-1.16,2.74l3.26,26.12c.15,1.16,1.49,1.73,2.43,1.03l41.3-31.06c.71-.53,1.08-1.41.97-2.29l-3.45-27.62c-.11-.86-.66-1.6-1.45-1.96l-73.14-32.52Z"/>
</svg>