<?xml version="1.0" encoding="UTF-8"?>
<svg id="Layer_1" data-name="Layer 1" xmlns="http://www.w3.org/2000/svg" xmlns:xlink="http://www.w3.org/1999/xlink" viewBox="0 0 1920 1080">
  <defs>
    <style>
      .cls-1, .cls-2, .cls-3, .cls-4, .cls-5 {
        fill: none;
      }

      .cls-2 {
        opacity: .92;
      }

      .cls-2, .cls-3 {
        stroke: #01ff97;
      }

      .cls-2, .cls-3, .cls-4, .cls-5 {
        stroke-miterlimit: 10;
      }

      .cls-6 {
        fill: #fff;
      }

      .cls-6, .cls-4 {
        opacity: .64;
      }

      .cls-7 {
        fill: #0000f4;
      }

      .cls-4 {
        stroke: #fff;
      }

      .cls-8 {
        fill: #01ff97;
      }

      .cls-5 {
        stroke: #0000f4;
      }

      .cls-9 {
        clip-path: url(#clippath);
      }
    </style>
    <clipPath id="clippath">
      <rect class="cls-1" x="420" y="-1520" width="1080" height="1920" transform="translate(1520 400) rotate(-90)"/>
    </clipPath>
  </defs>
  <g class="cls-9">
    <path class="cls-6" d="M-188.96-77.27c-20.13,11.67-19.79,40.85.61,52.04L102.96,134.53c14.18,7.78,31.4,7.58,45.4-.53L762.97-222.16l6.03,320.31c.27,14.24,8.14,27.25,20.63,34.1l309.5,169.74c13.76,7.55,30.54-2.6,30.24-18.29l-13.04-692.92c-.22-11.9-6.8-22.77-17.23-28.49l-327.29-179.5c-10.2-5.6-22.59-5.44-32.66.41L-188.96-77.27Z"/>
    <path class="cls-4" d="M1962.5,395.05c20.07,11.77,45.3-2.9,44.99-26.17l-4.46-332.21c-.22-16.17-8.87-31.06-22.83-39.24l-612.69-359.45,275.79-163.02c12.26-7.25,19.71-20.51,19.52-34.75l-4.73-352.96c-.21-15.69-17.31-25.3-30.82-17.31l-596.6,352.67c-10.24,6.06-16.47,17.13-16.31,29.03l5.01,373.25c.16,11.64,6.39,22.34,16.44,28.22l926.69,541.95Z"/>
    <path class="cls-2" d="M-9.58-1126.12c-20.07-11.77-45.3,2.9-44.99,26.17l4.46,332.21c.22,16.17,8.87,31.06,22.83,39.24l612.69,359.45-275.79,163.02c-12.26,7.25-19.71,20.51-19.52,34.75l4.73,352.96c.21,15.69,17.31,25.3,30.82,17.31L922.25-153.67c10.24-6.06,16.47-17.13,16.31-29.03l-5.01-373.25c-.16-11.64-6.39-22.34-16.44-28.22L-9.58-1126.12Z"/>
  </g>
  <path class="cls-8" d="M9.14,156.52c-2.2-1.04-4.69.72-4.44,3.14l3.55,34.54c.17,1.68,1.21,3.15,2.74,3.87l67.11,31.73-27.19,19.53c-1.21.87-1.86,2.32-1.71,3.8l3.77,36.69c.17,1.63,2.04,2.47,3.37,1.52l58.83-42.24c1.01-.73,1.55-1.94,1.43-3.17l-3.98-38.8c-.12-1.21-.87-2.27-1.97-2.78L9.14,156.52Z"/>
  <path class="cls-7" d="M237.51,296.56c2.2,1.04,4.69-.72,4.44-3.14l-3.55-34.54c-.17-1.68-1.21-3.15-2.74-3.87l-67.11-31.73,27.19-19.53c1.21-.87,1.86-2.32,1.71-3.8l-3.77-36.69c-.17-1.63-2.04-2.47-3.37-1.52l-58.83,42.24c-1.01.73-1.55,1.94-1.43,3.17l3.98,38.8c.12,1.21.87,2.27,1.97,2.78l101.48,47.81Z"/>
  <path class="cls-3" d="M212.74,131.11c2.02-1.35,1.79-4.39-.41-5.42l-31.45-14.71c-1.53-.72-3.33-.58-4.73.36l-61.71,41.26-2.78-33.36c-.12-1.48-1.03-2.79-2.38-3.42l-33.41-15.63c-1.49-.69-3.17.48-3.03,2.11l6,72.17c.1,1.24.86,2.33,1.99,2.86l35.33,16.53c1.1.52,2.39.42,3.4-.26l93.17-62.48Z"/>
  <path class="cls-5" d="M32.32,325.17c-1.98,1.42-1.64,4.45.59,5.41l31.92,13.66c1.55.66,3.34.47,4.72-.52l60.31-43.28,3.88,33.25c.17,1.48,1.12,2.75,2.49,3.34l33.91,14.51c1.51.65,3.15-.58,2.96-2.21l-8.39-71.93c-.14-1.24-.94-2.3-2.08-2.79l-35.86-15.34c-1.12-.48-2.41-.34-3.39.37l-91.05,65.54Z"/>
  <path class="cls-8" d="M173.47,48.33c-2.2-1.04-4.69.72-4.44,3.14l3.55,34.54c.17,1.68,1.21,3.15,2.74,3.87l67.11,31.73-27.19,19.53c-1.21.87-1.86,2.32-1.71,3.8l3.77,36.69c.17,1.63,2.04,2.47,3.37,1.52l58.83-42.24c1.01-.73,1.55-1.94,1.43-3.17l-3.98-38.8c-.12-1.21-.87-2.27-1.97-2.78l-101.48-47.81Z"/>
  <path class="cls-7" d="M401.84,188.37c2.2,1.04,4.69-.72,4.44-3.14l-3.55-34.54c-.17-1.68-1.21-3.15-2.74-3.87l-67.11-31.73,27.19-19.53c1.21-.87,1.86-2.32,1.71-3.8l-3.77-36.69c-.17-1.63-2.04-2.47-3.37-1.52l-58.83,42.24c-1.01.73-1.55,1.94-1.43,3.17l3.98,38.8c.12,1.21.87,2.27,1.97,2.78l101.48,47.81Z"/>
  <path class="cls-3" d="M377.07,22.92c2.02-1.35,1.79-4.39-.41-5.42l-31.45-14.71c-1.53-.72-3.33-.58-4.73.36l-61.71,41.26-2.78-33.36c-.12-1.48-1.03-2.79-2.38-3.42l-33.41-15.63c-1.49-.69-3.17.48-3.03,2.11l6,72.17c.1,1.24.86,2.33,1.99,2.86l35.33,16.53c1.1.52,2.39.42,3.4-.26l93.17-62.48Z"/>
  <path class="cls-8" d="M693.96,211.9c-2.2-1.04-4.69.72-4.44,3.14l3.55,34.54c.17,1.68,1.21,3.15,2.74,3.87l67.11,31.73-27.19,19.53c-1.21.87-1.86,2.32-1.71,3.8l3.77,36.69c.17,1.63,2.04,2.47,3.37,1.52l58.83-42.24c1.01-.73,1.55-1.94,1.43-3.17l-3.98-38.8c-.12-1.21-.87-2.27-1.97-2.78l-101.48-47.81Z"/>
  <path class="cls-3" d="M897.56,186.49c2.02-1.35,1.79-4.39-.41-5.42l-31.45-14.71c-1.53-.72-3.33-.58-4.73.36l-61.71,41.26-2.78-33.36c-.12-1.48-1.03-2.79-2.38-3.42l-33.41-15.63c-1.49-.69-3.17.48-3.03,2.11l6,72.17c.1,1.24.86,2.33,1.99,2.86l35.33,16.53c1.1.52,2.39.42,3.4-.26l93.17-62.48Z"/>
  <path class="cls-8" d="M858.28,103.71c-2.2-1.04-4.69.72-4.44,3.14l3.55,34.54c.17,1.68,1.21,3.15,2.74,3.87l67.11,31.73-27.19,19.53c-1.21.87-1.86,2.32-1.71,3.8l3.77,36.69c.17,1.63,2.04,2.47,3.37,1.52l58.83-42.24c1.01-.73,1.55-1.94,1.43-3.17l-3.98-38.8c-.12-1.21-.87-2.27-1.97-2.78l-101.48-47.81Z"/>
  <path class="cls-3" d="M1061.88,78.3c2.02-1.35,1.79-4.39-.41-5.42l-31.45-14.71c-1.53-.72-3.33-.58-4.73.36l-61.71,41.26-2.78-33.36c-.12-1.48-1.03-2.79-2.38-3.42l-33.41-15.63c-1.49-.69-3.17.48-3.03,2.11l6,72.17c.1,1.24.86,2.33,1.99,2.86l35.33,16.53c1.1.52,2.39.42,3.4-.26l93.17-62.48Z"/>
  <path class="cls-8" d="M1049.97,217.22c-2.2-1.04-4.69.72-4.44,3.14l3.55,34.54c.17,1.68,1.21,3.15,2.74,3.87l67.11,31.73-27.19,19.53c-1.21.87-1.86,2.32-1.71,3.8l3.77,36.69c.17,1.63,2.04,2.47,3.37,1.52l58.83-42.24c1.01-.73,1.55-1.94,1.43-3.17l-3.98-38.8c-.12-1.21-.87-2.27-1.97-2.78l-101.48-47.81Z"/>
  <path class="cls-3" d="M1253.57,191.81c2.02-1.35,1.79-4.39-.41-5.42l-31.45-14.71c-1.53-.72-3.33-.58-4.73.36l-61.71,41.26-2.78-33.36c-.12-1.48-1.03-2.79-2.38-3.42l-33.41-15.63c-1.49-.69-3.17.48-3.03,2.11l6,72.17c.1,1.24.86,2.33,1.99,2.86l35.33,16.53c1.1.52,2.39.42,3.4-.26l93.17-62.48Z"/>
  <path class="cls-8" d="M1214.3,109.03c-2.2-1.04-4.69.72-4.44,3.14l3.55,34.54c.17,1.68,1.21,3.15,2.74,3.87l67.11,31.73-27.19,19.53c-1.21.87-1.86,2.32-1.71,3.8l3.77,36.69c.17,1.63,2.04,2.47,3.37,1.52l58.83-42.24c1.01-.73,1.55-1.94,1.43-3.17l-3.98-38.8c-.12-1.21-.87-2.27-1.97-2.78l-101.48-47.81Z"/>
  <path class="cls-3" d="M1417.9,83.62c2.02-1.35,1.79-4.39-.41-5.42l-31.45-14.71c-1.53-.72-3.33-.58-4.73.36l-61.71,41.26-2.78-33.36c-.12-1.48-1.03-2.79-2.38-3.42l-33.41-15.63c-1.49-.69-3.17.48-3.03,2.11l6,72.17c.1,1.24.86,2.33,1.99,2.86l35.33,16.53c1.1.52,2.39.42,3.4-.26l93.17-62.48Z"/>
  <path class="cls-5" d="M196.65,216.98c-1.98,1.42-1.64,4.45.59,5.41l31.92,13.66c1.55.66,3.34.47,4.72-.52l60.31-43.28,3.88,33.25c.17,1.48,1.12,2.75,2.49,3.34l33.91,14.51c1.51.65,3.15-.58,2.96-2.21l-8.39-71.93c-.14-1.24-.94-2.3-2.08-2.79l-35.86-15.34c-1.12-.48-2.41-.34-3.39.37l-91.05,65.54Z"/>
  <path class="cls-5" d="M363.91,107.54c-1.98,1.42-1.64,4.45.59,5.41l31.92,13.66c1.55.66,3.34.47,4.72-.52l60.31-43.28,3.88,33.25c.17,1.48,1.12,2.75,2.49,3.34l33.91,14.51c1.51.65,3.15-.58,2.96-2.21l-8.39-71.93c-.14-1.24-.94-2.3-2.08-2.79l-35.86-15.34c-1.12-.48-2.41-.34-3.39.37l-91.05,65.54Z"/>
  <path class="cls-8" d="M20.41,397.77c-2.2-1.04-4.69.72-4.44,3.14l3.55,34.54c.17,1.68,1.21,3.15,2.74,3.87l67.11,31.73-27.19,19.53c-1.21.87-1.86,2.32-1.71,3.8l3.77,36.69c.17,1.63,2.04,2.47,3.37,1.52l58.83-42.24c1.01-.73,1.55-1.94,1.43-3.17l-3.98-38.8c-.12-1.21-.87-2.27-1.97-2.78l-101.48-47.81Z"/>
  <path class="cls-7" d="M248.78,537.81c2.2,1.04,4.69-.72,4.44-3.14l-3.55-34.54c-.17-1.68-1.21-3.15-2.74-3.87l-67.11-31.73,27.19-19.53c1.21-.87,1.86-2.32,1.71-3.8l-3.77-36.69c-.17-1.63-2.04-2.47-3.37-1.52l-58.83,42.24c-1.01.73-1.55,1.94-1.43,3.17l3.98,38.8c.12,1.21.87,2.27,1.97,2.78l101.48,47.81Z"/>
  <path class="cls-3" d="M224.01,372.36c2.02-1.35,1.79-4.39-.41-5.42l-31.45-14.71c-1.53-.72-3.33-.58-4.73.36l-61.71,41.26-2.78-33.36c-.12-1.48-1.03-2.79-2.38-3.42l-33.41-15.63c-1.49-.69-3.17.48-3.03,2.11l6,72.17c.1,1.24.86,2.33,1.99,2.86l35.33,16.53c1.1.52,2.39.42,3.4-.26l93.17-62.48Z"/>
  <path class="cls-5" d="M43.59,566.41c-1.98,1.42-1.64,4.45.59,5.41l31.92,13.66c1.55.66,3.34.47,4.72-.52l60.31-43.28,3.88,33.25c.17,1.48,1.12,2.75,2.49,3.34l33.91,14.51c1.51.65,3.15-.58,2.96-2.21l-8.39-71.93c-.14-1.24-.94-2.3-2.08-2.79l-35.86-15.34c-1.12-.48-2.41-.34-3.39.37l-91.05,65.54Z"/>
  <path class="cls-8" d="M184.73,289.58c-2.2-1.04-4.69.72-4.44,3.14l3.55,34.54c.17,1.68,1.21,3.15,2.74,3.87l67.11,31.73-27.19,19.53c-1.21.87-1.86,2.32-1.71,3.8l3.77,36.69c.17,1.63,2.04,2.47,3.37,1.52l58.83-42.24c1.01-.73,1.55-1.94,1.43-3.17l-3.98-38.8c-.12-1.21-.87-2.27-1.97-2.78l-101.48-47.81Z"/>
  <path class="cls-7" d="M413.11,429.62c2.2,1.04,4.69-.72,4.44-3.14l-3.55-34.54c-.17-1.68-1.21-3.15-2.74-3.87l-67.11-31.73,27.19-19.53c1.21-.87,1.86-2.32,1.71-3.8l-3.77-36.69c-.17-1.63-2.04-2.47-3.37-1.52l-58.83,42.24c-1.01.73-1.55,1.94-1.43,3.17l3.98,38.8c.12,1.21.87,2.27,1.97,2.78l101.48,47.81Z"/>
  <path class="cls-3" d="M388.33,264.17c2.02-1.35,1.79-4.39-.41-5.42l-31.45-14.71c-1.53-.72-3.33-.58-4.73.36l-61.71,41.26-2.78-33.36c-.12-1.48-1.03-2.79-2.38-3.42l-33.41-15.63c-1.49-.69-3.17.48-3.03,2.11l6,72.17c.1,1.24.86,2.33,1.99,2.86l35.33,16.53c1.1.52,2.39.42,3.4-.26l93.17-62.48Z"/>
  <path class="cls-5" d="M207.92,458.22c-1.98,1.42-1.64,4.45.59,5.41l31.92,13.66c1.55.66,3.34.47,4.72-.52l60.31-43.28,3.88,33.25c.17,1.48,1.12,2.75,2.49,3.34l33.91,14.51c1.51.65,3.15-.58,2.96-2.21l-8.39-71.93c-.14-1.24-.94-2.3-2.08-2.79l-35.86-15.34c-1.12-.48-2.41-.34-3.39.37l-91.05,65.54Z"/>
  <path class="cls-8" d="M353.17,181.92c-2.2-1.04-4.69.72-4.44,3.14l3.55,34.54c.17,1.68,1.21,3.15,2.74,3.87l67.11,31.73-27.19,19.53c-1.21.87-1.86,2.32-1.71,3.8l3.77,36.69c.17,1.63,2.04,2.47,3.37,1.52l58.83-42.24c1.01-.73,1.55-1.94,1.43-3.17l-3.98-38.8c-.12-1.21-.87-2.27-1.97-2.78l-101.48-47.81Z"/>
  <path class="cls-7" d="M581.55,321.96c2.2,1.04,4.69-.72,4.44-3.14l-3.55-34.54c-.17-1.68-1.21-3.15-2.74-3.87l-67.11-31.73,27.19-19.53c1.21-.87,1.86-2.32,1.71-3.8l-3.77-36.69c-.17-1.63-2.04-2.47-3.37-1.52l-58.83,42.24c-1.01.73-1.55,1.94-1.43,3.17l3.98,38.8c.12,1.21.87,2.27,1.97,2.78l101.48,47.81Z"/>
  <path class="cls-3" d="M556.77,156.51c2.02-1.35,1.79-4.39-.41-5.42l-31.45-14.71c-1.53-.72-3.33-.58-4.73.36l-61.71,41.26-2.78-33.36c-.12-1.48-1.03-2.79-2.38-3.42l-33.41-15.63c-1.49-.69-3.17.48-3.03,2.11l6,72.17c.1,1.24.86,2.33,1.99,2.86l35.33,16.53c1.1.52,2.39.42,3.4-.26l93.17-62.48Z"/>
  <path class="cls-5" d="M376.35,350.56c-1.98,1.42-1.64,4.45.59,5.41l31.92,13.66c1.55.66,3.34.47,4.72-.52l60.31-43.28,3.88,33.25c.17,1.48,1.12,2.75,2.49,3.34l33.91,14.51c1.51.65,3.15-.58,2.96-2.21l-8.39-71.93c-.14-1.24-.94-2.3-2.08-2.79l-35.86-15.34c-1.12-.48-2.41-.34-3.39.37l-91.05,65.54Z"/>
  <path class="cls-8" d="M517.5,73.73c-2.2-1.04-4.69.72-4.44,3.14l3.55,34.54c.17,1.68,1.21,3.15,2.74,3.87l67.11,31.73-27.19,19.53c-1.21.87-1.86,2.32-1.71,3.8l3.77,36.69c.17,1.63,2.04,2.47,3.37,1.52l58.83-42.24c1.01-.73,1.55-1.94,1.43-3.17l-3.98-38.8c-.12-1.21-.87-2.27-1.97-2.78l-101.48-47.81Z"/>
  <path class="cls-7" d="M745.87,213.77c2.2,1.04,4.69-.72,4.44-3.14l-3.55-34.54c-.17-1.68-1.21-3.15-2.74-3.87l-67.11-31.73,27.19-19.53c1.21-.87,1.86-2.32,1.71-3.8l-3.77-36.69c-.17-1.63-2.04-2.47-3.37-1.52l-58.83,42.24c-1.01.73-1.55,1.94-1.43,3.17l3.98,38.8c.12,1.21.87,2.27,1.97,2.78l101.48,47.81Z"/>
  <path class="cls-3" d="M721.1,48.32c2.02-1.35,1.79-4.39-.41-5.42l-31.45-14.71c-1.53-.72-3.33-.58-4.73.36l-61.71,41.26-2.78-33.36c-.12-1.48-1.03-2.79-2.38-3.42l-33.41-15.63c-1.49-.69-3.17.48-3.03,2.11l6,72.17c.1,1.24.86,2.33,1.99,2.86l35.33,16.53c1.1.52,2.39.42,3.4-.26l93.17-62.48Z"/>
  <path class="cls-5" d="M540.68,242.37c-1.98,1.42-1.64,4.45.59,5.41l31.92,13.66c1.55.66,3.34.47,4.72-.52l60.31-43.28,3.88,33.25c.17,1.48,1.12,2.75,2.49,3.34l33.91,14.51c1.51.65,3.15-.58,2.96-2.21l-8.39-71.93c-.14-1.24-.94-2.3-2.08-2.79l-35.86-15.34c-1.12-.48-2.41-.34-3.39.37l-91.05,65.54Z"/>
  <path class="cls-8" d="M34.29,636.98c-2.2-1.04-4.69.72-4.44,3.14l3.55,34.54c.17,1.68,1.21,3.15,2.74,3.87l67.11,31.73-27.19,19.53c-1.21.87-1.86,2.32-1.71,3.8l3.77,36.69c.17,1.63,2.04,2.47,3.37,1.52l58.83-42.24c1.01-.73,1.55-1.94,1.43-3.17l-3.98-38.8c-.12-1.21-.87-2.27-1.97-2.78l-101.48-47.81Z"/>
  <path class="cls-7" d="M262.67,777.02c2.2,1.04,4.69-.72,4.44-3.14l-3.55-34.54c-.17-1.68-1.21-3.15-2.74-3.87l-67.11-31.73,27.19-19.53c1.21-.87,1.86-2.32,1.71-3.8l-3.77-36.69c-.17-1.63-2.04-2.47-3.37-1.52l-58.83,42.24c-1.01.73-1.55,1.94-1.43,3.17l3.98,38.8c.12,1.21.87,2.27,1.97,2.78l101.48,47.81Z"/>
  <path class="cls-3" d="M237.89,611.57c2.02-1.35,1.79-4.39-.41-5.42l-31.45-14.71c-1.53-.72-3.33-.58-4.73.36l-61.71,41.26-2.78-33.36c-.12-1.48-1.03-2.79-2.38-3.42l-33.41-15.63c-1.49-.69-3.17.48-3.03,2.11l6,72.17c.1,1.24.86,2.33,1.99,2.86l35.33,16.53c1.1.52,2.39.42,3.4-.26l93.17-62.48Z"/>
  <path class="cls-5" d="M57.48,805.62c-1.98,1.42-1.64,4.45.59,5.41l31.92,13.66c1.55.66,3.34.47,4.72-.52l60.31-43.28,3.88,33.25c.17,1.48,1.12,2.75,2.49,3.34l33.91,14.51c1.51.65,3.15-.58,2.96-2.21l-8.39-71.93c-.14-1.24-.94-2.3-2.08-2.79l-35.86-15.34c-1.12-.48-2.41-.34-3.39.37l-91.05,65.54Z"/>
  <path class="cls-8" d="M198.62,528.79c-2.2-1.04-4.69.72-4.44,3.14l3.55,34.54c.17,1.68,1.21,3.15,2.74,3.87l67.11,31.73-27.19,19.53c-1.21.87-1.86,2.32-1.71,3.8l3.77,36.69c.17,1.63,2.04,2.47,3.37,1.52l58.83-42.24c1.01-.73,1.55-1.94,1.43-3.17l-3.98-38.8c-.12-1.21-.87-2.27-1.97-2.78l-101.48-47.81Z"/>
  <path class="cls-7" d="M427,668.83c2.2,1.04,4.69-.72,4.44-3.14l-3.55-34.54c-.17-1.68-1.21-3.15-2.74-3.87l-67.11-31.73,27.19-19.53c1.21-.87,1.86-2.32,1.71-3.8l-3.77-36.69c-.17-1.63-2.04-2.47-3.37-1.52l-58.83,42.24c-1.01.73-1.55,1.94-1.43,3.17l3.98,38.8c.12,1.21.87,2.27,1.97,2.78l101.48,47.81Z"/>
  <path class="cls-3" d="M402.22,503.38c2.02-1.35,1.79-4.39-.41-5.42l-31.45-14.71c-1.53-.72-3.33-.58-4.73.36l-61.71,41.26-2.78-33.36c-.12-1.48-1.03-2.79-2.38-3.42l-33.41-15.63c-1.49-.69-3.17.48-3.03,2.11l6,72.17c.1,1.24.86,2.33,1.99,2.86l35.33,16.53c1.1.52,2.39.42,3.4-.26l93.17-62.48Z"/>
  <path class="cls-5" d="M221.8,697.43c-1.98,1.42-1.64,4.45.59,5.41l31.92,13.66c1.55.66,3.34.47,4.72-.52l60.31-43.28,3.88,33.25c.17,1.48,1.12,2.75,2.49,3.34l33.91,14.51c1.51.65,3.15-.58,2.96-2.21l-8.39-71.93c-.14-1.24-.94-2.3-2.08-2.79l-35.86-15.34c-1.12-.48-2.41-.34-3.39.37l-91.05,65.54Z"/>
  <path class="cls-5" d="M389.07,588c-1.98,1.42-1.64,4.45.59,5.41l31.92,13.66c1.55.66,3.34.47,4.72-.52l60.31-43.28,3.88,33.25c.17,1.48,1.12,2.75,2.49,3.34l33.91,14.51c1.51.65,3.15-.58,2.96-2.21l-8.39-71.93c-.14-1.24-.94-2.3-2.08-2.79l-35.86-15.34c-1.12-.48-2.41-.34-3.39.37l-91.05,65.54Z"/>
  <path class="cls-8" d="M45.56,878.23c-2.2-1.04-4.69.72-4.44,3.14l3.55,34.54c.17,1.68,1.21,3.15,2.74,3.87l67.11,31.73-27.19,19.53c-1.21.87-1.86,2.32-1.71,3.8l3.77,36.69c.17,1.63,2.04,2.47,3.37,1.52l58.83-42.24c1.01-.73,1.55-1.94,1.43-3.17l-3.98-38.8c-.12-1.21-.87-2.27-1.97-2.78l-101.48-47.81Z"/>
  <path class="cls-7" d="M273.94,1018.27c2.2,1.04,4.69-.72,4.44-3.14l-3.55-34.54c-.17-1.68-1.21-3.15-2.74-3.87l-67.11-31.73,27.19-19.53c1.21-.87,1.86-2.32,1.71-3.8l-3.77-36.69c-.17-1.63-2.04-2.47-3.37-1.52l-58.83,42.24c-1.01.73-1.55,1.94-1.43,3.17l3.98,38.8c.12,1.21.87,2.27,1.97,2.78l101.48,47.81Z"/>
  <path class="cls-3" d="M249.16,852.82c2.02-1.35,1.79-4.39-.41-5.42l-31.45-14.71c-1.53-.72-3.33-.58-4.73.36l-61.71,41.26-2.78-33.36c-.12-1.48-1.03-2.79-2.38-3.42l-33.41-15.63c-1.49-.69-3.17.48-3.03,2.11l6,72.17c.1,1.24.86,2.33,1.99,2.86l35.33,16.53c1.1.52,2.39.42,3.4-.26l93.17-62.48Z"/>
  <path class="cls-8" d="M209.89,770.04c-2.2-1.04-4.69.72-4.44,3.14l3.55,34.54c.17,1.68,1.21,3.15,2.74,3.87l67.11,31.73-27.19,19.53c-1.21.87-1.86,2.32-1.71,3.8l3.77,36.69c.17,1.63,2.04,2.47,3.37,1.52l58.83-42.24c1.01-.73,1.55-1.94,1.43-3.17l-3.98-38.8c-.12-1.21-.87-2.27-1.97-2.78l-101.48-47.81Z"/>
  <path class="cls-7" d="M438.27,910.07c2.2,1.04,4.69-.72,4.44-3.14l-3.55-34.54c-.17-1.68-1.21-3.15-2.74-3.87l-67.11-31.73,27.19-19.53c1.21-.87,1.86-2.32,1.71-3.8l-3.77-36.69c-.17-1.63-2.04-2.47-3.37-1.52l-58.83,42.24c-1.01.73-1.55,1.94-1.43,3.17l3.98,38.8c.12,1.21.87,2.27,1.97,2.78l101.48,47.81Z"/>
  <path class="cls-3" d="M413.49,744.63c2.02-1.35,1.79-4.39-.41-5.42l-31.45-14.71c-1.53-.72-3.33-.58-4.73.36l-61.71,41.26-2.78-33.36c-.12-1.48-1.03-2.79-2.38-3.42l-33.41-15.63c-1.49-.69-3.17.48-3.03,2.11l6,72.17c.1,1.24.86,2.33,1.99,2.86l35.33,16.53c1.1.52,2.39.42,3.4-.26l93.17-62.48Z"/>
  <path class="cls-5" d="M233.07,938.68c-1.98,1.42-1.64,4.45.59,5.41l31.92,13.66c1.55.66,3.34.47,4.72-.52l60.31-43.28,3.88,33.25c.17,1.48,1.12,2.75,2.49,3.34l33.91,14.51c1.51.65,3.15-.58,2.96-2.21l-8.39-71.93c-.14-1.24-.94-2.3-2.08-2.79l-35.86-15.34c-1.12-.48-2.41-.34-3.39.37l-91.05,65.54Z"/>
  <path class="cls-8" d="M378.32,662.38c-2.2-1.04-4.69.72-4.44,3.14l3.55,34.54c.17,1.68,1.21,3.15,2.74,3.87l67.11,31.73-27.19,19.53c-1.21.87-1.86,2.32-1.71,3.8l3.77,36.69c.17,1.63,2.04,2.47,3.37,1.52l58.83-42.24c1.01-.73,1.55-1.94,1.43-3.17l-3.98-38.8c-.12-1.21-.87-2.27-1.97-2.78l-101.48-47.81Z"/>
  <path class="cls-7" d="M606.7,802.41c2.2,1.04,4.69-.72,4.44-3.14l-3.55-34.54c-.17-1.68-1.21-3.15-2.74-3.87l-67.11-31.73,27.19-19.53c1.21-.87,1.86-2.32,1.71-3.8l-3.77-36.69c-.17-1.63-2.04-2.47-3.37-1.52l-58.83,42.24c-1.01.73-1.55,1.94-1.43,3.17l3.98,38.8c.12,1.21.87,2.27,1.97,2.78l101.48,47.81Z"/>
  <path class="cls-3" d="M581.92,636.97c2.02-1.35,1.79-4.39-.41-5.42l-31.45-14.71c-1.53-.72-3.33-.58-4.73.36l-61.71,41.26-2.78-33.36c-.12-1.48-1.03-2.79-2.38-3.42l-33.41-15.63c-1.49-.69-3.17.48-3.03,2.11l6,72.17c.1,1.24.86,2.33,1.99,2.86l35.33,16.53c1.1.52,2.39.42,3.4-.26l93.17-62.48Z"/>
  <path class="cls-5" d="M401.51,831.02c-1.98,1.42-1.64,4.45.59,5.41l31.92,13.66c1.55.66,3.34.47,4.72-.52l60.31-43.28,3.88,33.25c.17,1.48,1.12,2.75,2.49,3.34l33.91,14.51c1.51.65,3.15-.58,2.96-2.21l-8.39-71.93c-.14-1.24-.94-2.3-2.08-2.79l-35.86-15.34c-1.12-.48-2.41-.34-3.39.37l-91.05,65.54Z"/>
  <path class="cls-8" d="M542.65,554.19c-2.2-1.04-4.69.72-4.44,3.14l3.55,34.54c.17,1.68,1.21,3.15,2.74,3.87l67.11,31.73-27.19,19.53c-1.21.87-1.86,2.32-1.71,3.8l3.77,36.69c.17,1.63,2.04,2.47,3.37,1.52l58.83-42.24c1.01-.73,1.55-1.94,1.43-3.17l-3.98-38.8c-.12-1.21-.87-2.27-1.97-2.78l-101.48-47.81Z"/>
  <path class="cls-7" d="M771.03,694.22c2.2,1.04,4.69-.72,4.44-3.14l-3.55-34.54c-.17-1.68-1.21-3.15-2.74-3.87l-67.11-31.73,27.19-19.53c1.21-.87,1.86-2.32,1.71-3.8l-3.77-36.69c-.17-1.63-2.04-2.47-3.37-1.52l-58.83,42.24c-1.01.73-1.55,1.94-1.43,3.17l3.98,38.8c.12,1.21.87,2.27,1.97,2.78l101.48,47.81Z"/>
  <path class="cls-3" d="M746.25,528.78c2.02-1.35,1.79-4.39-.41-5.42l-31.45-14.71c-1.53-.72-3.33-.58-4.73.36l-61.71,41.26-2.78-33.36c-.12-1.48-1.03-2.79-2.38-3.42l-33.41-15.63c-1.49-.69-3.17.48-3.03,2.11l6,72.17c.1,1.24.86,2.33,1.99,2.86l35.33,16.53c1.1.52,2.39.42,3.4-.26l93.17-62.48Z"/>
  <path class="cls-5" d="M565.84,722.83c-1.98,1.42-1.64,4.45.59,5.41l31.92,13.66c1.55.66,3.34.47,4.72-.52l60.31-43.28,3.88,33.25c.17,1.48,1.12,2.75,2.49,3.34l33.91,14.51c1.51.65,3.15-.58,2.96-2.21l-8.39-71.93c-.14-1.24-.94-2.3-2.08-2.79l-35.86-15.34c-1.12-.48-2.41-.34-3.39.37l-91.05,65.54Z"/>
  <path class="cls-8" d="M368.38,422.69c-2.2-1.04-4.69.72-4.44,3.14l3.55,34.54c.17,1.68,1.21,3.15,2.74,3.87l67.11,31.73-27.19,19.53c-1.21.87-1.86,2.32-1.71,3.8l3.77,36.69c.17,1.63,2.04,2.47,3.37,1.52l58.83-42.24c1.01-.73,1.55-1.94,1.43-3.17l-3.98-38.8c-.12-1.21-.87-2.27-1.97-2.78l-101.48-47.81Z"/>
  <path class="cls-7" d="M596.75,562.73c2.2,1.04,4.69-.72,4.44-3.14l-3.55-34.54c-.17-1.68-1.21-3.15-2.74-3.87l-67.11-31.73,27.19-19.53c1.21-.87,1.86-2.32,1.71-3.8l-3.77-36.69c-.17-1.63-2.04-2.47-3.37-1.52l-58.83,42.24c-1.01.73-1.55,1.94-1.43,3.17l3.98,38.8c.12,1.21.87,2.27,1.97,2.78l101.48,47.81Z"/>
  <path class="cls-3" d="M571.98,397.28c2.02-1.35,1.79-4.39-.41-5.42l-31.45-14.71c-1.53-.72-3.33-.58-4.73.36l-61.71,41.26-2.78-33.36c-.12-1.48-1.03-2.79-2.38-3.42l-33.41-15.63c-1.49-.69-3.17.48-3.03,2.11l6,72.17c.1,1.24.86,2.33,1.99,2.86l35.33,16.53c1.1.52,2.39.42,3.4-.26l93.17-62.48Z"/>
  <path class="cls-8" d="M532.7,314.5c-2.2-1.04-4.69.72-4.44,3.14l3.55,34.54c.17,1.68,1.21,3.15,2.74,3.87l67.11,31.73-27.19,19.53c-1.21.87-1.86,2.32-1.71,3.8l3.77,36.69c.17,1.63,2.04,2.47,3.37,1.52l58.83-42.24c1.01-.73,1.55-1.94,1.43-3.17l-3.98-38.8c-.12-1.21-.87-2.27-1.97-2.78l-101.48-47.81Z"/>
  <path class="cls-7" d="M761.08,454.54c2.2,1.04,4.69-.72,4.44-3.14l-3.55-34.54c-.17-1.68-1.21-3.15-2.74-3.87l-67.11-31.73,27.19-19.53c1.21-.87,1.86-2.32,1.71-3.8l-3.77-36.69c-.17-1.63-2.04-2.47-3.37-1.52l-58.83,42.24c-1.01.73-1.55,1.94-1.43,3.17l3.98,38.8c.12,1.21.87,2.27,1.97,2.78l101.48,47.81Z"/>
  <path class="cls-3" d="M736.3,289.09c2.02-1.35,1.79-4.39-.41-5.42l-31.45-14.71c-1.53-.72-3.33-.58-4.73.36l-61.71,41.26-2.78-33.36c-.12-1.48-1.03-2.79-2.38-3.42l-33.41-15.63c-1.49-.69-3.17.48-3.03,2.11l6,72.17c.1,1.24.86,2.33,1.99,2.86l35.33,16.53c1.1.52,2.39.42,3.4-.26l93.17-62.48Z"/>
  <path class="cls-5" d="M555.89,483.14c-1.98,1.42-1.64,4.45.59,5.41l31.92,13.66c1.55.66,3.34.47,4.72-.52l60.31-43.28,3.88,33.25c.17,1.48,1.12,2.75,2.49,3.34l33.91,14.51c1.51.65,3.15-.58,2.96-2.21l-8.39-71.93c-.14-1.24-.94-2.3-2.08-2.79l-35.86-15.34c-1.12-.48-2.41-.34-3.39.37l-91.05,65.54Z"/>
  <path class="cls-5" d="M723.15,373.71c-1.98,1.42-1.64,4.45.59,5.41l31.92,13.66c1.55.66,3.34.47,4.72-.52l60.31-43.28,3.88,33.25c.17,1.48,1.12,2.75,2.49,3.34l33.91,14.51c1.51.65,3.15-.58,2.96-2.21l-8.39-71.93c-.14-1.24-.94-2.3-2.08-2.79l-35.86-15.34c-1.12-.48-2.41-.34-3.39.37l-91.05,65.54Z"/>
  <path class="cls-8" d="M379.64,663.94c-2.2-1.04-4.69.72-4.44,3.14l3.55,34.54c.17,1.68,1.21,3.15,2.74,3.87l67.11,31.73-27.19,19.53c-1.21.87-1.86,2.32-1.71,3.8l3.77,36.69c.17,1.63,2.04,2.47,3.37,1.52l58.83-42.24c1.01-.73,1.55-1.94,1.43-3.17l-3.98-38.8c-.12-1.21-.87-2.27-1.97-2.78l-101.48-47.81Z"/>
  <path class="cls-7" d="M772.35,695.79c2.2,1.04,4.69-.72,4.44-3.14l-3.55-34.54c-.17-1.68-1.21-3.15-2.74-3.87l-67.11-31.73,27.19-19.53c1.21-.87,1.86-2.32,1.71-3.8l-3.77-36.69c-.17-1.63-2.04-2.47-3.37-1.52l-58.83,42.24c-1.01.73-1.55,1.94-1.43,3.17l3.98,38.8c.12,1.21.87,2.27,1.97,2.78l101.48,47.81Z"/>
  <path class="cls-8" d="M712.41,448.09c-2.2-1.04-4.69.72-4.44,3.14l3.55,34.54c.17,1.68,1.21,3.15,2.74,3.87l67.11,31.73-27.19,19.53c-1.21.87-1.86,2.32-1.71,3.8l3.77,36.69c.17,1.63,2.04,2.47,3.37,1.52l58.83-42.24c1.01-.73,1.55-1.94,1.43-3.17l-3.98-38.8c-.12-1.21-.87-2.27-1.97-2.78l-101.48-47.81Z"/>
  <path class="cls-7" d="M940.78,588.12c2.2,1.04,4.69-.72,4.44-3.14l-3.55-34.54c-.17-1.68-1.21-3.15-2.74-3.87l-67.11-31.73,27.19-19.53c1.21-.87,1.86-2.32,1.71-3.8l-3.77-36.69c-.17-1.63-2.04-2.47-3.37-1.52l-58.83,42.24c-1.01.73-1.55,1.94-1.43,3.17l3.98,38.8c.12,1.21.87,2.27,1.97,2.78l101.48,47.81Z"/>
  <path class="cls-3" d="M916.01,422.68c2.02-1.35,1.79-4.39-.41-5.42l-31.45-14.71c-1.53-.72-3.33-.58-4.73.36l-61.71,41.26-2.78-33.36c-.12-1.48-1.03-2.79-2.38-3.42l-33.41-15.63c-1.49-.69-3.17.48-3.03,2.11l6,72.17c.1,1.24.86,2.33,1.99,2.86l35.33,16.53c1.1.52,2.39.42,3.4-.26l93.17-62.48Z"/>
  <path class="cls-5" d="M735.59,616.73c-1.98,1.42-1.64,4.45.59,5.41l31.92,13.66c1.55.66,3.34.47,4.72-.52l60.31-43.28,3.88,33.25c.17,1.48,1.12,2.75,2.49,3.34l33.91,14.51c1.51.65,3.15-.58,2.96-2.21l-8.39-71.93c-.14-1.24-.94-2.3-2.08-2.79l-35.86-15.34c-1.12-.48-2.41-.34-3.39.37l-91.05,65.54Z"/>
  <path class="cls-8" d="M876.74,339.9c-2.2-1.04-4.69.72-4.44,3.14l3.55,34.54c.17,1.68,1.21,3.15,2.74,3.87l67.11,31.73-27.19,19.53c-1.21.87-1.86,2.32-1.71,3.8l3.77,36.69c.17,1.63,2.04,2.47,3.37,1.52l58.83-42.24c1.01-.73,1.55-1.94,1.43-3.17l-3.98-38.8c-.12-1.21-.87-2.27-1.97-2.78l-101.48-47.81Z"/>
  <path class="cls-7" d="M1105.11,479.93c2.2,1.04,4.69-.72,4.44-3.14l-3.55-34.54c-.17-1.68-1.21-3.15-2.74-3.87l-67.11-31.73,27.19-19.53c1.21-.87,1.86-2.32,1.71-3.8l-3.77-36.69c-.17-1.63-2.04-2.47-3.37-1.52l-58.83,42.24c-1.01.73-1.55,1.94-1.43,3.17l3.98,38.8c.12,1.21.87,2.27,1.97,2.78l101.48,47.81Z"/>
  <path class="cls-3" d="M1080.34,314.49c2.02-1.35,1.79-4.39-.41-5.42l-31.45-14.71c-1.53-.72-3.33-.58-4.73.36l-61.71,41.26-2.78-33.36c-.12-1.48-1.03-2.79-2.38-3.42l-33.41-15.63c-1.49-.69-3.17.48-3.03,2.11l6,72.17c.1,1.24.86,2.33,1.99,2.86l35.33,16.53c1.1.52,2.39.42,3.4-.26l93.17-62.48Z"/>
  <path class="cls-5" d="M899.92,508.54c-1.98,1.42-1.64,4.45.59,5.41l31.92,13.66c1.55.66,3.34.47,4.72-.52l60.31-43.28,3.88,33.25c.17,1.48,1.12,2.75,2.49,3.34l33.91,14.51c1.51.65,3.15-.58,2.96-2.21l-8.39-71.93c-.14-1.24-.94-2.3-2.08-2.79l-35.86-15.34c-1.12-.48-2.41-.34-3.39.37l-91.05,65.54Z"/>
  <path class="cls-7" d="M1277.91,351.87c2.2,1.04,4.69-.72,4.44-3.14l-3.55-34.54c-.17-1.68-1.21-3.15-2.74-3.87l-67.11-31.73,27.19-19.53c1.21-.87,1.86-2.32,1.71-3.8l-3.77-36.69c-.17-1.63-2.04-2.47-3.37-1.52l-58.83,42.24c-1.01.73-1.55,1.94-1.43,3.17l3.98,38.8c.12,1.21.87,2.27,1.97,2.78l101.48,47.81Z"/>
  <path class="cls-7" d="M1446.34,244.21c2.2,1.04,4.69-.72,4.44-3.14l-3.55-34.54c-.17-1.68-1.21-3.15-2.74-3.87l-67.11-31.73,27.19-19.53c1.21-.87,1.86-2.32,1.71-3.8l-3.77-36.69c-.17-1.63-2.04-2.47-3.37-1.52l-58.83,42.24c-1.01.73-1.55,1.94-1.43,3.17l3.98,38.8c.12,1.21.87,2.27,1.97,2.78l101.48,47.81Z"/>
  <path class="cls-5" d="M1241.15,272.81c-1.98,1.42-1.64,4.45.59,5.41l31.92,13.66c1.55.66,3.34.47,4.72-.52l60.31-43.28,3.88,33.25c.17,1.48,1.12,2.75,2.49,3.34l33.91,14.51c1.51.65,3.15-.58,2.96-2.21l-8.39-71.93c-.14-1.24-.94-2.3-2.08-2.79l-35.86-15.34c-1.12-.48-2.41-.34-3.39.37l-91.05,65.54Z"/>
  <path class="cls-5" d="M1072.12,396.93c-1.98,1.42-1.64,4.45.59,5.41l31.92,13.66c1.55.66,3.34.47,4.72-.52l60.31-43.28,3.88,33.25c.17,1.48,1.12,2.75,2.49,3.34l33.91,14.51c1.51.65,3.15-.58,2.96-2.21l-8.39-71.93c-.14-1.24-.94-2.3-2.08-2.79l-35.86-15.34c-1.12-.48-2.41-.34-3.39.37l-91.05,65.54Z"/>
  <path class="cls-7" d="M1610.67,136.02c2.2,1.04,4.69-.72,4.44-3.14l-3.55-34.54c-.17-1.68-1.21-3.15-2.74-3.87l-67.11-31.73,27.19-19.53c1.21-.87,1.86-2.32,1.71-3.8l-3.77-36.69c-.17-1.63-2.04-2.47-3.37-1.52l-58.83,42.24c-1.01.73-1.55,1.94-1.43,3.17l3.98,38.8c.12,1.21.87,2.27,1.97,2.78l101.48,47.81Z"/>
  <path class="cls-5" d="M1405.48,164.62c-1.98,1.42-1.64,4.45.59,5.41l31.92,13.66c1.55.66,3.34.47,4.72-.52l60.31-43.28,3.88,33.25c.17,1.48,1.12,2.75,2.49,3.34l33.91,14.51c1.51.65,3.15-.58,2.96-2.21l-8.39-71.93c-.14-1.24-.94-2.3-2.08-2.79l-35.86-15.34c-1.12-.48-2.41-.34-3.39.37l-91.05,65.54Z"/>
  <path class="cls-7" d="M926.19,347.87c2.2,1.04,4.69-.72,4.44-3.14l-3.55-34.54c-.17-1.68-1.21-3.15-2.74-3.87l-67.11-31.73,27.19-19.53c1.21-.87,1.86-2.32,1.71-3.8l-3.77-36.69c-.17-1.63-2.04-2.47-3.37-1.52l-58.83,42.24c-1.01.73-1.55,1.94-1.43,3.17l3.98,38.8c.12,1.21.87,2.27,1.97,2.78l101.48,47.81Z"/>
  <path class="cls-7" d="M1100.08,226.54c2.2,1.04,4.69-.72,4.44-3.14l-3.55-34.54c-.17-1.68-1.21-3.15-2.74-3.87l-67.11-31.73,27.19-19.53c1.21-.87,1.86-2.32,1.71-3.8l-3.77-36.69c-.17-1.63-2.04-2.47-3.37-1.52l-58.83,42.24c-1.01.73-1.55,1.94-1.43,3.17l3.98,38.8c.12,1.21.87,2.27,1.97,2.78l101.48,47.81Z"/>
  <path class="cls-5" d="M889.44,268.81c-1.98,1.42-1.64,4.45.59,5.41l31.92,13.66c1.55.66,3.34.47,4.72-.52l60.31-43.28,3.88,33.25c.17,1.48,1.12,2.75,2.49,3.34l33.91,14.51c1.51.65,3.15-.58,2.96-2.21l-8.39-71.93c-.14-1.24-.94-2.3-2.08-2.79l-35.86-15.34c-1.12-.48-2.41-.34-3.39.37l-91.05,65.54Z"/>
  <path class="cls-7" d="M1264.41,118.35c2.2,1.04,4.69-.72,4.44-3.14l-3.55-34.54c-.17-1.68-1.21-3.15-2.74-3.87l-67.11-31.73,27.19-19.53c1.21-.87,1.86-2.32,1.71-3.8l-3.77-36.69c-.17-1.63-2.04-2.47-3.37-1.52l-58.83,42.24c-1.01.73-1.55,1.94-1.43,3.17l3.98,38.8c.12,1.21.87,2.27,1.97,2.78l101.48,47.81Z"/>
  <path class="cls-5" d="M1059.22,146.96c-1.98,1.42-1.64,4.45.59,5.41l31.92,13.66c1.55.66,3.34.47,4.72-.52l60.31-43.28,3.88,33.25c.17,1.48,1.12,2.75,2.49,3.34l33.91,14.51c1.51.65,3.15-.58,2.96-2.21l-8.39-71.93c-.14-1.24-.94-2.3-2.08-2.79l-35.86-15.34c-1.12-.48-2.41-.34-3.39.37l-91.05,65.54Z"/>
  <path class="cls-8" d="M1401.77,241.68c-2.2-1.04-4.69.72-4.44,3.14l3.55,34.54c.17,1.68,1.21,3.15,2.74,3.87l67.11,31.73-27.19,19.53c-1.21.87-1.86,2.32-1.71,3.8l3.77,36.69c.17,1.63,2.04,2.47,3.37,1.52l58.83-42.24c1.01-.73,1.55-1.94,1.43-3.17l-3.98-38.8c-.12-1.21-.87-2.27-1.97-2.78l-101.48-47.81Z"/>
  <path class="cls-3" d="M1605.37,216.27c2.02-1.35,1.79-4.39-.41-5.42l-31.45-14.71c-1.53-.72-3.33-.58-4.73.36l-61.71,41.26-2.78-33.36c-.12-1.48-1.03-2.79-2.38-3.42l-33.41-15.63c-1.49-.69-3.17.48-3.03,2.11l6,72.17c.1,1.24.86,2.33,1.99,2.86l35.33,16.53c1.1.52,2.39.42,3.4-.26l93.17-62.48Z"/>
  <path class="cls-8" d="M1566.1,133.49c-2.2-1.04-4.69.72-4.44,3.14l3.55,34.54c.17,1.68,1.21,3.15,2.74,3.87l67.11,31.73-27.19,19.53c-1.21.87-1.86,2.32-1.71,3.8l3.77,36.69c.17,1.63,2.04,2.47,3.37,1.52l58.83-42.24c1.01-.73,1.55-1.94,1.43-3.17l-3.98-38.8c-.12-1.21-.87-2.27-1.97-2.78l-101.48-47.81Z"/>
  <path class="cls-3" d="M1769.7,108.08c2.02-1.35,1.79-4.39-.41-5.42l-31.45-14.71c-1.53-.72-3.33-.58-4.73.36l-61.71,41.26-2.78-33.36c-.12-1.48-1.03-2.79-2.38-3.42l-33.41-15.63c-1.49-.69-3.17.48-3.03,2.11l6,72.17c.1,1.24.86,2.33,1.99,2.86l35.33,16.53c1.1.52,2.39.42,3.4-.26l93.17-62.48Z"/>
  <path class="cls-8" d="M397.36,902.69c-2.2-1.04-4.69.72-4.44,3.14l3.55,34.54c.17,1.68,1.21,3.15,2.74,3.87l67.11,31.73-27.19,19.53c-1.21.87-1.86,2.32-1.71,3.8l3.77,36.69c.17,1.63,2.04,2.47,3.37,1.52l58.83-42.24c1.01-.73,1.55-1.94,1.43-3.17l-3.98-38.8c-.12-1.21-.87-2.27-1.97-2.78l-101.48-47.81Z"/>
  <path class="cls-7" d="M625.74,1042.73c2.2,1.04,4.69-.72,4.44-3.14l-3.55-34.54c-.17-1.68-1.21-3.15-2.74-3.87l-67.11-31.73,27.19-19.53c1.21-.87,1.86-2.32,1.71-3.8l-3.77-36.69c-.17-1.63-2.04-2.47-3.37-1.52l-58.83,42.24c-1.01.73-1.55,1.94-1.43,3.17l3.98,38.8c.12,1.21.87,2.27,1.97,2.78l101.48,47.81Z"/>
  <path class="cls-3" d="M600.96,877.28c2.02-1.35,1.79-4.39-.41-5.42l-31.45-14.71c-1.53-.72-3.33-.58-4.73.36l-61.71,41.26-2.78-33.36c-.12-1.48-1.03-2.79-2.38-3.42l-33.41-15.63c-1.49-.69-3.17.48-3.03,2.11l6,72.17c.1,1.24.86,2.33,1.99,2.86l35.33,16.53c1.1.52,2.39.42,3.4-.26l93.17-62.48Z"/>
  <path class="cls-8" d="M561.69,794.5c-2.2-1.04-4.69.72-4.44,3.14l3.55,34.54c.17,1.68,1.21,3.15,2.74,3.87l67.11,31.73-27.19,19.53c-1.21.87-1.86,2.32-1.71,3.8l3.77,36.69c.17,1.63,2.04,2.47,3.37,1.52l58.83-42.24c1.01-.73,1.55-1.94,1.43-3.17l-3.98-38.8c-.12-1.21-.87-2.27-1.97-2.78l-101.48-47.81Z"/>
  <path class="cls-7" d="M790.07,934.54c2.2,1.04,4.69-.72,4.44-3.14l-3.55-34.54c-.17-1.68-1.21-3.15-2.74-3.87l-67.11-31.73,27.19-19.53c1.21-.87,1.86-2.32,1.71-3.8l-3.77-36.69c-.17-1.63-2.04-2.47-3.37-1.52l-58.83,42.24c-1.01.73-1.55,1.94-1.43,3.17l3.98,38.8c.12,1.21.87,2.27,1.97,2.78l101.48,47.81Z"/>
  <path class="cls-3" d="M765.29,769.09c2.02-1.35,1.79-4.39-.41-5.42l-31.45-14.71c-1.53-.72-3.33-.58-4.73.36l-61.71,41.26-2.78-33.36c-.12-1.48-1.03-2.79-2.38-3.42l-33.41-15.63c-1.49-.69-3.17.48-3.03,2.11l6,72.17c.1,1.24.86,2.33,1.99,2.86l35.33,16.53c1.1.52,2.39.42,3.4-.26l93.17-62.48Z"/>
  <path class="cls-5" d="M584.88,963.14c-1.98,1.42-1.64,4.45.59,5.41l31.92,13.66c1.55.66,3.34.47,4.72-.52l60.31-43.28,3.88,33.25c.17,1.48,1.12,2.75,2.49,3.34l33.91,14.51c1.51.65,3.15-.58,2.96-2.21l-8.39-71.93c-.14-1.24-.94-2.3-2.08-2.79l-35.86-15.34c-1.12-.48-2.41-.34-3.39.37l-91.05,65.54Z"/>
  <path class="cls-8" d="M730.13,686.84c-2.2-1.04-4.69.72-4.44,3.14l3.55,34.54c.17,1.68,1.21,3.15,2.74,3.87l67.11,31.73-27.19,19.53c-1.21.87-1.86,2.32-1.71,3.8l3.77,36.69c.17,1.63,2.04,2.47,3.37,1.52l58.83-42.24c1.01-.73,1.55-1.94,1.43-3.17l-3.98-38.8c-.12-1.21-.87-2.27-1.97-2.78l-101.48-47.81Z"/>
  <path class="cls-7" d="M958.5,826.88c2.2,1.04,4.69-.72,4.44-3.14l-3.55-34.54c-.17-1.68-1.21-3.15-2.74-3.87l-67.11-31.73,27.19-19.53c1.21-.87,1.86-2.32,1.71-3.8l-3.77-36.69c-.17-1.63-2.04-2.47-3.37-1.52l-58.83,42.24c-1.01.73-1.55,1.94-1.43,3.17l3.98,38.8c.12,1.21.87,2.27,1.97,2.78l101.48,47.81Z"/>
  <path class="cls-3" d="M933.73,661.43c2.02-1.35,1.79-4.39-.41-5.42l-31.45-14.71c-1.53-.72-3.33-.58-4.73.36l-61.71,41.26-2.78-33.36c-.12-1.48-1.03-2.79-2.38-3.42l-33.41-15.63c-1.49-.69-3.17.48-3.03,2.11l6,72.17c.1,1.24.86,2.33,1.99,2.86l35.33,16.53c1.1.52,2.39.42,3.4-.26l93.17-62.48Z"/>
  <path class="cls-3" d="M1109.97,552.2c2.02-1.35,1.79-4.39-.41-5.42l-31.45-14.71c-1.53-.72-3.33-.58-4.73.36l-61.71,41.26-2.78-33.36c-.12-1.48-1.03-2.79-2.38-3.42l-33.41-15.63c-1.49-.69-3.17.48-3.03,2.11l6,72.17c.1,1.24.86,2.33,1.99,2.86l35.33,16.53c1.1.52,2.39.42,3.4-.26l93.17-62.48Z"/>
  <path class="cls-5" d="M753.31,855.48c-1.98,1.42-1.64,4.45.59,5.41l31.92,13.66c1.55.66,3.34.47,4.72-.52l60.31-43.28,3.88,33.25c.17,1.48,1.12,2.75,2.49,3.34l33.91,14.51c1.51.65,3.15-.58,2.96-2.21l-8.39-71.93c-.14-1.24-.94-2.3-2.08-2.79l-35.86-15.34c-1.12-.48-2.41-.34-3.39.37l-91.05,65.54Z"/>
  <path class="cls-8" d="M894.46,578.65c-2.2-1.04-4.69.72-4.44,3.14l3.55,34.54c.17,1.68,1.21,3.15,2.74,3.87l67.11,31.73-27.19,19.53c-1.21.87-1.86,2.32-1.71,3.8l3.77,36.69c.17,1.63,2.04,2.47,3.37,1.52l58.83-42.24c1.01-.73,1.55-1.94,1.43-3.17l-3.98-38.8c-.12-1.21-.87-2.27-1.97-2.78l-101.48-47.81Z"/>
  <path class="cls-7" d="M1122.83,718.69c2.2,1.04,4.69-.72,4.44-3.14l-3.55-34.54c-.17-1.68-1.21-3.15-2.74-3.87l-67.11-31.73,27.19-19.53c1.21-.87,1.86-2.32,1.71-3.8l-3.77-36.69c-.17-1.63-2.04-2.47-3.37-1.52l-58.83,42.24c-1.01.73-1.55,1.94-1.43,3.17l3.98,38.8c.12,1.21.87,2.27,1.97,2.78l101.48,47.81Z"/>
  <path class="cls-5" d="M917.64,747.29c-1.98,1.42-1.64,4.45.59,5.41l31.92,13.66c1.55.66,3.34.47,4.72-.52l60.31-43.28,3.88,33.25c.17,1.48,1.12,2.75,2.49,3.34l33.91,14.51c1.51.65,3.15-.58,2.96-2.21l-8.39-71.93c-.14-1.24-.94-2.3-2.08-2.79l-35.86-15.34c-1.12-.48-2.41-.34-3.39.37l-91.05,65.54Z"/>
  <path class="cls-8" d="M731.45,688.4c-2.2-1.04-4.69.72-4.44,3.14l3.55,34.54c.17,1.68,1.21,3.15,2.74,3.87l67.11,31.73-27.19,19.53c-1.21.87-1.86,2.32-1.71,3.8l3.77,36.69c.17,1.63,2.04,2.47,3.37,1.52l58.83-42.24c1.01-.73,1.55-1.94,1.43-3.17l-3.98-38.8c-.12-1.21-.87-2.27-1.97-2.78l-101.48-47.81Z"/>
  <path class="cls-7" d="M1124.16,720.25c2.2,1.04,4.69-.72,4.44-3.14l-3.55-34.54c-.17-1.68-1.21-3.15-2.74-3.87l-67.11-31.73,27.19-19.53c1.21-.87,1.86-2.32,1.71-3.8l-3.77-36.69c-.17-1.63-2.04-2.47-3.37-1.52l-58.83,42.24c-1.01.73-1.55,1.94-1.43,3.17l3.98,38.8c.12,1.21.87,2.27,1.97,2.78l101.48,47.81Z"/>
  <path class="cls-8" d="M1064.21,472.55c-2.2-1.04-4.69.72-4.44,3.14l3.55,34.54c.17,1.68,1.21,3.15,2.74,3.87l67.11,31.73-27.19,19.53c-1.21.87-1.86,2.32-1.71,3.8l3.77,36.69c.17,1.63,2.04,2.47,3.37,1.52l58.83-42.24c1.01-.73,1.55-1.94,1.43-3.17l-3.98-38.8c-.12-1.21-.87-2.27-1.97-2.78l-101.48-47.81Z"/>
  <path class="cls-8" d="M1228.82,367.24c-2.2-1.04-4.69.72-4.44,3.14l3.55,34.54c.17,1.68,1.21,3.15,2.74,3.87l67.11,31.73-27.19,19.53c-1.21.87-1.86,2.32-1.71,3.8l3.77,36.69c.17,1.63,2.04,2.47,3.37,1.52l58.83-42.24c1.01-.73,1.55-1.94,1.43-3.17l-3.98-38.8c-.12-1.21-.87-2.27-1.97-2.78l-101.48-47.81Z"/>
  <path class="cls-7" d="M1292.59,612.59c2.2,1.04,4.69-.72,4.44-3.14l-3.55-34.54c-.17-1.68-1.21-3.15-2.74-3.87l-67.11-31.73,27.19-19.53c1.21-.87,1.86-2.32,1.71-3.8l-3.77-36.69c-.17-1.63-2.04-2.47-3.37-1.52l-58.83,42.24c-1.01.73-1.55,1.94-1.43,3.17l3.98,38.8c.12,1.21.87,2.27,1.97,2.78l101.48,47.81Z"/>
  <path class="cls-3" d="M1267.81,447.14c2.02-1.35,1.79-4.39-.41-5.42l-31.45-14.71c-1.53-.72-3.33-.58-4.73.36l-61.71,41.26-2.78-33.36c-.12-1.48-1.03-2.79-2.38-3.42l-33.41-15.63c-1.49-.69-3.17.48-3.03,2.11l6,72.17c.1,1.24.86,2.33,1.99,2.86l35.33,16.53c1.1.52,2.39.42,3.4-.26l93.17-62.48Z"/>
  <path class="cls-5" d="M1087.4,641.19c-1.98,1.42-1.64,4.45.59,5.41l31.92,13.66c1.55.66,3.34.47,4.72-.52l60.31-43.28,3.88,33.25c.17,1.48,1.12,2.75,2.49,3.34l33.91,14.51c1.51.65,3.15-.58,2.96-2.21l-8.39-71.93c-.14-1.24-.94-2.3-2.08-2.79l-35.86-15.34c-1.12-.48-2.41-.34-3.39.37l-91.05,65.54Z"/>
  <path class="cls-7" d="M1456.92,504.4c2.2,1.04,4.69-.72,4.44-3.14l-3.55-34.54c-.17-1.68-1.21-3.15-2.74-3.87l-67.11-31.73,27.19-19.53c1.21-.87,1.86-2.32,1.71-3.8l-3.77-36.69c-.17-1.63-2.04-2.47-3.37-1.52l-58.83,42.24c-1.01.73-1.55,1.94-1.43,3.17l3.98,38.8c.12,1.21.87,2.27,1.97,2.78l101.48,47.81Z"/>
  <path class="cls-3" d="M1432.14,338.95c2.02-1.35,1.79-4.39-.41-5.42l-31.45-14.71c-1.53-.72-3.33-.58-4.73.36l-61.71,41.26-2.78-33.36c-.12-1.48-1.03-2.79-2.38-3.42l-33.41-15.63c-1.49-.69-3.17.48-3.03,2.11l6,72.17c.1,1.24.86,2.33,1.99,2.86l35.33,16.53c1.1.52,2.39.42,3.4-.26l93.17-62.48Z"/>
  <path class="cls-5" d="M1251.73,533c-1.98,1.42-1.64,4.45.59,5.41l31.92,13.66c1.55.66,3.34.47,4.72-.52l60.31-43.28,3.88,33.25c.17,1.48,1.12,2.75,2.49,3.34l33.91,14.51c1.51.65,3.15-.58,2.96-2.21l-8.39-71.93c-.14-1.24-.94-2.3-2.08-2.79l-35.86-15.34c-1.12-.48-2.41-.34-3.39.37l-91.05,65.54Z"/>
  <path class="cls-7" d="M1629.71,376.33c2.2,1.04,4.69-.72,4.44-3.14l-3.55-34.54c-.17-1.68-1.21-3.15-2.74-3.87l-67.11-31.73,27.19-19.53c1.21-.87,1.86-2.32,1.71-3.8l-3.77-36.69c-.17-1.63-2.04-2.47-3.37-1.52l-58.83,42.24c-1.01.73-1.55,1.94-1.43,3.17l3.98,38.8c.12,1.21.87,2.27,1.97,2.78l101.48,47.81Z"/>
  <path class="cls-7" d="M1798.15,268.67c2.2,1.04,4.69-.72,4.44-3.14l-3.55-34.54c-.17-1.68-1.21-3.15-2.74-3.87l-67.11-31.73,27.19-19.53c1.21-.87,1.86-2.32,1.71-3.8l-3.77-36.69c-.17-1.63-2.04-2.47-3.37-1.52l-58.83,42.24c-1.01.73-1.55,1.94-1.43,3.17l3.98,38.8c.12,1.21.87,2.27,1.97,2.78l101.48,47.81Z"/>
  <path class="cls-5" d="M1592.95,297.28c-1.98,1.42-1.64,4.45.59,5.41l31.92,13.66c1.55.66,3.34.47,4.72-.52l60.31-43.28,3.88,33.25c.17,1.48,1.12,2.75,2.49,3.34l33.91,14.51c1.51.65,3.15-.58,2.96-2.21l-8.39-71.93c-.14-1.24-.94-2.3-2.08-2.79l-35.86-15.34c-1.12-.48-2.41-.34-3.39.37l-91.05,65.54Z"/>
  <path class="cls-5" d="M1423.92,421.39c-1.98,1.42-1.64,4.45.59,5.41l31.92,13.66c1.55.66,3.34.47,4.72-.52l60.31-43.28,3.88,33.25c.17,1.48,1.12,2.75,2.49,3.34l33.91,14.51c1.51.65,3.15-.58,2.96-2.21l-8.39-71.93c-.14-1.24-.94-2.3-2.08-2.79l-35.86-15.34c-1.12-.48-2.41-.34-3.39.37l-91.05,65.54Z"/>
  <path class="cls-8" d="M1588.59,372.59c-2.2-1.04-4.69.72-4.44,3.14l3.55,34.54c.17,1.68,1.21,3.15,2.74,3.87l67.11,31.73-27.19,19.53c-1.21.87-1.86,2.32-1.71,3.8l3.77,36.69c.17,1.63,2.04,2.47,3.37,1.52l58.83-42.24c1.01-.73,1.55-1.94,1.43-3.17l-3.98-38.8c-.12-1.21-.87-2.27-1.97-2.78l-101.48-47.81Z"/>
  <path class="cls-3" d="M1792.19,347.18c2.02-1.35,1.79-4.39-.41-5.42l-31.45-14.71c-1.53-.72-3.33-.58-4.73.36l-61.71,41.26-2.78-33.36c-.12-1.48-1.03-2.79-2.38-3.42l-33.41-15.63c-1.49-.69-3.17.48-3.03,2.11l6,72.17c.1,1.24.86,2.33,1.99,2.86l35.33,16.53c1.1.52,2.39.42,3.4-.26l93.17-62.48Z"/>
  <path class="cls-8" d="M1752.92,264.4c-2.2-1.04-4.69.72-4.44,3.14l3.55,34.54c.17,1.68,1.21,3.15,2.74,3.87l67.11,31.73-27.19,19.53c-1.21.87-1.86,2.32-1.71,3.8l3.77,36.69c.17,1.63,2.04,2.47,3.37,1.52l58.83-42.24c1.01-.73,1.55-1.94,1.43-3.17l-3.98-38.8c-.12-1.21-.87-2.27-1.97-2.78l-101.48-47.81Z"/>
  <path class="cls-3" d="M787.79,1008.18c2.02-1.35,1.79-4.39-.41-5.42l-31.45-14.71c-1.53-.72-3.33-.58-4.73.36l-61.71,41.26-2.78-33.36c-.12-1.48-1.03-2.79-2.38-3.42l-33.41-15.63c-1.49-.69-3.17.48-3.03,2.11l6,72.17c.1,1.24.86,2.33,1.99,2.86l35.33,16.53c1.1.52,2.39.42,3.4-.26l93.17-62.48Z"/>
  <path class="cls-8" d="M748.51,925.4c-2.2-1.04-4.69.72-4.44,3.14l3.55,34.54c.17,1.68,1.21,3.15,2.74,3.87l67.11,31.73-27.19,19.53c-1.21.87-1.86,2.32-1.71,3.8l3.77,36.69c.17,1.63,2.04,2.47,3.37,1.52l58.83-42.24c1.01-.73,1.55-1.94,1.43-3.17l-3.98-38.8c-.12-1.21-.87-2.27-1.97-2.78l-101.48-47.81Z"/>
  <path class="cls-7" d="M976.89,1065.44c2.2,1.04,4.69-.72,4.44-3.14l-3.55-34.54c-.17-1.68-1.21-3.15-2.74-3.87l-67.11-31.73,27.19-19.53c1.21-.87,1.86-2.32,1.71-3.8l-3.77-36.69c-.17-1.63-2.04-2.47-3.37-1.52l-58.83,42.24c-1.01.73-1.55,1.94-1.43,3.17l3.98,38.8c.12,1.21.87,2.27,1.97,2.78l101.48,47.81Z"/>
  <path class="cls-3" d="M952.11,899.99c2.02-1.35,1.79-4.39-.41-5.42l-31.45-14.71c-1.53-.72-3.33-.58-4.73.36l-61.71,41.26-2.78-33.36c-.12-1.48-1.03-2.79-2.38-3.42l-33.41-15.63c-1.49-.69-3.17.48-3.03,2.11l6,72.17c.1,1.24.86,2.33,1.99,2.86l35.33,16.53c1.1.52,2.39.42,3.4-.26l93.17-62.48Z"/>
  <path class="cls-8" d="M916.95,817.74c-2.2-1.04-4.69.72-4.44,3.14l3.55,34.54c.17,1.68,1.21,3.15,2.74,3.87l67.11,31.73-27.19,19.53c-1.21.87-1.86,2.32-1.71,3.8l3.77,36.69c.17,1.63,2.04,2.47,3.37,1.52l58.83-42.24c1.01-.73,1.55-1.94,1.43-3.17l-3.98-38.8c-.12-1.21-.87-2.27-1.97-2.78l-101.48-47.81Z"/>
  <path class="cls-7" d="M1145.33,957.78c2.2,1.04,4.69-.72,4.44-3.14l-3.55-34.54c-.17-1.68-1.21-3.15-2.74-3.87l-67.11-31.73,27.19-19.53c1.21-.87,1.86-2.32,1.71-3.8l-3.77-36.69c-.17-1.63-2.04-2.47-3.37-1.52l-58.83,42.24c-1.01.73-1.55,1.94-1.43,3.17l3.98,38.8c.12,1.21.87,2.27,1.97,2.78l101.48,47.81Z"/>
  <path class="cls-3" d="M1120.55,792.33c2.02-1.35,1.79-4.39-.41-5.42l-31.45-14.71c-1.53-.72-3.33-.58-4.73.36l-61.71,41.26-2.78-33.36c-.12-1.48-1.03-2.79-2.38-3.42l-33.41-15.63c-1.49-.69-3.17.48-3.03,2.11l6,72.17c.1,1.24.86,2.33,1.99,2.86l35.33,16.53c1.1.52,2.39.42,3.4-.26l93.17-62.48Z"/>
  <path class="cls-3" d="M1296.79,683.1c2.02-1.35,1.79-4.39-.41-5.42l-31.45-14.71c-1.53-.72-3.33-.58-4.73.36l-61.71,41.26-2.78-33.36c-.12-1.48-1.03-2.79-2.38-3.42l-33.41-15.63c-1.49-.69-3.17.48-3.03,2.11l6,72.17c.1,1.24.86,2.33,1.99,2.86l35.33,16.53c1.1.52,2.39.42,3.4-.26l93.17-62.48Z"/>
  <path class="cls-5" d="M940.13,986.39c-1.98,1.42-1.64,4.45.59,5.41l31.92,13.66c1.55.66,3.34.47,4.72-.52l60.31-43.28,3.88,33.25c.17,1.48,1.12,2.75,2.49,3.34l33.91,14.51c1.51.65,3.15-.58,2.96-2.21l-8.39-71.93c-.14-1.24-.94-2.3-2.08-2.79l-35.86-15.34c-1.12-.48-2.41-.34-3.39.37l-91.05,65.54Z"/>
  <path class="cls-8" d="M1081.28,709.55c-2.2-1.04-4.69.72-4.44,3.14l3.55,34.54c.17,1.68,1.21,3.15,2.74,3.87l67.11,31.73-27.19,19.53c-1.21.87-1.86,2.32-1.71,3.8l3.77,36.69c.17,1.63,2.04,2.47,3.37,1.52l58.83-42.24c1.01-.73,1.55-1.94,1.43-3.17l-3.98-38.8c-.12-1.21-.87-2.27-1.97-2.78l-101.48-47.81Z"/>
  <path class="cls-7" d="M1309.65,849.59c2.2,1.04,4.69-.72,4.44-3.14l-3.55-34.54c-.17-1.68-1.21-3.15-2.74-3.87l-67.11-31.73,27.19-19.53c1.21-.87,1.86-2.32,1.71-3.8l-3.77-36.69c-.17-1.63-2.04-2.47-3.37-1.52l-58.83,42.24c-1.01.73-1.55,1.94-1.43,3.17l3.98,38.8c.12,1.21.87,2.27,1.97,2.78l101.48,47.81Z"/>
  <path class="cls-5" d="M1104.46,878.2c-1.98,1.42-1.64,4.45.59,5.41l31.92,13.66c1.55.66,3.34.47,4.72-.52l60.31-43.28,3.88,33.25c.17,1.48,1.12,2.75,2.49,3.34l33.91,14.51c1.51.65,3.15-.58,2.96-2.21l-8.39-71.93c-.14-1.24-.94-2.3-2.08-2.79l-35.86-15.34c-1.12-.48-2.41-.34-3.39.37l-91.05,65.54Z"/>
  <path class="cls-8" d="M918.27,819.3c-2.2-1.04-4.69.72-4.44,3.14l3.55,34.54c.17,1.68,1.21,3.15,2.74,3.87l67.11,31.73-27.19,19.53c-1.21.87-1.86,2.32-1.71,3.8l3.77,36.69c.17,1.63,2.04,2.47,3.37,1.52l58.83-42.24c1.01-.73,1.55-1.94,1.43-3.17l-3.98-38.8c-.12-1.21-.87-2.27-1.97-2.78l-101.48-47.81Z"/>
  <path class="cls-7" d="M1310.98,851.15c2.2,1.04,4.69-.72,4.44-3.14l-3.55-34.54c-.17-1.68-1.21-3.15-2.74-3.87l-67.11-31.73,27.19-19.53c1.21-.87,1.86-2.32,1.71-3.8l-3.77-36.69c-.17-1.63-2.04-2.47-3.37-1.52l-58.83,42.24c-1.01.73-1.55,1.94-1.43,3.17l3.98,38.8c.12,1.21.87,2.27,1.97,2.78l101.48,47.81Z"/>
  <path class="cls-8" d="M1251.03,603.45c-2.2-1.04-4.69.72-4.44,3.14l3.55,34.54c.17,1.68,1.21,3.15,2.74,3.87l67.11,31.73-27.19,19.53c-1.21.87-1.86,2.32-1.71,3.8l3.77,36.69c.17,1.63,2.04,2.47,3.37,1.52l58.83-42.24c1.01-.73,1.55-1.94,1.43-3.17l-3.98-38.8c-.12-1.21-.87-2.27-1.97-2.78l-101.48-47.81Z"/>
  <path class="cls-8" d="M1415.64,498.14c-2.2-1.04-4.69.72-4.44,3.14l3.55,34.54c.17,1.68,1.21,3.15,2.74,3.87l67.11,31.73-27.19,19.53c-1.21.87-1.86,2.32-1.71,3.8l3.77,36.69c.17,1.63,2.04,2.47,3.37,1.52l58.83-42.24c1.01-.73,1.55-1.94,1.43-3.17l-3.98-38.8c-.12-1.21-.87-2.27-1.97-2.78l-101.48-47.81Z"/>
  <path class="cls-7" d="M1479.41,743.49c2.2,1.04,4.69-.72,4.44-3.14l-3.55-34.54c-.17-1.68-1.21-3.15-2.74-3.87l-67.11-31.73,27.19-19.53c1.21-.87,1.86-2.32,1.71-3.8l-3.77-36.69c-.17-1.63-2.04-2.47-3.37-1.52l-58.83,42.24c-1.01.73-1.55,1.94-1.43,3.17l3.98,38.8c.12,1.21.87,2.27,1.97,2.78l101.48,47.81Z"/>
  <path class="cls-3" d="M1454.63,578.04c2.02-1.35,1.79-4.39-.41-5.42l-31.45-14.71c-1.53-.72-3.33-.58-4.73.36l-61.71,41.26-2.78-33.36c-.12-1.48-1.03-2.79-2.38-3.42l-33.41-15.63c-1.49-.69-3.17.48-3.03,2.11l6,72.17c.1,1.24.86,2.33,1.99,2.86l35.33,16.53c1.1.52,2.39.42,3.4-.26l93.17-62.48Z"/>
  <path class="cls-5" d="M1274.22,772.1c-1.98,1.42-1.64,4.45.59,5.41l31.92,13.66c1.55.66,3.34.47,4.72-.52l60.31-43.28,3.88,33.25c.17,1.48,1.12,2.75,2.49,3.34l33.91,14.51c1.51.65,3.15-.58,2.96-2.21l-8.39-71.93c-.14-1.24-.94-2.3-2.08-2.79l-35.86-15.34c-1.12-.48-2.41-.34-3.39.37l-91.05,65.54Z"/>
  <path class="cls-7" d="M1643.74,635.3c2.2,1.04,4.69-.72,4.44-3.14l-3.55-34.54c-.17-1.68-1.21-3.15-2.74-3.87l-67.11-31.73,27.19-19.53c1.21-.87,1.86-2.32,1.71-3.8l-3.77-36.69c-.17-1.63-2.04-2.47-3.37-1.52l-58.83,42.24c-1.01.73-1.55,1.94-1.43,3.17l3.98,38.8c.12,1.21.87,2.27,1.97,2.78l101.48,47.81Z"/>
  <path class="cls-3" d="M1618.96,469.85c2.02-1.35,1.79-4.39-.41-5.42l-31.45-14.71c-1.53-.72-3.33-.58-4.73.36l-61.71,41.26-2.78-33.36c-.12-1.48-1.03-2.79-2.38-3.42l-33.41-15.63c-1.49-.69-3.17.48-3.03,2.11l6,72.17c.1,1.24.86,2.33,1.99,2.86l35.33,16.53c1.1.52,2.39.42,3.4-.26l93.17-62.48Z"/>
  <path class="cls-5" d="M1438.55,663.91c-1.98,1.42-1.64,4.45.59,5.41l31.92,13.66c1.55.66,3.34.47,4.72-.52l60.31-43.28,3.88,33.25c.17,1.48,1.12,2.75,2.49,3.34l33.91,14.51c1.51.65,3.15-.58,2.96-2.21l-8.39-71.93c-.14-1.24-.94-2.3-2.08-2.79l-35.86-15.34c-1.12-.48-2.41-.34-3.39.37l-91.05,65.54Z"/>
  <path class="cls-7" d="M1816.53,507.23c2.2,1.04,4.69-.72,4.44-3.14l-3.55-34.54c-.17-1.68-1.21-3.15-2.74-3.87l-67.11-31.73,27.19-19.53c1.21-.87,1.86-2.32,1.71-3.8l-3.77-36.69c-.17-1.63-2.04-2.47-3.37-1.52l-58.83,42.24c-1.01.73-1.55,1.94-1.43,3.17l3.98,38.8c.12,1.21.87,2.27,1.97,2.78l101.48,47.81Z"/>
  <path class="cls-5" d="M1610.74,552.3c-1.98,1.42-1.64,4.45.59,5.41l31.92,13.66c1.55.66,3.34.47,4.72-.52l60.31-43.28,3.88,33.25c.17,1.48,1.12,2.75,2.49,3.34l33.91,14.51c1.51.65,3.15-.58,2.96-2.21l-8.39-71.93c-.14-1.24-.94-2.3-2.08-2.79l-35.86-15.34c-1.12-.48-2.41-.34-3.39.37l-91.05,65.54Z"/>
  <path class="cls-8" d="M1768.47,502.53c-2.2-1.04-4.69.72-4.44,3.14l3.55,34.54c.17,1.68,1.21,3.15,2.74,3.87l67.11,31.73-27.19,19.53c-1.21.87-1.86,2.32-1.71,3.8l3.77,36.69c.17,1.63,2.04,2.47,3.37,1.52l58.83-42.24c1.01-.73,1.55-1.94,1.43-3.17l-3.98-38.8c-.12-1.21-.87-2.27-1.97-2.78l-101.48-47.81Z"/>
  <path class="cls-3" d="M1300.43,922.28c2.02-1.35,1.79-4.39-.41-5.42l-31.45-14.71c-1.53-.72-3.33-.58-4.73.36l-61.71,41.26-2.78-33.36c-.12-1.48-1.03-2.79-2.38-3.42l-33.41-15.63c-1.49-.69-3.17.48-3.03,2.11l6,72.17c.1,1.24.86,2.33,1.99,2.86l35.33,16.53c1.1.52,2.39.42,3.4-.26l93.17-62.48Z"/>
  <path class="cls-3" d="M1476.68,813.05c2.02-1.35,1.79-4.39-.41-5.42l-31.45-14.71c-1.53-.72-3.33-.58-4.73.36l-61.71,41.26-2.78-33.36c-.12-1.48-1.03-2.79-2.38-3.42l-33.41-15.63c-1.49-.69-3.17.48-3.03,2.11l6,72.17c.1,1.24.86,2.33,1.99,2.86l35.33,16.53c1.1.52,2.39.42,3.4-.26l93.17-62.48Z"/>
  <path class="cls-8" d="M1261.16,839.5c-2.2-1.04-4.69.72-4.44,3.14l3.55,34.54c.17,1.68,1.21,3.15,2.74,3.87l67.11,31.73-27.19,19.53c-1.21.87-1.86,2.32-1.71,3.8l3.77,36.69c.17,1.63,2.04,2.47,3.37,1.52l58.83-42.24c1.01-.73,1.55-1.94,1.43-3.17l-3.98-38.8c-.12-1.21-.87-2.27-1.97-2.78l-101.48-47.81Z"/>
  <path class="cls-7" d="M1489.54,979.54c2.2,1.04,4.69-.72,4.44-3.14l-3.55-34.54c-.17-1.68-1.21-3.15-2.74-3.87l-67.11-31.73,27.19-19.53c1.21-.87,1.86-2.32,1.71-3.8l-3.77-36.69c-.17-1.63-2.04-2.47-3.37-1.52l-58.83,42.24c-1.01.73-1.55,1.94-1.43,3.17l3.98,38.8c.12,1.21.87,2.27,1.97,2.78l101.48,47.81Z"/>
  <path class="cls-5" d="M1284.34,1008.15c-1.98,1.42-1.64,4.45.59,5.41l31.92,13.66c1.55.66,3.34.47,4.72-.52l60.31-43.28,3.88,33.25c.17,1.48,1.12,2.75,2.49,3.34l33.91,14.51c1.51.65,3.15-.58,2.96-2.21l-8.39-71.93c-.14-1.24-.94-2.3-2.08-2.79l-35.86-15.34c-1.12-.48-2.41-.34-3.39.37l-91.05,65.54Z"/>
  <path class="cls-7" d="M1490.86,981.1c2.2,1.04,4.69-.72,4.44-3.14l-3.55-34.54c-.17-1.68-1.21-3.15-2.74-3.87l-67.11-31.73,27.19-19.53c1.21-.87,1.86-2.32,1.71-3.8l-3.77-36.69c-.17-1.63-2.04-2.47-3.37-1.52l-58.83,42.24c-1.01.73-1.55,1.94-1.43,3.17l3.98,38.8c.12,1.21.87,2.27,1.97,2.78l101.48,47.81Z"/>
  <path class="cls-8" d="M1430.92,733.4c-2.2-1.04-4.69.72-4.44,3.14l3.55,34.54c.17,1.68,1.21,3.15,2.74,3.87l67.11,31.73-27.19,19.53c-1.21.87-1.86,2.32-1.71,3.8l3.77,36.69c.17,1.63,2.04,2.47,3.37,1.52l58.83-42.24c1.01-.73,1.55-1.94,1.43-3.17l-3.98-38.8c-.12-1.21-.87-2.27-1.97-2.78l-101.48-47.81Z"/>
  <path class="cls-8" d="M1595.52,628.09c-2.2-1.04-4.69.72-4.44,3.14l3.55,34.54c.17,1.68,1.21,3.15,2.74,3.87l67.11,31.73-27.19,19.53c-1.21.87-1.86,2.32-1.71,3.8l3.77,36.69c.17,1.63,2.04,2.47,3.37,1.52l58.83-42.24c1.01-.73,1.55-1.94,1.43-3.17l-3.98-38.8c-.12-1.21-.87-2.27-1.97-2.78l-101.48-47.81Z"/>
  <path class="cls-7" d="M1659.29,873.44c2.2,1.04,4.69-.72,4.44-3.14l-3.55-34.54c-.17-1.68-1.21-3.15-2.74-3.87l-67.11-31.73,27.19-19.53c1.21-.87,1.86-2.32,1.71-3.8l-3.77-36.69c-.17-1.63-2.04-2.47-3.37-1.52l-58.83,42.24c-1.01.73-1.55,1.94-1.43,3.17l3.98,38.8c.12,1.21.87,2.27,1.97,2.78l101.48,47.81Z"/>
  <path class="cls-3" d="M1634.52,707.99c2.02-1.35,1.79-4.39-.41-5.42l-31.45-14.71c-1.53-.72-3.33-.58-4.73.36l-61.71,41.26-2.78-33.36c-.12-1.48-1.03-2.79-2.38-3.42l-33.41-15.63c-1.49-.69-3.17.48-3.03,2.11l6,72.17c.1,1.24.86,2.33,1.99,2.86l35.33,16.53c1.1.52,2.39.42,3.4-.26l93.17-62.48Z"/>
  <path class="cls-5" d="M1454.1,902.05c-1.98,1.42-1.64,4.45.59,5.41l31.92,13.66c1.55.66,3.34.47,4.72-.52l60.31-43.28,3.88,33.25c.17,1.48,1.12,2.75,2.49,3.34l33.91,14.51c1.51.65,3.15-.58,2.96-2.21l-8.39-71.93c-.14-1.24-.94-2.3-2.08-2.79l-35.86-15.34c-1.12-.48-2.41-.34-3.39.37l-91.05,65.54Z"/>
  <path class="cls-7" d="M1823.62,765.25c2.2,1.04,4.69-.72,4.44-3.14l-3.55-34.54c-.17-1.68-1.21-3.15-2.74-3.87l-67.11-31.73,27.19-19.53c1.21-.87,1.86-2.32,1.71-3.8l-3.77-36.69c-.17-1.63-2.04-2.47-3.37-1.52l-58.83,42.24c-1.01.73-1.55,1.94-1.43,3.17l3.98,38.8c.12,1.21.87,2.27,1.97,2.78l101.48,47.81Z"/>
  <path class="cls-3" d="M1798.85,599.8c2.02-1.35,1.79-4.39-.41-5.42l-31.45-14.71c-1.53-.72-3.33-.58-4.73.36l-61.71,41.26-2.78-33.36c-.12-1.48-1.03-2.79-2.38-3.42l-33.41-15.63c-1.49-.69-3.17.48-3.03,2.11l6,72.17c.1,1.24.86,2.33,1.99,2.86l35.33,16.53c1.1.52,2.39.42,3.4-.26l93.17-62.48Z"/>
  <path class="cls-5" d="M1618.43,793.86c-1.98,1.42-1.64,4.45.59,5.41l31.92,13.66c1.55.66,3.34.47,4.72-.52l60.31-43.28,3.88,33.25c.17,1.48,1.12,2.75,2.49,3.34l33.91,14.51c1.51.65,3.15-.58,2.96-2.21l-8.39-71.93c-.14-1.24-.94-2.3-2.08-2.79l-35.86-15.34c-1.12-.48-2.41-.34-3.39.37l-91.05,65.54Z"/>
  <path class="cls-3" d="M1659.99,943.96c2.02-1.35,1.79-4.39-.41-5.42l-31.45-14.71c-1.53-.72-3.33-.58-4.73.36l-61.71,41.26-2.78-33.36c-.12-1.48-1.03-2.79-2.38-3.42l-33.41-15.63c-1.49-.69-3.17.48-3.03,2.11l6,72.17c.1,1.24.86,2.33,1.99,2.86l35.33,16.53c1.1.52,2.39.42,3.4-.26l93.17-62.48Z"/>
  <path class="cls-8" d="M1614.23,864.31c-2.2-1.04-4.69.72-4.44,3.14l3.55,34.54c.17,1.68,1.21,3.15,2.74,3.87l67.11,31.73-27.19,19.53c-1.21.87-1.86,2.32-1.71,3.8l3.77,36.69c.17,1.63,2.04,2.47,3.37,1.52l58.83-42.24c1.01-.73,1.55-1.94,1.43-3.17l-3.98-38.8c-.12-1.21-.87-2.27-1.97-2.78l-101.48-47.81Z"/>
  <path class="cls-8" d="M1778.84,759c-2.2-1.04-4.69.72-4.44,3.14l3.55,34.54c.17,1.68,1.21,3.15,2.74,3.87l67.11,31.73-27.19,19.53c-1.21.87-1.86,2.32-1.71,3.8l3.77,36.69c.17,1.63,2.04,2.47,3.37,1.52l58.83-42.24c1.01-.73,1.55-1.94,1.43-3.17l-3.98-38.8c-.12-1.21-.87-2.27-1.97-2.78l-101.48-47.81Z"/>
  <path class="cls-7" d="M1842.61,1004.35c2.2,1.04,4.69-.72,4.44-3.14l-3.55-34.54c-.17-1.68-1.21-3.15-2.74-3.87l-67.11-31.73,27.19-19.53c1.21-.87,1.86-2.32,1.71-3.8l-3.77-36.69c-.17-1.63-2.04-2.47-3.37-1.52l-58.83,42.24c-1.01.73-1.55,1.94-1.43,3.17l3.98,38.8c.12,1.21.87,2.27,1.97,2.78l101.48,47.81Z"/>
  <path class="cls-3" d="M1817.83,838.9c2.02-1.35,1.79-4.39-.41-5.42l-31.45-14.71c-1.53-.72-3.33-.58-4.73.36l-61.71,41.26-2.78-33.36c-.12-1.48-1.03-2.79-2.38-3.42l-33.41-15.63c-1.49-.69-3.17.48-3.03,2.11l6,72.17c.1,1.24.86,2.33,1.99,2.86l35.33,16.53c1.1.52,2.39.42,3.4-.26l93.17-62.48Z"/>
  <path class="cls-5" d="M1637.42,1032.95c-1.98,1.42-1.64,4.45.59,5.41l31.92,13.66c1.55.66,3.34.47,4.72-.52l60.31-43.28,3.88,33.25c.17,1.48,1.12,2.75,2.49,3.34l33.91,14.51c1.51.65,3.15-.58,2.96-2.21l-8.39-71.93c-.14-1.24-.94-2.3-2.08-2.79l-35.86-15.34c-1.12-.48-2.41-.34-3.39.37l-91.05,65.54Z"/>
</svg>