<?xml version="1.0" encoding="UTF-8"?>
<svg id="Layer_1" data-name="Layer 1" xmlns="http://www.w3.org/2000/svg" xmlns:xlink="http://www.w3.org/1999/xlink" viewBox="0 0 1920 1080">
  <defs>
    <style>
      .cls-1, .cls-2, .cls-3 {
        fill: none;
      }

      .cls-2 {
        opacity: .92;
        stroke: #01ff97;
      }

      .cls-2, .cls-3 {
        stroke-miterlimit: 10;
      }

      .cls-4 {
        fill: #fff;
      }

      .cls-4, .cls-3 {
        opacity: .64;
      }

      .cls-5 {
        fill: #01ff97;
        opacity: .74;
      }

      .cls-3 {
        stroke: #fff;
      }

      .cls-6 {
        clip-path: url(#clippath);
      }
    </style>
    <clipPath id="clippath">
      <rect class="cls-1" x="420" y="-420" width="1080" height="1920" transform="translate(420 1500) rotate(-90)"/>
    </clipPath>
  </defs>
  <g class="cls-6">
    <path class="cls-4" d="M-188.96,1022.73c-20.13,11.67-19.79,40.85.61,52.04l291.3,159.76c14.18,7.78,31.4,7.58,45.4-.53l614.62-356.15,6.03,320.31c.27,14.24,8.14,27.25,20.63,34.1l309.5,169.74c13.76,7.55,30.54-2.6,30.24-18.29l-13.04-692.92c-.22-11.9-6.8-22.77-17.23-28.49l-327.29-179.5c-10.2-5.6-22.59-5.44-32.66.41L-188.96,1022.73Z"/>
    <path class="cls-5" d="M2106.27,55.77c20.13-11.67,19.79-40.85-.61-52.04l-291.3-159.76c-14.18-7.78-31.4-7.58-45.4.53l-614.62,356.15-6.03-320.31c-.27-14.24-8.14-27.25-20.63-34.1l-309.5-169.74c-13.76-7.55-30.54,2.6-30.24,18.29l13.04,692.92c.22,11.9,6.8,22.77,17.23,28.49l327.29,179.5c10.2,5.6,22.59,5.44,32.66-.41L2106.27,55.77Z"/>
    <path class="cls-3" d="M1962.5,1495.05c20.07,11.77,45.3-2.9,44.99-26.17l-4.46-332.21c-.22-16.17-8.87-31.06-22.83-39.24l-612.69-359.45,275.79-163.02c12.26-7.25,19.71-20.51,19.52-34.75l-4.73-352.96c-.21-15.69-17.31-25.3-30.82-17.31l-596.6,352.67c-10.24,6.06-16.47,17.13-16.31,29.03l5.01,373.25c.16,11.64,6.39,22.34,16.44,28.22l926.69,541.95Z"/>
    <path class="cls-2" d="M-9.58-26.12C-29.65-37.89-54.88-23.21-54.57.05l4.46,332.21c.22,16.17,8.87,31.06,22.83,39.24l612.69,359.45-275.79,163.02c-12.26,7.25-19.71,20.51-19.52,34.75l4.73,352.96c.21,15.69,17.31,25.3,30.82,17.31l596.6-352.67c10.24-6.06,16.47-17.13,16.31-29.03l-5.01-373.25c-.16-11.64-6.39-22.34-16.44-28.22L-9.58-26.12Z"/>
  </g>
</svg>