<?xml version="1.0" encoding="UTF-8"?>
<svg id="Layer_1" data-name="Layer 1" xmlns="http://www.w3.org/2000/svg" viewBox="0 0 1920 405.33">
  <defs>
    <style>
      .cls-1 {
        fill: #fff;
      }

      .cls-2 {
        fill: #01ff97;
      }
    </style>
  </defs>
  <g>
    <path class="cls-1" d="M111.35,264.53c-16.56,0-30.02-4.72-40.41-14.17-10.39-9.45-15.58-23.08-15.58-40.88h36.55c.31,7.18,2.03,12.69,5.15,16.52,3.12,3.83,7.57,5.74,13.35,5.74,5.46,0,9.64-1.76,12.53-5.27,2.89-3.51,4.33-8.39,4.33-14.64v-114.08h36.78v114.08c0,17.02-4.77,30.07-14.29,39.12-9.53,9.06-22.34,13.59-38.42,13.59Z"/>
    <path class="cls-1" d="M245.58,264.53c-11.24,0-21.51-2.38-30.8-7.14-9.29-4.76-16.71-11.67-22.26-20.73-5.54-9.05-8.32-20.06-8.32-33.03s2.69-23.03,8.08-32.09c5.39-9.05,12.77-16.12,22.14-21.2,9.37-5.07,19.91-7.61,31.63-7.61,12.49,0,23.35,2.62,32.56,7.85,9.21,5.23,16.4,12.42,21.55,21.55,5.15,9.14,7.73,19.64,7.73,31.51s-2.73,23.08-8.2,32.21c-5.47,9.14-12.88,16.21-22.26,21.2-9.37,5-19.99,7.5-31.86,7.5ZM245.82,233.14c5.15,0,9.6-1.25,13.35-3.75,3.75-2.5,6.68-6.01,8.79-10.54,2.11-4.53,3.16-9.68,3.16-15.46,0-6.4-1.13-11.75-3.4-16.05-2.27-4.29-5.31-7.53-9.14-9.72-3.83-2.19-8.08-3.28-12.77-3.28s-9.18,1.17-13,3.51c-3.83,2.34-6.83,5.7-9.02,10.07-2.19,4.37-3.28,9.6-3.28,15.69s1.05,10.89,3.16,15.34c2.11,4.45,5.04,7.93,8.78,10.43,3.75,2.5,8.2,3.75,13.35,3.75Z"/>
    <path class="cls-1" d="M327.81,261.72V97.74h36.08v61.84c4.22-5.93,9.21-10.23,14.99-12.88,5.78-2.65,12.26-3.98,19.44-3.98,14.52,0,25.54,4.65,33.03,13.94,7.5,9.29,11.24,21.36,11.24,36.19v68.87h-35.84v-64.42c0-7.34-1.8-13.24-5.39-17.69-3.59-4.45-8.98-6.68-16.16-6.68s-12.34,2.31-15.93,6.91c-3.59,4.61-5.39,10.43-5.39,17.45v64.42h-36.08Z"/>
    <path class="cls-1" d="M464.15,261.72v-116.19h36.08v14.05c4.22-5.93,9.21-10.23,14.99-12.88,5.78-2.65,12.26-3.98,19.44-3.98,14.52,0,25.54,4.65,33.03,13.94,7.5,9.29,11.24,21.36,11.24,36.19v68.87h-35.84v-64.42c0-7.34-1.8-13.24-5.39-17.69-3.59-4.45-8.98-6.68-16.16-6.68s-12.34,2.31-15.93,6.91c-3.59,4.61-5.39,10.43-5.39,17.45v64.42h-36.08Z"/>
    <path class="cls-1" d="M652.26,264.53c-8.43,0-16.75-1.52-24.95-4.57-8.2-3.04-15.03-7.57-20.5-13.59-5.47-6.01-8.51-13.47-9.14-22.37h35.84c.62,4.37,2.69,7.77,6.21,10.19,3.51,2.42,7.53,3.63,12.06,3.63,3.75,0,7.06-.74,9.96-2.23,2.89-1.48,4.33-3.94,4.33-7.38,0-2.81-1.33-5.04-3.98-6.68-2.66-1.64-5.74-2.93-9.25-3.87-3.51-.94-6.6-1.72-9.25-2.34-7.34-1.87-14.21-3.98-20.62-6.33-6.41-2.34-11.6-5.78-15.58-10.31-3.98-4.53-5.97-10.93-5.97-19.21s2.19-14.68,6.56-20.15c4.37-5.46,10.23-9.61,17.57-12.42,7.34-2.81,15.38-4.22,24.13-4.22,13.74,0,25.1,3.4,34.09,10.19,8.98,6.79,14.25,16.83,15.81,30.1h-33.5c-.78-4.68-2.73-8.08-5.86-10.19-3.13-2.11-7.03-3.16-11.71-3.16-3.44,0-6.48.66-9.14,1.99-2.66,1.33-3.98,3.71-3.98,7.14,0,2.81,1.29,5.04,3.87,6.68,2.58,1.64,5.58,2.85,9.02,3.63,3.43.78,6.56,1.56,9.37,2.34,7.5,1.87,14.41,4.06,20.73,6.56,6.33,2.5,11.52,6.05,15.58,10.66,4.06,4.61,6.17,11.21,6.33,19.79,0,7.65-2.23,14.17-6.68,19.56-4.45,5.39-10.31,9.49-17.57,12.3-7.26,2.81-15.19,4.22-23.78,4.22Z"/>
    <path class="cls-1" d="M778.53,264.53c-11.24,0-21.51-2.38-30.8-7.14-9.29-4.76-16.71-11.67-22.26-20.73-5.54-9.05-8.32-20.06-8.32-33.03s2.69-23.03,8.08-32.09c5.39-9.05,12.77-16.12,22.14-21.2,9.37-5.07,19.91-7.61,31.63-7.61,12.49,0,23.35,2.62,32.56,7.85,9.21,5.23,16.4,12.42,21.55,21.55,5.15,9.14,7.73,19.64,7.73,31.51s-2.73,23.08-8.2,32.21c-5.47,9.14-12.88,16.21-22.26,21.2-9.37,5-19.99,7.5-31.86,7.5ZM778.76,233.14c5.15,0,9.6-1.25,13.35-3.75,3.75-2.5,6.68-6.01,8.79-10.54,2.11-4.53,3.16-9.68,3.16-15.46,0-6.4-1.13-11.75-3.4-16.05-2.27-4.29-5.31-7.53-9.14-9.72-3.83-2.19-8.08-3.28-12.77-3.28s-9.18,1.17-13,3.51c-3.83,2.34-6.83,5.7-9.02,10.07-2.19,4.37-3.28,9.6-3.28,15.69s1.05,10.89,3.16,15.34c2.11,4.45,5.04,7.93,8.78,10.43,3.75,2.5,8.2,3.75,13.35,3.75Z"/>
    <path class="cls-1" d="M860.75,261.72v-116.19h36.08v14.05c4.22-5.93,9.21-10.23,14.99-12.88,5.78-2.65,12.26-3.98,19.44-3.98,14.52,0,25.54,4.65,33.03,13.94,7.5,9.29,11.24,21.36,11.24,36.19v68.87h-35.84v-64.42c0-7.34-1.8-13.24-5.39-17.69-3.59-4.45-8.98-6.68-16.16-6.68s-12.34,2.31-15.93,6.91c-3.59,4.61-5.39,10.43-5.39,17.45v64.42h-36.08Z"/>
    <path class="cls-1" d="M1411.5,261.72V97.74h37.01v131.89h67v32.09h-104.01Z"/>
    <path class="cls-1" d="M1576.19,264.53c-9.69,0-17.84-2.15-24.48-6.44-6.64-4.29-11.64-10.23-14.99-17.8-3.36-7.57-5.04-16.2-5.04-25.89v-68.87h35.84v64.42c0,7.19,1.79,13.04,5.39,17.57,3.59,4.53,8.98,6.79,16.16,6.79s12.57-2.26,16.16-6.79c3.59-4.53,5.39-10.38,5.39-17.57v-64.42h36.08v116.19h-36.08v-14.52c-4.06,5.78-9.06,10.11-14.99,13-5.94,2.89-12.42,4.33-19.44,4.33Z"/>
    <path class="cls-1" d="M1705.73,212.29v49.43h-36.08V97.74h36.08v94.17"/>
    <path class="cls-1" d="M1844.42,264.53c-10.77,0-20.69-2.31-29.75-6.91-9.06-4.61-16.32-11.44-21.79-20.5-5.47-9.06-8.2-20.22-8.2-33.5s2.65-24.44,7.97-33.5c5.31-9.06,12.49-15.89,21.55-20.5,9.05-4.6,19.13-6.91,30.22-6.91s21.75,2.38,30.57,7.15c8.82,4.76,15.77,11.56,20.85,20.38,5.07,8.82,7.61,19.33,7.61,31.51,0,1.56-.04,3.24-.12,5.04-.08,1.8-.28,3.63-.59,5.5h-81.99c.47,5.62,1.83,10.07,4.1,13.35,2.26,3.28,5.07,5.66,8.43,7.15,3.36,1.49,6.68,2.23,9.96,2.23,4.53,0,8.35-.94,11.48-2.81,3.12-1.87,5.54-4.76,7.26-8.67h38.65c-1.72,7.34-5.15,14.14-10.31,20.38-5.15,6.25-11.6,11.24-19.33,14.99-7.73,3.75-16.6,5.62-26.59,5.62ZM1820.76,192.14h45.45c0-6.4-2.11-11.4-6.32-14.99-4.22-3.59-9.53-5.39-15.93-5.39s-11.4,1.84-15.46,5.5c-4.06,3.67-6.64,8.63-7.73,14.88Z"/>
  </g>
  <path class="cls-1" d="M1008.75,60.66c-3.65-2.21-8.32.42-8.32,4.69v60.98c0,2.97,1.55,5.72,4.09,7.26l111.55,67.47-51.01,29.24c-2.27,1.3-3.67,3.71-3.67,6.33v64.78c0,2.88,3.11,4.68,5.61,3.25l110.35-63.25c1.89-1.09,3.06-3.1,3.06-5.29v-68.51c0-2.14-1.12-4.12-2.95-5.22l-168.73-101.74Z"/>
  <path class="cls-2" d="M1366.91,344.67c3.65,2.21,8.32-.42,8.32-4.69v-60.98c0-2.97-1.55-5.72-4.09-7.26l-111.55-67.47,51.01-29.24c2.27-1.3,3.67-3.71,3.67-6.33v-64.78c0-2.88-3.11-4.68-5.61-3.25l-110.35,63.25c-1.89,1.09-3.06,3.1-3.06,5.29v68.51c0,2.14,1.12,4.12,2.95,5.22l168.73,101.74Z"/>
  <polygon class="cls-1" points="1711.97 202.1 1747.81 145.53 1790.01 145.53 1750.77 202.1 1790.01 261.72 1747.81 261.72 1711.97 202.1 1711.97 202.1"/>
</svg>